  0
SECTION
  2
HEADER
  9
$ACADVER
  1
AC1032
  9
$ACADMAINTVER
 90
4
  9
$DWGCODEPAGE
  3
ANSI_1252
  9
$LASTSAVEDBY
  1
ezdxf
  9
$REQUIREDVERSIONS
160
0
  9
$INSBASE
 10
0.0
 20
0.0
 30
0.0
  9
$EXTMIN
 10
1e+20
 20
1e+20
 30
1e+20
  9
$EXTMAX
 10
-1e+20
 20
-1e+20
 30
-1e+20
  9
$LIMMIN
 10
0.0
 20
0.0
  9
$LIMMAX
 10
420.0
 20
297.0
  9
$ORTHOMODE
 70
0
  9
$REGENMODE
 70
1
  9
$FILLMODE
 70
1
  9
$QTEXTMODE
 70
0
  9
$MIRRTEXT
 70
1
  9
$LTSCALE
 40
1.0
  9
$ATTMODE
 70
1
  9
$TEXTSIZE
 40
2.5
  9
$TRACEWID
 40
1.0
  9
$TEXTSTYLE
  7
Standard
  9
$CLAYER
  8
0
  9
$CELTYPE
  6
ByLayer
  9
$CECOLOR
 62
256
  9
$CELTSCALE
 40
1.0
  9
$DISPSILH
 70
0
  9
$DIMSCALE
 40
1.0
  9
$DIMASZ
 40
2.5
  9
$DIMEXO
 40
0.625
  9
$DIMDLI
 40
3.75
  9
$DIMRND
 40
0.0
  9
$DIMDLE
 40
0.0
  9
$DIMEXE
 40
1.25
  9
$DIMTP
 40
0.0
  9
$DIMTM
 40
0.0
  9
$DIMTXT
 40
2.5
  9
$DIMCEN
 40
2.5
  9
$DIMTSZ
 40
0.0
  9
$DIMTOL
 70
0
  9
$DIMLIM
 70
0
  9
$DIMTIH
 70
0
  9
$DIMTOH
 70
0
  9
$DIMSE1
 70
0
  9
$DIMSE2
 70
0
  9
$DIMTAD
 70
1
  9
$DIMZIN
 70
8
  9
$DIMBLK
  1

  9
$DIMASO
 70
1
  9
$DIMSHO
 70
1
  9
$DIMPOST
  1

  9
$DIMAPOST
  1

  9
$DIMALT
 70
0
  9
$DIMALTD
 70
3
  9
$DIMALTF
 40
0.03937007874
  9
$DIMLFAC
 40
1.0
  9
$DIMTOFL
 70
1
  9
$DIMTVP
 40
0.0
  9
$DIMTIX
 70
0
  9
$DIMSOXD
 70
0
  9
$DIMSAH
 70
0
  9
$DIMBLK1
  1

  9
$DIMBLK2
  1

  9
$DIMSTYLE
  2
ISO-25
  9
$DIMCLRD
 70
0
  9
$DIMCLRE
 70
0
  9
$DIMCLRT
 70
0
  9
$DIMTFAC
 40
1.0
  9
$DIMGAP
 40
0.625
  9
$DIMJUST
 70
0
  9
$DIMSD1
 70
0
  9
$DIMSD2
 70
0
  9
$DIMTOLJ
 70
0
  9
$DIMTZIN
 70
8
  9
$DIMALTZ
 70
0
  9
$DIMALTTZ
 70
0
  9
$DIMUPT
 70
0
  9
$DIMDEC
 70
2
  9
$DIMTDEC
 70
2
  9
$DIMALTU
 70
2
  9
$DIMALTTD
 70
3
  9
$DIMTXSTY
  7
Standard
  9
$DIMAUNIT
 70
0
  9
$DIMADEC
 70
0
  9
$DIMALTRND
 40
0.0
  9
$DIMAZIN
 70
0
  9
$DIMDSEP
 70
44
  9
$DIMATFIT
 70
3
  9
$DIMFRAC
 70
0
  9
$DIMLDRBLK
  1

  9
$DIMLUNIT
 70
2
  9
$DIMLWD
 70
-2
  9
$DIMLWE
 70
-2
  9
$DIMTMOVE
 70
0
  9
$DIMFXL
 40
1.0
  9
$DIMFXLON
 70
0
  9
$DIMJOGANG
 40
0.785398163397
  9
$DIMTFILL
 70
0
  9
$DIMTFILLCLR
 70
0
  9
$DIMARCSYM
 70
0
  9
$DIMLTYPE
  6

  9
$DIMLTEX1
  6

  9
$DIMLTEX2
  6

  9
$DIMTXTDIRECTION
 70
0
  9
$LUNITS
 70
2
  9
$LUPREC
 70
4
  9
$SKETCHINC
 40
1.0
  9
$FILLETRAD
 40
10.0
  9
$AUNITS
 70
0
  9
$AUPREC
 70
2
  9
$MENU
  1
.
  9
$ELEVATION
 40
0.0
  9
$PELEVATION
 40
0.0
  9
$THICKNESS
 40
0.0
  9
$LIMCHECK
 70
0
  9
$CHAMFERA
 40
0.0
  9
$CHAMFERB
 40
0.0
  9
$CHAMFERC
 40
0.0
  9
$CHAMFERD
 40
0.0
  9
$SKPOLY
 70
0
  9
$TDCREATE
 40
2461204.9766898146
  9
$TDUCREATE
 40
2458532.153996898
  9
$TDUPDATE
 40
2461204.9766898146
  9
$TDUUPDATE
 40
2458532.1544311
  9
$TDINDWG
 40
0.0
  9
$TDUSRTIMER
 40
0.0
  9
$USRTIMER
 70
1
  9
$ANGBASE
 50
0.0
  9
$ANGDIR
 70
0
  9
$PDMODE
 70
0
  9
$PDSIZE
 40
0.0
  9
$PLINEWID
 40
0.0
  9
$SPLFRAME
 70
0
  9
$SPLINETYPE
 70
6
  9
$SPLINESEGS
 70
8
  9
$HANDSEED
  5
8C
  9
$SURFTAB1
 70
6
  9
$SURFTAB2
 70
6
  9
$SURFTYPE
 70
6
  9
$SURFU
 70
6
  9
$SURFV
 70
6
  9
$UCSBASE
  2

  9
$UCSNAME
  2

  9
$UCSORG
 10
0.0
 20
0.0
 30
0.0
  9
$UCSXDIR
 10
1.0
 20
0.0
 30
0.0
  9
$UCSYDIR
 10
0.0
 20
1.0
 30
0.0
  9
$UCSORTHOREF
  2

  9
$UCSORTHOVIEW
 70
0
  9
$UCSORGTOP
 10
0.0
 20
0.0
 30
0.0
  9
$UCSORGBOTTOM
 10
0.0
 20
0.0
 30
0.0
  9
$UCSORGLEFT
 10
0.0
 20
0.0
 30
0.0
  9
$UCSORGRIGHT
 10
0.0
 20
0.0
 30
0.0
  9
$UCSORGFRONT
 10
0.0
 20
0.0
 30
0.0
  9
$UCSORGBACK
 10
0.0
 20
0.0
 30
0.0
  9
$PUCSBASE
  2

  9
$PUCSNAME
  2

  9
$PUCSORG
 10
0.0
 20
0.0
 30
0.0
  9
$PUCSXDIR
 10
1.0
 20
0.0
 30
0.0
  9
$PUCSYDIR
 10
0.0
 20
1.0
 30
0.0
  9
$PUCSORTHOREF
  2

  9
$PUCSORTHOVIEW
 70
0
  9
$PUCSORGTOP
 10
0.0
 20
0.0
 30
0.0
  9
$PUCSORGBOTTOM
 10
0.0
 20
0.0
 30
0.0
  9
$PUCSORGLEFT
 10
0.0
 20
0.0
 30
0.0
  9
$PUCSORGRIGHT
 10
0.0
 20
0.0
 30
0.0
  9
$PUCSORGFRONT
 10
0.0
 20
0.0
 30
0.0
  9
$PUCSORGBACK
 10
0.0
 20
0.0
 30
0.0
  9
$USERI1
 70
0
  9
$USERI2
 70
0
  9
$USERI3
 70
0
  9
$USERI4
 70
0
  9
$USERI5
 70
0
  9
$USERR1
 40
0.0
  9
$USERR2
 40
0.0
  9
$USERR3
 40
0.0
  9
$USERR4
 40
0.0
  9
$USERR5
 40
0.0
  9
$WORLDVIEW
 70
1
  9
$SHADEDGE
 70
3
  9
$SHADEDIF
 70
70
  9
$TILEMODE
 70
1
  9
$MAXACTVP
 70
64
  9
$PINSBASE
 10
0.0
 20
0.0
 30
0.0
  9
$PLIMCHECK
 70
0
  9
$PEXTMIN
 10
1e+20
 20
1e+20
 30
1e+20
  9
$PEXTMAX
 10
-1e+20
 20
-1e+20
 30
-1e+20
  9
$PLIMMIN
 10
0.0
 20
0.0
  9
$PLIMMAX
 10
420.0
 20
297.0
  9
$UNITMODE
 70
0
  9
$VISRETAIN
 70
1
  9
$PLINEGEN
 70
0
  9
$PSLTSCALE
 70
1
  9
$TREEDEPTH
 70
3020
  9
$CMLSTYLE
  2
Standard
  9
$CMLJUST
 70
0
  9
$CMLSCALE
 40
20.0
  9
$PROXYGRAPHICS
 70
1
  9
$MEASUREMENT
 70
1
  9
$CELWEIGHT
370
-1
  9
$ENDCAPS
280
0
  9
$JOINSTYLE
280
0
  9
$LWDISPLAY
290
0
  9
$INSUNITS
 70
6
  9
$HYPERLINKBASE
  1

  9
$STYLESHEET
  1

  9
$XEDIT
290
1
  9
$CEPSNTYPE
380
0
  9
$PSTYLEMODE
290
1
  9
$FINGERPRINTGUID
  2
{354CCC4B-2950-4DFE-A7DA-964602D6460D}
  9
$VERSIONGUID
  2
{60E619E8-81B6-4824-87E8-7E2BD1F93A3F}
  9
$EXTNAMES
290
1
  9
$PSVPSCALE
 40
0.0
  9
$OLESTARTUP
290
0
  9
$SORTENTS
280
127
  9
$INDEXCTL
280
0
  9
$HIDETEXT
280
1
  9
$XCLIPFRAME
280
1
  9
$HALOGAP
280
0
  9
$OBSCOLOR
 70
257
  9
$OBSLTYPE
280
0
  9
$INTERSECTIONDISPLAY
280
0
  9
$INTERSECTIONCOLOR
 70
257
  9
$DIMASSOC
280
2
  9
$PROJECTNAME
  1

  9
$CAMERADISPLAY
290
0
  9
$LENSLENGTH
 40
50.0
  9
$CAMERAHEIGHT
 40
0.0
  9
$STEPSPERSEC
 40
24.0
  9
$STEPSIZE
 40
100.0
  9
$3DDWFPREC
 40
2.0
  9
$PSOLWIDTH
 40
0.005
  9
$PSOLHEIGHT
 40
0.08
  9
$LOFTANG1
 40
1.570796326795
  9
$LOFTANG2
 40
1.570796326795
  9
$LOFTMAG1
 40
0.0
  9
$LOFTMAG2
 40
0.0
  9
$LOFTPARAM
 70
7
  9
$LOFTNORMALS
280
1
  9
$LATITUDE
 40
37.795
  9
$LONGITUDE
 40
-122.394
  9
$NORTHDIRECTION
 40
0.0
  9
$TIMEZONE
 70
-8000
  9
$LIGHTGLYPHDISPLAY
280
1
  9
$TILEMODELIGHTSYNCH
280
1
  9
$CMATERIAL
347
20
  9
$SOLIDHIST
280
0
  9
$SHOWHIST
280
1
  9
$DWFFRAME
280
2
  9
$DGNFRAME
280
2
  9
$REALWORLDSCALE
290
1
  9
$INTERFERECOLOR
 62
256
  9
$CSHADOW
280
0
  9
$SHADOWPLANELOCATION
 40
0.0
  0
ENDSEC
  0
SECTION
  2
CLASSES
  0
CLASS
  1
ACDBDICTIONARYWDFLT
  2
AcDbDictionaryWithDefault
  3
ObjectDBX Classes
 90
0
 91
0
280
0
281
0
  0
CLASS
  1
SUN
  2
AcDbSun
  3
SCENEOE
 90
1153
 91
0
280
0
281
0
  0
CLASS
  1
VISUALSTYLE
  2
AcDbVisualStyle
  3
ObjectDBX Classes
 90
4095
 91
0
280
0
281
0
  0
CLASS
  1
MATERIAL
  2
AcDbMaterial
  3
ObjectDBX Classes
 90
1153
 91
0
280
0
281
0
  0
CLASS
  1
SCALE
  2
AcDbScale
  3
ObjectDBX Classes
 90
1153
 91
0
280
0
281
0
  0
CLASS
  1
TABLESTYLE
  2
AcDbTableStyle
  3
ObjectDBX Classes
 90
4095
 91
0
280
0
281
0
  0
CLASS
  1
MLEADERSTYLE
  2
AcDbMLeaderStyle
  3
ACDB_MLEADERSTYLE_CLASS
 90
4095
 91
0
280
0
281
0
  0
CLASS
  1
DICTIONARYVAR
  2
AcDbDictionaryVar
  3
ObjectDBX Classes
 90
0
 91
0
280
0
281
0
  0
CLASS
  1
CELLSTYLEMAP
  2
AcDbCellStyleMap
  3
ObjectDBX Classes
 90
1152
 91
0
280
0
281
0
  0
CLASS
  1
MENTALRAYRENDERSETTINGS
  2
AcDbMentalRayRenderSettings
  3
SCENEOE
 90
1024
 91
0
280
0
281
0
  0
CLASS
  1
ACDBDETAILVIEWSTYLE
  2
AcDbDetailViewStyle
  3
ObjectDBX Classes
 90
1025
 91
0
280
0
281
0
  0
CLASS
  1
ACDBSECTIONVIEWSTYLE
  2
AcDbSectionViewStyle
  3
ObjectDBX Classes
 90
1025
 91
0
280
0
281
0
  0
CLASS
  1
RASTERVARIABLES
  2
AcDbRasterVariables
  3
ISM
 90
0
 91
0
280
0
281
0
  0
CLASS
  1
IMAGE
  2
AcDbRasterImage
  3
ISM
 90
2175
 91
0
280
0
281
1
  0
CLASS
  1
IMAGEDEF
  2
AcDbRasterImageDef
  3
ISM
 90
0
 91
0
280
0
281
0
  0
CLASS
  1
IMAGEDEF_REACTOR
  2
AcDbRasterImageDefReactor
  3
ISM
 90
1
 91
0
280
0
281
0
  0
CLASS
  1
LAYOUT
  2
AcDbLayout
  3
ObjectDBX Classes
 90
0
 91
0
280
0
281
0
  0
CLASS
  1
ACDBPLACEHOLDER
  2
AcDbPlaceHolder
  3
ObjectDBX Classes
 90
0
 91
0
280
0
281
0
  0
ENDSEC
  0
SECTION
  2
TABLES
  0
TABLE
  2
VPORT
  5
8
330
0
100
AcDbSymbolTable
 70
1
  0
VPORT
  5
23
330
8
100
AcDbSymbolTableRecord
100
AcDbViewportTableRecord
  2
*Active
 70
0
 10
0.0
 20
0.0
 11
1.0
 21
1.0
 12
0.0
 22
0.0
 13
0.0
 23
0.0
 14
0.5
 24
0.5
 15
0.5
 25
0.5
 16
0.0
 26
0.0
 36
1.0
 17
0.0
 27
0.0
 37
0.0
 40
1000.0
 41
1.34
 42
50.0
 43
0.0
 44
0.0
 50
0.0
 51
0.0
 71
0
 72
1000
 73
1
 74
3
 75
0
 76
0
 77
0
 78
0
281
0
 65
0
146
0.0
  0
ENDTAB
  0
TABLE
  2
LTYPE
  5
2
330
0
100
AcDbSymbolTable
 70
3
  0
LTYPE
  5
24
330
2
100
AcDbSymbolTableRecord
100
AcDbLinetypeTableRecord
  2
ByBlock
 70
0
  3

 72
65
 73
0
 40
0.0
  0
LTYPE
  5
25
330
2
100
AcDbSymbolTableRecord
100
AcDbLinetypeTableRecord
  2
ByLayer
 70
0
  3

 72
65
 73
0
 40
0.0
  0
LTYPE
  5
26
330
2
100
AcDbSymbolTableRecord
100
AcDbLinetypeTableRecord
  2
Continuous
 70
0
  3

 72
65
 73
0
 40
0.0
  0
ENDTAB
  0
TABLE
  2
LAYER
  5
1
330
0
100
AcDbSymbolTable
 70
6
  0
LAYER
  5
27
330
1
100
AcDbSymbolTableRecord
100
AcDbLayerTableRecord
  2
0
 70
0
 62
7
  6
Continuous
370
-3
390
13
347
21
  0
LAYER
  5
28
330
1
100
AcDbSymbolTableRecord
100
AcDbLayerTableRecord
  2
Defpoints
 70
0
 62
7
  6
Continuous
290
0
370
-3
390
13
347
21
  0
LAYER
  5
2F
330
1
100
AcDbSymbolTableRecord
100
AcDbLayerTableRecord
  2
ELEV-EXT
 70
0
 62
7
  6
Continuous
370
-3
390
13
347
21
  0
LAYER
  5
30
330
1
100
AcDbSymbolTableRecord
100
AcDbLayerTableRecord
  2
ANNOT
 70
0
 62
1
  6
Continuous
370
-3
390
13
347
21
  0
LAYER
  5
31
330
1
100
AcDbSymbolTableRecord
100
AcDbLayerTableRecord
  2
Z-SCALE
 70
0
 62
5
  6
Continuous
370
-3
390
13
347
21
  0
LAYER
  5
32
330
1
100
AcDbSymbolTableRecord
100
AcDbLayerTableRecord
  2
NOTES
 70
0
 62
2
  6
Continuous
370
-3
390
13
347
21
  0
ENDTAB
  0
TABLE
  2
STYLE
  5
5
330
0
100
AcDbSymbolTable
 70
1
  0
STYLE
  5
29
330
5
100
AcDbSymbolTableRecord
100
AcDbTextStyleTableRecord
  2
Standard
 70
0
 40
0.0
 41
1.0
 50
0.0
 71
0
 42
2.5
  3
txt
  4

  0
ENDTAB
  0
TABLE
  2
VIEW
  5
7
330
0
100
AcDbSymbolTable
 70
0
  0
ENDTAB
  0
TABLE
  2
UCS
  5
6
330
0
100
AcDbSymbolTable
 70
0
  0
ENDTAB
  0
TABLE
  2
APPID
  5
3
330
0
100
AcDbSymbolTable
 70
3
  0
APPID
  5
2A
330
3
100
AcDbSymbolTableRecord
100
AcDbRegAppTableRecord
  2
ACAD
 70
0
  0
APPID
  5
89
330
3
100
AcDbSymbolTableRecord
100
AcDbRegAppTableRecord
  2
HATCHBACKGROUNDCOLOR
 70
0
  0
APPID
  5
8A
330
3
100
AcDbSymbolTableRecord
100
AcDbRegAppTableRecord
  2
EZDXF
 70
0
  0
ENDTAB
  0
TABLE
  2
DIMSTYLE
  5
4
330
0
100
AcDbSymbolTable
 70
1
100
AcDbDimStyleTable
  0
DIMSTYLE
105
2B
330
4
100
AcDbSymbolTableRecord
100
AcDbDimStyleTableRecord
  2
Standard
 70
0
 40
1.0
 41
2.5
 42
0.625
 43
3.75
 44
1.25
 45
0.0
 46
0.0
 47
0.0
 48
0.0
 49
2.5
140
2.5
141
2.5
142
0.0
143
0.03937007874
144
1.0
145
0.0
146
1.0
147
0.625
148
0.0
 69
0
 70
0
 71
0
 72
0
 73
0
 74
0
 75
0
 76
0
 77
1
 78
8
 79
3
170
0
171
3
172
1
173
0
174
0
175
0
176
0
177
0
178
0
179
2
271
2
272
2
273
2
274
3
275
0
276
0
277
2
278
44
279
0
280
0
281
0
282
0
283
0
284
8
285
0
286
0
288
0
289
3
290
0
371
-2
372
-2
  0
ENDTAB
  0
TABLE
  2
BLOCK_RECORD
  5
9
330
0
100
AcDbSymbolTable
 70
2
  0
BLOCK_RECORD
  5
17
330
9
100
AcDbSymbolTableRecord
100
AcDbBlockTableRecord
  2
*Model_Space
340
1A
 70
0
280
1
281
0
  0
BLOCK_RECORD
  5
1B
330
9
100
AcDbSymbolTableRecord
100
AcDbBlockTableRecord
  2
*Paper_Space
340
1E
 70
0
280
1
281
0
  0
ENDTAB
  0
ENDSEC
  0
SECTION
  2
BLOCKS
  0
BLOCK
  5
18
330
17
100
AcDbEntity
  8
0
100
AcDbBlockBegin
  2
*Model_Space
 70
0
 10
0.0
 20
0.0
 30
0.0
  3
*Model_Space
  1

  0
ENDBLK
  5
19
330
17
100
AcDbEntity
  8
0
100
AcDbBlockEnd
  0
BLOCK
  5
1C
330
1B
100
AcDbEntity
  8
0
100
AcDbBlockBegin
  2
*Paper_Space
 70
0
 10
0.0
 20
0.0
 30
0.0
  3
*Paper_Space
  1

  0
ENDBLK
  5
1D
330
1B
100
AcDbEntity
  8
0
100
AcDbBlockEnd
  0
ENDSEC
  0
SECTION
  2
ENTITIES
  0
IMAGE
  5
36
330
17
100
AcDbEntity
  8
ELEV-EXT
100
AcDbRasterImage
 90
0
 10
0.0
 20
-1.5
 30
0.0
 11
0.015
 21
0.0
 31
0.0
 12
9.177553531638399e-19
 22
0.014988082340195016
 32
0.0
 13
2970.0
 23
923.0
340
35
 70
3
280
0
281
50
282
50
283
0
360
37
 71
1
 91
2
 14
-0.5
 24
-0.5
 14
2969.5
 24
922.5
290
0
  0
TEXT
  5
38
330
17
100
AcDbEntity
  8
ANNOT
100
AcDbText
 10
0.0
 20
12.834
 30
0.0
 40
0.45
  1
Aile Ouest — façade ouest
 11
0.0
 21
12.834
 31
0.0
100
AcDbText
  0
TEXT
  5
39
330
17
100
AcDbEntity
  8
ANNOT
100
AcDbText
 10
0.0
 20
-2.3
 30
0.0
 40
0.3
  1
44.5 m
 11
0.0
 21
-2.3
 31
0.0
100
AcDbText
  0
LWPOLYLINE
  5
3A
330
17
100
AcDbEntity
  8
ANNOT
100
AcDbPolyline
 90
2
 70
0
 10
0.0
 20
0.0
 10
44.55
 20
0.0
  0
IMAGE
  5
3C
330
17
100
AcDbEntity
  8
ELEV-EXT
100
AcDbRasterImage
 90
0
 10
47.55
 20
-1.5
 30
0.0
 11
0.015000000000000001
 21
0.0
 31
0.0
 12
9.175324038307679e-19
 22
0.014984441301272983
 32
0.0
 13
935.0
 23
707.0
340
3B
 70
3
280
0
281
50
282
50
283
0
360
3D
 71
1
 91
2
 14
-0.5
 24
-0.5
 14
934.5
 24
706.5
290
0
  0
TEXT
  5
3E
330
17
100
AcDbEntity
  8
ANNOT
100
AcDbText
 10
47.55
 20
9.594
 30
0.0
 40
0.45
  1
Aile Ouest — façade sud
 11
47.55
 21
9.594
 31
0.0
100
AcDbText
  0
TEXT
  5
3F
330
17
100
AcDbEntity
  8
ANNOT
100
AcDbText
 10
47.55
 20
-2.3
 30
0.0
 40
0.3
  1
14.0 m
 11
47.55
 21
-2.3
 31
0.0
100
AcDbText
  0
LWPOLYLINE
  5
40
330
17
100
AcDbEntity
  8
ANNOT
100
AcDbPolyline
 90
2
 70
0
 10
47.55
 20
0.0
 10
61.574999999999996
 20
0.0
  0
IMAGE
  5
42
330
17
100
AcDbEntity
  8
ELEV-EXT
100
AcDbRasterImage
 90
0
 10
64.57499999999999
 20
-1.5
 30
0.0
 11
0.015
 21
0.0
 31
0.0
 12
9.178788385688579e-19
 22
0.014990099009900991
 32
0.0
 13
1349.0
 23
707.0
340
41
 70
3
280
0
281
50
282
50
283
0
360
43
 71
1
 91
2
 14
-0.5
 24
-0.5
 14
1348.5
 24
706.5
290
0
  0
TEXT
  5
44
330
17
100
AcDbEntity
  8
ANNOT
100
AcDbText
 10
64.57499999999999
 20
9.598
 30
0.0
 40
0.45
  1
Aile Ouest — façade nord
 11
64.57499999999999
 21
9.598
 31
0.0
100
AcDbText
  0
TEXT
  5
45
330
17
100
AcDbEntity
  8
ANNOT
100
AcDbText
 10
64.57499999999999
 20
-2.3
 30
0.0
 40
0.3
  1
20.2 m
 11
64.57499999999999
 21
-2.3
 31
0.0
100
AcDbText
  0
LWPOLYLINE
  5
46
330
17
100
AcDbEntity
  8
ANNOT
100
AcDbPolyline
 90
2
 70
0
 10
64.57499999999999
 20
0.0
 10
84.80999999999999
 20
0.0
  0
IMAGE
  5
48
330
17
100
AcDbEntity
  8
ELEV-EXT
100
AcDbRasterImage
 90
0
 10
87.80999999999999
 20
-1.5
 30
0.0
 11
0.015000000000000001
 21
0.0
 31
0.0
 12
9.18160259360741e-19
 22
0.0149946949602122
 32
0.0
 13
2439.0
 23
754.0
340
47
 70
3
280
0
281
50
282
50
283
0
360
49
 71
1
 91
2
 14
-0.5
 24
-0.5
 14
2438.5
 24
753.5
290
0
  0
TEXT
  5
4A
330
17
100
AcDbEntity
  8
ANNOT
100
AcDbText
 10
87.80999999999999
 20
10.306
 30
0.0
 40
0.45
  1
Aile Sud-Est — façade sud
 11
87.80999999999999
 21
10.306
 31
0.0
100
AcDbText
  0
TEXT
  5
4B
330
17
100
AcDbEntity
  8
ANNOT
100
AcDbText
 10
87.80999999999999
 20
-2.3
 30
0.0
 40
0.3
  1
36.6 m
 11
87.80999999999999
 21
-2.3
 31
0.0
100
AcDbText
  0
LWPOLYLINE
  5
4C
330
17
100
AcDbEntity
  8
ANNOT
100
AcDbPolyline
 90
2
 70
0
 10
87.80999999999999
 20
0.0
 10
124.39499999999998
 20
0.0
  0
IMAGE
  5
4E
330
17
100
AcDbEntity
  8
ELEV-EXT
100
AcDbRasterImage
 90
0
 10
127.39499999999998
 20
-1.5
 30
0.0
 11
0.015000000000000001
 21
0.0
 31
0.0
 12
9.181718904604773e-19
 22
0.014994884910485933
 32
0.0
 13
1978.0
 23
1173.0
340
4D
 70
3
280
0
281
50
282
50
283
0
360
4F
 71
1
 91
2
 14
-0.5
 24
-0.5
 14
1977.5
 24
1172.5
290
0
  0
TEXT
  5
50
330
17
100
AcDbEntity
  8
ANNOT
100
AcDbText
 10
127.39499999999998
 20
16.589
 30
0.0
 40
0.45
  1
Aile Sud-Est — façade est
 11
127.39499999999998
 21
16.589
 31
0.0
100
AcDbText
  0
TEXT
  5
51
330
17
100
AcDbEntity
  8
ANNOT
100
AcDbText
 10
127.39499999999998
 20
-2.3
 30
0.0
 40
0.3
  1
29.7 m
 11
127.39499999999998
 21
-2.3
 31
0.0
100
AcDbText
  0
LWPOLYLINE
  5
52
330
17
100
AcDbEntity
  8
ANNOT
100
AcDbPolyline
 90
2
 70
0
 10
127.39499999999998
 20
0.0
 10
157.065
 20
0.0
  0
IMAGE
  5
54
330
17
100
AcDbEntity
  8
ELEV-EXT
100
AcDbRasterImage
 90
0
 10
160.065
 20
-1.5
 30
0.0
 11
0.015000000000000001
 21
0.0
 31
0.0
 12
9.184850993605148e-19
 22
0.015
 32
0.0
 13
704.0
 23
737.0
340
53
 70
3
280
0
281
50
282
50
283
0
360
55
 71
1
 91
2
 14
-0.5
 24
-0.5
 14
703.5
 24
736.5
290
0
  0
TEXT
  5
56
330
17
100
AcDbEntity
  8
ANNOT
100
AcDbText
 10
160.065
 20
10.055
 30
0.0
 40
0.45
  1
Atelier — façade est
 11
160.065
 21
10.055
 31
0.0
100
AcDbText
  0
TEXT
  5
57
330
17
100
AcDbEntity
  8
ANNOT
100
AcDbText
 10
160.065
 20
-2.3
 30
0.0
 40
0.3
  1
10.6 m
 11
160.065
 21
-2.3
 31
0.0
100
AcDbText
  0
LWPOLYLINE
  5
58
330
17
100
AcDbEntity
  8
ANNOT
100
AcDbPolyline
 90
2
 70
0
 10
160.065
 20
0.0
 10
170.625
 20
0.0
  0
IMAGE
  5
5A
330
17
100
AcDbEntity
  8
ELEV-EXT
100
AcDbRasterImage
 90
0
 10
173.625
 20
-1.5
 30
0.0
 11
0.015000000000000001
 21
0.0
 31
0.0
 12
9.183651535427728e-19
 22
0.01499804113614104
 32
0.0
 13
923.0
 23
1021.0
340
59
 70
3
280
0
281
50
282
50
283
0
360
5B
 71
1
 91
2
 14
-0.5
 24
-0.5
 14
922.5
 24
1020.5
290
0
  0
TEXT
  5
5C
330
17
100
AcDbEntity
  8
ANNOT
100
AcDbText
 10
173.625
 20
14.313
 30
0.0
 40
0.45
  1
Chapelle — façade est
 11
173.625
 21
14.313
 31
0.0
100
AcDbText
  0
TEXT
  5
5D
330
17
100
AcDbEntity
  8
ANNOT
100
AcDbText
 10
173.625
 20
-2.3
 30
0.0
 40
0.3
  1
13.8 m
 11
173.625
 21
-2.3
 31
0.0
100
AcDbText
  0
LWPOLYLINE
  5
5E
330
17
100
AcDbEntity
  8
ANNOT
100
AcDbPolyline
 90
2
 70
0
 10
173.625
 20
0.0
 10
187.47
 20
0.0
  0
LINE
  5
5F
330
17
100
AcDbEntity
  8
Z-SCALE
100
AcDbLine
 10
-3.0
 20
-1.5
 30
0.0
 11
-3.0
 21
16.089
 31
0.0
  0
LINE
  5
60
330
17
100
AcDbEntity
  8
Z-SCALE
100
AcDbLine
 10
-3.3
 20
-2.0
 30
0.0
 11
-3.0
 21
-2.0
 31
0.0
  0
TEXT
  5
61
330
17
100
AcDbEntity
  8
Z-SCALE
100
AcDbText
 10
-4.7
 20
-2.15
 30
0.0
 40
0.3
  1
-2
 11
-4.7
 21
-2.15
 31
0.0
100
AcDbText
  0
LINE
  5
62
330
17
100
AcDbEntity
  8
Z-SCALE
100
AcDbLine
 10
-3.3
 20
-1.0
 30
0.0
 11
-3.0
 21
-1.0
 31
0.0
  0
TEXT
  5
63
330
17
100
AcDbEntity
  8
Z-SCALE
100
AcDbText
 10
-4.7
 20
-1.15
 30
0.0
 40
0.3
  1
-1
 11
-4.7
 21
-1.15
 31
0.0
100
AcDbText
  0
LINE
  5
64
330
17
100
AcDbEntity
  8
Z-SCALE
100
AcDbLine
 10
-3.3
 20
0.0
 30
0.0
 11
-3.0
 21
0.0
 31
0.0
  0
TEXT
  5
65
330
17
100
AcDbEntity
  8
Z-SCALE
100
AcDbText
 10
-4.7
 20
-0.15
 30
0.0
 40
0.3
  1
+0
 11
-4.7
 21
-0.15
 31
0.0
100
AcDbText
  0
LINE
  5
66
330
17
100
AcDbEntity
  8
Z-SCALE
100
AcDbLine
 10
-3.3
 20
1.0
 30
0.0
 11
-3.0
 21
1.0
 31
0.0
  0
TEXT
  5
67
330
17
100
AcDbEntity
  8
Z-SCALE
100
AcDbText
 10
-4.7
 20
0.85
 30
0.0
 40
0.3
  1
+1
 11
-4.7
 21
0.85
 31
0.0
100
AcDbText
  0
LINE
  5
68
330
17
100
AcDbEntity
  8
Z-SCALE
100
AcDbLine
 10
-3.3
 20
2.0
 30
0.0
 11
-3.0
 21
2.0
 31
0.0
  0
TEXT
  5
69
330
17
100
AcDbEntity
  8
Z-SCALE
100
AcDbText
 10
-4.7
 20
1.85
 30
0.0
 40
0.3
  1
+2
 11
-4.7
 21
1.85
 31
0.0
100
AcDbText
  0
LINE
  5
6A
330
17
100
AcDbEntity
  8
Z-SCALE
100
AcDbLine
 10
-3.3
 20
3.0
 30
0.0
 11
-3.0
 21
3.0
 31
0.0
  0
TEXT
  5
6B
330
17
100
AcDbEntity
  8
Z-SCALE
100
AcDbText
 10
-4.7
 20
2.85
 30
0.0
 40
0.3
  1
+3
 11
-4.7
 21
2.85
 31
0.0
100
AcDbText
  0
LINE
  5
6C
330
17
100
AcDbEntity
  8
Z-SCALE
100
AcDbLine
 10
-3.3
 20
4.0
 30
0.0
 11
-3.0
 21
4.0
 31
0.0
  0
TEXT
  5
6D
330
17
100
AcDbEntity
  8
Z-SCALE
100
AcDbText
 10
-4.7
 20
3.85
 30
0.0
 40
0.3
  1
+4
 11
-4.7
 21
3.85
 31
0.0
100
AcDbText
  0
LINE
  5
6E
330
17
100
AcDbEntity
  8
Z-SCALE
100
AcDbLine
 10
-3.3
 20
5.0
 30
0.0
 11
-3.0
 21
5.0
 31
0.0
  0
TEXT
  5
6F
330
17
100
AcDbEntity
  8
Z-SCALE
100
AcDbText
 10
-4.7
 20
4.85
 30
0.0
 40
0.3
  1
+5
 11
-4.7
 21
4.85
 31
0.0
100
AcDbText
  0
LINE
  5
70
330
17
100
AcDbEntity
  8
Z-SCALE
100
AcDbLine
 10
-3.3
 20
6.0
 30
0.0
 11
-3.0
 21
6.0
 31
0.0
  0
TEXT
  5
71
330
17
100
AcDbEntity
  8
Z-SCALE
100
AcDbText
 10
-4.7
 20
5.85
 30
0.0
 40
0.3
  1
+6
 11
-4.7
 21
5.85
 31
0.0
100
AcDbText
  0
LINE
  5
72
330
17
100
AcDbEntity
  8
Z-SCALE
100
AcDbLine
 10
-3.3
 20
7.0
 30
0.0
 11
-3.0
 21
7.0
 31
0.0
  0
TEXT
  5
73
330
17
100
AcDbEntity
  8
Z-SCALE
100
AcDbText
 10
-4.7
 20
6.85
 30
0.0
 40
0.3
  1
+7
 11
-4.7
 21
6.85
 31
0.0
100
AcDbText
  0
LINE
  5
74
330
17
100
AcDbEntity
  8
Z-SCALE
100
AcDbLine
 10
-3.3
 20
8.0
 30
0.0
 11
-3.0
 21
8.0
 31
0.0
  0
TEXT
  5
75
330
17
100
AcDbEntity
  8
Z-SCALE
100
AcDbText
 10
-4.7
 20
7.85
 30
0.0
 40
0.3
  1
+8
 11
-4.7
 21
7.85
 31
0.0
100
AcDbText
  0
LINE
  5
76
330
17
100
AcDbEntity
  8
Z-SCALE
100
AcDbLine
 10
-3.3
 20
9.0
 30
0.0
 11
-3.0
 21
9.0
 31
0.0
  0
TEXT
  5
77
330
17
100
AcDbEntity
  8
Z-SCALE
100
AcDbText
 10
-4.7
 20
8.85
 30
0.0
 40
0.3
  1
+9
 11
-4.7
 21
8.85
 31
0.0
100
AcDbText
  0
LINE
  5
78
330
17
100
AcDbEntity
  8
Z-SCALE
100
AcDbLine
 10
-3.3
 20
10.0
 30
0.0
 11
-3.0
 21
10.0
 31
0.0
  0
TEXT
  5
79
330
17
100
AcDbEntity
  8
Z-SCALE
100
AcDbText
 10
-4.7
 20
9.85
 30
0.0
 40
0.3
  1
+10
 11
-4.7
 21
9.85
 31
0.0
100
AcDbText
  0
LINE
  5
7A
330
17
100
AcDbEntity
  8
Z-SCALE
100
AcDbLine
 10
-3.3
 20
11.0
 30
0.0
 11
-3.0
 21
11.0
 31
0.0
  0
TEXT
  5
7B
330
17
100
AcDbEntity
  8
Z-SCALE
100
AcDbText
 10
-4.7
 20
10.85
 30
0.0
 40
0.3
  1
+11
 11
-4.7
 21
10.85
 31
0.0
100
AcDbText
  0
LINE
  5
7C
330
17
100
AcDbEntity
  8
Z-SCALE
100
AcDbLine
 10
-3.3
 20
12.0
 30
0.0
 11
-3.0
 21
12.0
 31
0.0
  0
TEXT
  5
7D
330
17
100
AcDbEntity
  8
Z-SCALE
100
AcDbText
 10
-4.7
 20
11.85
 30
0.0
 40
0.3
  1
+12
 11
-4.7
 21
11.85
 31
0.0
100
AcDbText
  0
LINE
  5
7E
330
17
100
AcDbEntity
  8
Z-SCALE
100
AcDbLine
 10
-3.3
 20
13.0
 30
0.0
 11
-3.0
 21
13.0
 31
0.0
  0
TEXT
  5
7F
330
17
100
AcDbEntity
  8
Z-SCALE
100
AcDbText
 10
-4.7
 20
12.85
 30
0.0
 40
0.3
  1
+13
 11
-4.7
 21
12.85
 31
0.0
100
AcDbText
  0
LINE
  5
80
330
17
100
AcDbEntity
  8
Z-SCALE
100
AcDbLine
 10
-3.3
 20
14.0
 30
0.0
 11
-3.0
 21
14.0
 31
0.0
  0
TEXT
  5
81
330
17
100
AcDbEntity
  8
Z-SCALE
100
AcDbText
 10
-4.7
 20
13.85
 30
0.0
 40
0.3
  1
+14
 11
-4.7
 21
13.85
 31
0.0
100
AcDbText
  0
LINE
  5
82
330
17
100
AcDbEntity
  8
Z-SCALE
100
AcDbLine
 10
-3.3
 20
15.0
 30
0.0
 11
-3.0
 21
15.0
 31
0.0
  0
TEXT
  5
83
330
17
100
AcDbEntity
  8
Z-SCALE
100
AcDbText
 10
-4.7
 20
14.85
 30
0.0
 40
0.3
  1
+15
 11
-4.7
 21
14.85
 31
0.0
100
AcDbText
  0
LINE
  5
84
330
17
100
AcDbEntity
  8
Z-SCALE
100
AcDbLine
 10
-3.3
 20
16.0
 30
0.0
 11
-3.0
 21
16.0
 31
0.0
  0
TEXT
  5
85
330
17
100
AcDbEntity
  8
Z-SCALE
100
AcDbText
 10
-4.7
 20
15.85
 30
0.0
 40
0.3
  1
+16
 11
-4.7
 21
15.85
 31
0.0
100
AcDbText
  0
LINE
  5
86
330
17
100
AcDbEntity
  8
Z-SCALE
100
AcDbLine
 10
-3.3
 20
17.0
 30
0.0
 11
-3.0
 21
17.0
 31
0.0
  0
TEXT
  5
87
330
17
100
AcDbEntity
  8
Z-SCALE
100
AcDbText
 10
-4.7
 20
16.85
 30
0.0
 40
0.3
  1
+17
 11
-4.7
 21
16.85
 31
0.0
100
AcDbText
  0
MTEXT
  5
88
330
17
100
AcDbEntity
  8
NOTES
100
AcDbMText
 10
-3.0
 20
-4.0
 30
0.0
 40
0.5
 71
1
  3
FERME DU TEMPLE — FACADES EXTERIEURES (orthographiques, vues de l'exterieur vers l'interieur). Rendu local du nuage de points NavVis (POTREE2, 63,7 M pts). 1 unite = 1 m, Y = altitude site z. Tranche fine ~2 m a la surface du mur exterieur. SCAN INTE
  1
RIEUR : couverture des faces exterieures PARTIELLE (faces cour/interieur mieux captees). Ruine sans toiture, vegetation. Indicatif, non destine a l'acte. Vegetation non retouchee.
  0
ENDSEC
  0
SECTION
  2
OBJECTS
  0
DICTIONARY
  5
A
330
0
100
AcDbDictionary
281
1
  3
ACAD_COLOR
350
B
  3
ACAD_GROUP
350
C
  3
ACAD_LAYOUT
350
D
  3
ACAD_MATERIAL
350
E
  3
ACAD_MLEADERSTYLE
350
F
  3
ACAD_MLINESTYLE
350
10
  3
ACAD_PLOTSETTINGS
350
11
  3
ACAD_PLOTSTYLENAME
350
12
  3
ACAD_SCALELIST
350
14
  3
ACAD_TABLESTYLE
350
15
  3
ACAD_VISUALSTYLE
350
16
  3
EZDXF_META
350
2D
  3
ACAD_IMAGE_VARS
350
33
  3
ACAD_IMAGE_DICT
350
34
  0
DICTIONARY
  5
B
330
A
100
AcDbDictionary
281
1
  0
DICTIONARY
  5
C
330
A
100
AcDbDictionary
281
1
  0
DICTIONARY
  5
D
330
A
100
AcDbDictionary
281
1
  3
Model
350
1A
  3
Layout1
350
1E
  0
DICTIONARY
  5
E
330
A
100
AcDbDictionary
281
1
  3
ByBlock
350
1F
  3
ByLayer
350
20
  3
Global
350
21
  0
DICTIONARY
  5
F
330
A
100
AcDbDictionary
281
1
  3
Standard
350
2C
  0
DICTIONARY
  5
10
330
A
100
AcDbDictionary
281
1
  3
Standard
350
22
  0
DICTIONARY
  5
11
330
A
100
AcDbDictionary
281
1
  0
ACDBDICTIONARYWDFLT
  5
12
330
A
100
AcDbDictionary
281
1
  3
Normal
350
13
100
AcDbDictionaryWithDefault
340
13
  0
ACDBPLACEHOLDER
  5
13
330
12
  0
DICTIONARY
  5
14
330
A
100
AcDbDictionary
281
1
  0
DICTIONARY
  5
15
330
A
100
AcDbDictionary
281
1
  0
DICTIONARY
  5
16
330
A
100
AcDbDictionary
281
1
  0
LAYOUT
  5
1A
330
D
100
AcDbPlotSettings
  1

  4
A3
  6

 40
7.5
 41
20.0
 42
7.5
 43
20.0
 44
420.0
 45
297.0
 46
0.0
 47
0.0
 48
0.0
 49
0.0
140
0.0
141
0.0
142
1.0
143
1.0
 70
1024
 72
1
 73
0
 74
5
  7

 75
16
 76
0
 77
2
 78
300
147
1.0
148
0.0
149
0.0
100
AcDbLayout
  1
Model
 70
1
 71
0
 10
0.0
 20
0.0
 11
420.0
 21
297.0
 12
0.0
 22
0.0
 32
0.0
 14
1e+20
 24
1e+20
 34
1e+20
 15
-1e+20
 25
-1e+20
 35
-1e+20
146
0.0
 13
0.0
 23
0.0
 33
0.0
 16
1.0
 26
0.0
 36
0.0
 17
0.0
 27
1.0
 37
0.0
 76
1
330
17
  0
LAYOUT
  5
1E
330
D
100
AcDbPlotSettings
  1

  4
A3
  6

 40
7.5
 41
20.0
 42
7.5
 43
20.0
 44
420.0
 45
297.0
 46
0.0
 47
0.0
 48
0.0
 49
0.0
140
0.0
141
0.0
142
1.0
143
1.0
 70
0
 72
1
 73
0
 74
5
  7

 75
16
 76
0
 77
2
 78
300
147
1.0
148
0.0
149
0.0
100
AcDbLayout
  1
Layout1
 70
1
 71
1
 10
0.0
 20
0.0
 11
420.0
 21
297.0
 12
0.0
 22
0.0
 32
0.0
 14
1e+20
 24
1e+20
 34
1e+20
 15
-1e+20
 25
-1e+20
 35
-1e+20
146
0.0
 13
0.0
 23
0.0
 33
0.0
 16
1.0
 26
0.0
 36
0.0
 17
0.0
 27
1.0
 37
0.0
 76
1
330
1B
  0
MATERIAL
  5
1F
102
{ACAD_REACTORS
330
E
102
}
330
E
100
AcDbMaterial
  1
ByBlock
  2

 70
0
 40
1.0
 71
1
 41
1.0
 91
-1023410177
 42
1.0
 72
1
  3

 73
1
 74
1
 75
1
 44
0.5
 73
0
 45
1.0
 46
1.0
 77
1
  4

 78
1
 79
1
170
1
 48
1.0
171
1
  6

172
1
173
1
174
1
140
1.0
141
1.0
175
1
  7

176
1
177
1
178
1
143
1.0
179
1
  8

270
1
271
1
272
1
145
1.0
146
1.0
273
1
  9

274
1
275
1
276
1
 42
1.0
 72
1
  3

 73
1
 74
1
 75
1
 94
63
  0
MATERIAL
  5
20
102
{ACAD_REACTORS
330
E
102
}
330
E
100
AcDbMaterial
  1
ByLayer
  2

 70
0
 40
1.0
 71
1
 41
1.0
 91
-1023410177
 42
1.0
 72
1
  3

 73
1
 74
1
 75
1
 44
0.5
 73
0
 45
1.0
 46
1.0
 77
1
  4

 78
1
 79
1
170
1
 48
1.0
171
1
  6

172
1
173
1
174
1
140
1.0
141
1.0
175
1
  7

176
1
177
1
178
1
143
1.0
179
1
  8

270
1
271
1
272
1
145
1.0
146
1.0
273
1
  9

274
1
275
1
276
1
 42
1.0
 72
1
  3

 73
1
 74
1
 75
1
 94
63
  0
MATERIAL
  5
21
102
{ACAD_REACTORS
330
E
102
}
330
E
100
AcDbMaterial
  1
Global
  2

 70
0
 40
1.0
 71
1
 41
1.0
 91
-1023410177
 42
1.0
 72
1
  3

 73
1
 74
1
 75
1
 44
0.5
 73
0
 45
1.0
 46
1.0
 77
1
  4

 78
1
 79
1
170
1
 48
1.0
171
1
  6

172
1
173
1
174
1
140
1.0
141
1.0
175
1
  7

176
1
177
1
178
1
143
1.0
179
1
  8

270
1
271
1
272
1
145
1.0
146
1.0
273
1
  9

274
1
275
1
276
1
 42
1.0
 72
1
  3

 73
1
 74
1
 75
1
 94
63
  0
MLINESTYLE
  5
22
102
{ACAD_REACTORS
330
10
102
}
330
10
100
AcDbMlineStyle
  2
Standard
 70
0
  3

 62
256
 51
90.0
 52
90.0
 71
2
 49
0.5
 62
256
  6
BYLAYER
 49
-0.5
 62
256
  6
BYLAYER
  0
MLEADERSTYLE
  5
2C
102
{ACAD_REACTORS
330
F
102
}
330
F
100
AcDbMLeaderStyle
179
2
170
2
171
1
172
0
 90
2
 40
0.0
 41
0.0
173
1
 91
-1056964608
 92
-2
290
1
 42
2.0
291
1
 43
8.0
  3
Standard
 44
4.0
300

342
29
174
1
175
1
176
0
178
1
 93
-1056964608
 45
4.0
292
0
297
0
 46
4.0
 94
-1056964608
 47
1.0
 49
1.0
140
1.0
294
1
141
0.0
177
0
142
1.0
295
0
296
0
143
3.75
271
0
272
9
273
9
  0
DICTIONARY
  5
2D
330
A
100
AcDbDictionary
280
1
281
1
  3
CREATED_BY_EZDXF
350
2E
  3
WRITTEN_BY_EZDXF
350
8B
  0
DICTIONARYVAR
  5
2E
330
2D
100
DictionaryVariables
280
0
  1
1.4.4 @ 2026-06-12T21:26:26.106737+00:00
  0
RASTERVARIABLES
  5
33
102
{ACAD_REACTORS
330
A
102
}
330
A
100
AcDbRasterVariables
 90
0
 70
0
 71
1
 72
3
  0
DICTIONARY
  5
34
330
A
100
AcDbDictionary
281
1
  3
underlay/belev_ext_AileOuest_W2.png
350
35
  3
underlay/belev_ext_AileOuest_S2.png
350
3B
  3
underlay/belev_ext_AileOuest_N2.png
350
41
  3
underlay/belev_ext_AileSud-Est_S.png
350
47
  3
underlay/belev_ext_AileSud-Est_E.png
350
4D
  3
underlay/belev_ext_Atelier_E2.png
350
53
  3
underlay/belev_ext_Chapelle_E.png
350
59
  0
IMAGEDEF
  5
35
102
{ACAD_REACTORS
330
34
330
37
102
}
330
34
100
AcDbRasterImageDef
 90
0
  1
underlay/belev_ext_AileOuest_W2.png
 10
2970.0
 20
923.0
 11
0.01
 21
0.01
280
1
281
0
  0
IMAGEDEF_REACTOR
  5
37
330
36
100
AcDbRasterImageDefReactor
 90
2
330
36
  0
IMAGEDEF
  5
3B
102
{ACAD_REACTORS
330
34
330
3D
102
}
330
34
100
AcDbRasterImageDef
 90
0
  1
underlay/belev_ext_AileOuest_S2.png
 10
935.0
 20
707.0
 11
0.01
 21
0.01
280
1
281
0
  0
IMAGEDEF_REACTOR
  5
3D
330
3C
100
AcDbRasterImageDefReactor
 90
2
330
3C
  0
IMAGEDEF
  5
41
102
{ACAD_REACTORS
330
34
330
43
102
}
330
34
100
AcDbRasterImageDef
 90
0
  1
underlay/belev_ext_AileOuest_N2.png
 10
1349.0
 20
707.0
 11
0.01
 21
0.01
280
1
281
0
  0
IMAGEDEF_REACTOR
  5
43
330
42
100
AcDbRasterImageDefReactor
 90
2
330
42
  0
IMAGEDEF
  5
47
102
{ACAD_REACTORS
330
34
330
49
102
}
330
34
100
AcDbRasterImageDef
 90
0
  1
underlay/belev_ext_AileSud-Est_S.png
 10
2439.0
 20
754.0
 11
0.01
 21
0.01
280
1
281
0
  0
IMAGEDEF_REACTOR
  5
49
330
48
100
AcDbRasterImageDefReactor
 90
2
330
48
  0
IMAGEDEF
  5
4D
102
{ACAD_REACTORS
330
34
330
4F
102
}
330
34
100
AcDbRasterImageDef
 90
0
  1
underlay/belev_ext_AileSud-Est_E.png
 10
1978.0
 20
1173.0
 11
0.01
 21
0.01
280
1
281
0
  0
IMAGEDEF_REACTOR
  5
4F
330
4E
100
AcDbRasterImageDefReactor
 90
2
330
4E
  0
IMAGEDEF
  5
53
102
{ACAD_REACTORS
330
34
330
55
102
}
330
34
100
AcDbRasterImageDef
 90
0
  1
underlay/belev_ext_Atelier_E2.png
 10
704.0
 20
737.0
 11
0.01
 21
0.01
280
1
281
0
  0
IMAGEDEF_REACTOR
  5
55
330
54
100
AcDbRasterImageDefReactor
 90
2
330
54
  0
IMAGEDEF
  5
59
102
{ACAD_REACTORS
330
34
330
5B
102
}
330
34
100
AcDbRasterImageDef
 90
0
  1
underlay/belev_ext_Chapelle_E.png
 10
923.0
 20
1021.0
 11
0.01
 21
0.01
280
1
281
0
  0
IMAGEDEF_REACTOR
  5
5B
330
5A
100
AcDbRasterImageDefReactor
 90
2
330
5A
  0
DICTIONARYVAR
  5
8B
330
2D
100
DictionaryVariables
280
0
  1
1.4.4 @ 2026-06-12T21:26:26.108662+00:00
  0
ENDSEC
  0
EOF
