  0
SECTION
  2
HEADER
  9
$ACADVER
  1
AC1032
  9
$ACADMAINTVER
 90
4
  9
$DWGCODEPAGE
  3
ANSI_1252
  9
$LASTSAVEDBY
  1
ezdxf
  9
$REQUIREDVERSIONS
160
0
  9
$INSBASE
 10
0.0
 20
0.0
 30
0.0
  9
$EXTMIN
 10
1e+20
 20
1e+20
 30
1e+20
  9
$EXTMAX
 10
-1e+20
 20
-1e+20
 30
-1e+20
  9
$LIMMIN
 10
0.0
 20
0.0
  9
$LIMMAX
 10
420.0
 20
297.0
  9
$ORTHOMODE
 70
0
  9
$REGENMODE
 70
1
  9
$FILLMODE
 70
1
  9
$QTEXTMODE
 70
0
  9
$MIRRTEXT
 70
1
  9
$LTSCALE
 40
1.0
  9
$ATTMODE
 70
1
  9
$TEXTSIZE
 40
2.5
  9
$TRACEWID
 40
1.0
  9
$TEXTSTYLE
  7
Standard
  9
$CLAYER
  8
0
  9
$CELTYPE
  6
ByLayer
  9
$CECOLOR
 62
256
  9
$CELTSCALE
 40
1.0
  9
$DISPSILH
 70
0
  9
$DIMSCALE
 40
1.0
  9
$DIMASZ
 40
2.5
  9
$DIMEXO
 40
0.625
  9
$DIMDLI
 40
3.75
  9
$DIMRND
 40
0.0
  9
$DIMDLE
 40
0.0
  9
$DIMEXE
 40
1.25
  9
$DIMTP
 40
0.0
  9
$DIMTM
 40
0.0
  9
$DIMTXT
 40
2.5
  9
$DIMCEN
 40
2.5
  9
$DIMTSZ
 40
0.0
  9
$DIMTOL
 70
0
  9
$DIMLIM
 70
0
  9
$DIMTIH
 70
0
  9
$DIMTOH
 70
0
  9
$DIMSE1
 70
0
  9
$DIMSE2
 70
0
  9
$DIMTAD
 70
1
  9
$DIMZIN
 70
8
  9
$DIMBLK
  1

  9
$DIMASO
 70
1
  9
$DIMSHO
 70
1
  9
$DIMPOST
  1

  9
$DIMAPOST
  1

  9
$DIMALT
 70
0
  9
$DIMALTD
 70
3
  9
$DIMALTF
 40
0.03937007874
  9
$DIMLFAC
 40
1.0
  9
$DIMTOFL
 70
1
  9
$DIMTVP
 40
0.0
  9
$DIMTIX
 70
0
  9
$DIMSOXD
 70
0
  9
$DIMSAH
 70
0
  9
$DIMBLK1
  1

  9
$DIMBLK2
  1

  9
$DIMSTYLE
  2
ISO-25
  9
$DIMCLRD
 70
0
  9
$DIMCLRE
 70
0
  9
$DIMCLRT
 70
0
  9
$DIMTFAC
 40
1.0
  9
$DIMGAP
 40
0.625
  9
$DIMJUST
 70
0
  9
$DIMSD1
 70
0
  9
$DIMSD2
 70
0
  9
$DIMTOLJ
 70
0
  9
$DIMTZIN
 70
8
  9
$DIMALTZ
 70
0
  9
$DIMALTTZ
 70
0
  9
$DIMUPT
 70
0
  9
$DIMDEC
 70
2
  9
$DIMTDEC
 70
2
  9
$DIMALTU
 70
2
  9
$DIMALTTD
 70
3
  9
$DIMTXSTY
  7
Standard
  9
$DIMAUNIT
 70
0
  9
$DIMADEC
 70
0
  9
$DIMALTRND
 40
0.0
  9
$DIMAZIN
 70
0
  9
$DIMDSEP
 70
44
  9
$DIMATFIT
 70
3
  9
$DIMFRAC
 70
0
  9
$DIMLDRBLK
  1

  9
$DIMLUNIT
 70
2
  9
$DIMLWD
 70
-2
  9
$DIMLWE
 70
-2
  9
$DIMTMOVE
 70
0
  9
$DIMFXL
 40
1.0
  9
$DIMFXLON
 70
0
  9
$DIMJOGANG
 40
0.785398163397
  9
$DIMTFILL
 70
0
  9
$DIMTFILLCLR
 70
0
  9
$DIMARCSYM
 70
0
  9
$DIMLTYPE
  6

  9
$DIMLTEX1
  6

  9
$DIMLTEX2
  6

  9
$DIMTXTDIRECTION
 70
0
  9
$LUNITS
 70
2
  9
$LUPREC
 70
4
  9
$SKETCHINC
 40
1.0
  9
$FILLETRAD
 40
10.0
  9
$AUNITS
 70
0
  9
$AUPREC
 70
2
  9
$MENU
  1
.
  9
$ELEVATION
 40
0.0
  9
$PELEVATION
 40
0.0
  9
$THICKNESS
 40
0.0
  9
$LIMCHECK
 70
0
  9
$CHAMFERA
 40
0.0
  9
$CHAMFERB
 40
0.0
  9
$CHAMFERC
 40
0.0
  9
$CHAMFERD
 40
0.0
  9
$SKPOLY
 70
0
  9
$TDCREATE
 40
2461201.0957175926
  9
$TDUCREATE
 40
2458532.153996898
  9
$TDUPDATE
 40
2461201.0957175926
  9
$TDUUPDATE
 40
2458532.1544311
  9
$TDINDWG
 40
0.0
  9
$TDUSRTIMER
 40
0.0
  9
$USRTIMER
 70
1
  9
$ANGBASE
 50
0.0
  9
$ANGDIR
 70
0
  9
$PDMODE
 70
0
  9
$PDSIZE
 40
0.0
  9
$PLINEWID
 40
0.0
  9
$SPLFRAME
 70
0
  9
$SPLINETYPE
 70
6
  9
$SPLINESEGS
 70
8
  9
$HANDSEED
  5
BA
  9
$SURFTAB1
 70
6
  9
$SURFTAB2
 70
6
  9
$SURFTYPE
 70
6
  9
$SURFU
 70
6
  9
$SURFV
 70
6
  9
$UCSBASE
  2

  9
$UCSNAME
  2

  9
$UCSORG
 10
0.0
 20
0.0
 30
0.0
  9
$UCSXDIR
 10
1.0
 20
0.0
 30
0.0
  9
$UCSYDIR
 10
0.0
 20
1.0
 30
0.0
  9
$UCSORTHOREF
  2

  9
$UCSORTHOVIEW
 70
0
  9
$UCSORGTOP
 10
0.0
 20
0.0
 30
0.0
  9
$UCSORGBOTTOM
 10
0.0
 20
0.0
 30
0.0
  9
$UCSORGLEFT
 10
0.0
 20
0.0
 30
0.0
  9
$UCSORGRIGHT
 10
0.0
 20
0.0
 30
0.0
  9
$UCSORGFRONT
 10
0.0
 20
0.0
 30
0.0
  9
$UCSORGBACK
 10
0.0
 20
0.0
 30
0.0
  9
$PUCSBASE
  2

  9
$PUCSNAME
  2

  9
$PUCSORG
 10
0.0
 20
0.0
 30
0.0
  9
$PUCSXDIR
 10
1.0
 20
0.0
 30
0.0
  9
$PUCSYDIR
 10
0.0
 20
1.0
 30
0.0
  9
$PUCSORTHOREF
  2

  9
$PUCSORTHOVIEW
 70
0
  9
$PUCSORGTOP
 10
0.0
 20
0.0
 30
0.0
  9
$PUCSORGBOTTOM
 10
0.0
 20
0.0
 30
0.0
  9
$PUCSORGLEFT
 10
0.0
 20
0.0
 30
0.0
  9
$PUCSORGRIGHT
 10
0.0
 20
0.0
 30
0.0
  9
$PUCSORGFRONT
 10
0.0
 20
0.0
 30
0.0
  9
$PUCSORGBACK
 10
0.0
 20
0.0
 30
0.0
  9
$USERI1
 70
0
  9
$USERI2
 70
0
  9
$USERI3
 70
0
  9
$USERI4
 70
0
  9
$USERI5
 70
0
  9
$USERR1
 40
0.0
  9
$USERR2
 40
0.0
  9
$USERR3
 40
0.0
  9
$USERR4
 40
0.0
  9
$USERR5
 40
0.0
  9
$WORLDVIEW
 70
1
  9
$SHADEDGE
 70
3
  9
$SHADEDIF
 70
70
  9
$TILEMODE
 70
1
  9
$MAXACTVP
 70
64
  9
$PINSBASE
 10
0.0
 20
0.0
 30
0.0
  9
$PLIMCHECK
 70
0
  9
$PEXTMIN
 10
1e+20
 20
1e+20
 30
1e+20
  9
$PEXTMAX
 10
-1e+20
 20
-1e+20
 30
-1e+20
  9
$PLIMMIN
 10
0.0
 20
0.0
  9
$PLIMMAX
 10
420.0
 20
297.0
  9
$UNITMODE
 70
0
  9
$VISRETAIN
 70
1
  9
$PLINEGEN
 70
0
  9
$PSLTSCALE
 70
1
  9
$TREEDEPTH
 70
3020
  9
$CMLSTYLE
  2
Standard
  9
$CMLJUST
 70
0
  9
$CMLSCALE
 40
20.0
  9
$PROXYGRAPHICS
 70
1
  9
$MEASUREMENT
 70
1
  9
$CELWEIGHT
370
-1
  9
$ENDCAPS
280
0
  9
$JOINSTYLE
280
0
  9
$LWDISPLAY
290
0
  9
$INSUNITS
 70
6
  9
$HYPERLINKBASE
  1

  9
$STYLESHEET
  1

  9
$XEDIT
290
1
  9
$CEPSNTYPE
380
0
  9
$PSTYLEMODE
290
1
  9
$FINGERPRINTGUID
  2
{6D2E88E7-4070-4227-ABF9-D036214882A9}
  9
$VERSIONGUID
  2
{2C0AE632-2035-4291-9E11-A1C03DE461A1}
  9
$EXTNAMES
290
1
  9
$PSVPSCALE
 40
0.0
  9
$OLESTARTUP
290
0
  9
$SORTENTS
280
127
  9
$INDEXCTL
280
0
  9
$HIDETEXT
280
1
  9
$XCLIPFRAME
280
1
  9
$HALOGAP
280
0
  9
$OBSCOLOR
 70
257
  9
$OBSLTYPE
280
0
  9
$INTERSECTIONDISPLAY
280
0
  9
$INTERSECTIONCOLOR
 70
257
  9
$DIMASSOC
280
2
  9
$PROJECTNAME
  1

  9
$CAMERADISPLAY
290
0
  9
$LENSLENGTH
 40
50.0
  9
$CAMERAHEIGHT
 40
0.0
  9
$STEPSPERSEC
 40
24.0
  9
$STEPSIZE
 40
100.0
  9
$3DDWFPREC
 40
2.0
  9
$PSOLWIDTH
 40
0.005
  9
$PSOLHEIGHT
 40
0.08
  9
$LOFTANG1
 40
1.570796326795
  9
$LOFTANG2
 40
1.570796326795
  9
$LOFTMAG1
 40
0.0
  9
$LOFTMAG2
 40
0.0
  9
$LOFTPARAM
 70
7
  9
$LOFTNORMALS
280
1
  9
$LATITUDE
 40
37.795
  9
$LONGITUDE
 40
-122.394
  9
$NORTHDIRECTION
 40
0.0
  9
$TIMEZONE
 70
-8000
  9
$LIGHTGLYPHDISPLAY
280
1
  9
$TILEMODELIGHTSYNCH
280
1
  9
$CMATERIAL
347
20
  9
$SOLIDHIST
280
0
  9
$SHOWHIST
280
1
  9
$DWFFRAME
280
2
  9
$DGNFRAME
280
2
  9
$REALWORLDSCALE
290
1
  9
$INTERFERECOLOR
 62
256
  9
$CSHADOW
280
0
  9
$SHADOWPLANELOCATION
 40
0.0
  0
ENDSEC
  0
SECTION
  2
CLASSES
  0
CLASS
  1
ACDBDICTIONARYWDFLT
  2
AcDbDictionaryWithDefault
  3
ObjectDBX Classes
 90
0
 91
0
280
0
281
0
  0
CLASS
  1
SUN
  2
AcDbSun
  3
SCENEOE
 90
1153
 91
0
280
0
281
0
  0
CLASS
  1
VISUALSTYLE
  2
AcDbVisualStyle
  3
ObjectDBX Classes
 90
4095
 91
0
280
0
281
0
  0
CLASS
  1
MATERIAL
  2
AcDbMaterial
  3
ObjectDBX Classes
 90
1153
 91
0
280
0
281
0
  0
CLASS
  1
SCALE
  2
AcDbScale
  3
ObjectDBX Classes
 90
1153
 91
0
280
0
281
0
  0
CLASS
  1
TABLESTYLE
  2
AcDbTableStyle
  3
ObjectDBX Classes
 90
4095
 91
0
280
0
281
0
  0
CLASS
  1
MLEADERSTYLE
  2
AcDbMLeaderStyle
  3
ACDB_MLEADERSTYLE_CLASS
 90
4095
 91
0
280
0
281
0
  0
CLASS
  1
DICTIONARYVAR
  2
AcDbDictionaryVar
  3
ObjectDBX Classes
 90
0
 91
0
280
0
281
0
  0
CLASS
  1
CELLSTYLEMAP
  2
AcDbCellStyleMap
  3
ObjectDBX Classes
 90
1152
 91
0
280
0
281
0
  0
CLASS
  1
MENTALRAYRENDERSETTINGS
  2
AcDbMentalRayRenderSettings
  3
SCENEOE
 90
1024
 91
0
280
0
281
0
  0
CLASS
  1
ACDBDETAILVIEWSTYLE
  2
AcDbDetailViewStyle
  3
ObjectDBX Classes
 90
1025
 91
0
280
0
281
0
  0
CLASS
  1
ACDBSECTIONVIEWSTYLE
  2
AcDbSectionViewStyle
  3
ObjectDBX Classes
 90
1025
 91
0
280
0
281
0
  0
CLASS
  1
RASTERVARIABLES
  2
AcDbRasterVariables
  3
ISM
 90
0
 91
0
280
0
281
0
  0
CLASS
  1
IMAGE
  2
AcDbRasterImage
  3
ISM
 90
2175
 91
0
280
0
281
1
  0
CLASS
  1
IMAGEDEF
  2
AcDbRasterImageDef
  3
ISM
 90
0
 91
0
280
0
281
0
  0
CLASS
  1
IMAGEDEF_REACTOR
  2
AcDbRasterImageDefReactor
  3
ISM
 90
1
 91
0
280
0
281
0
  0
CLASS
  1
ACDBPLACEHOLDER
  2
AcDbPlaceHolder
  3
ObjectDBX Classes
 90
0
 91
0
280
0
281
0
  0
CLASS
  1
LAYOUT
  2
AcDbLayout
  3
ObjectDBX Classes
 90
0
 91
0
280
0
281
0
  0
ENDSEC
  0
SECTION
  2
TABLES
  0
TABLE
  2
VPORT
  5
8
330
0
100
AcDbSymbolTable
 70
1
  0
VPORT
  5
23
330
8
100
AcDbSymbolTableRecord
100
AcDbViewportTableRecord
  2
*Active
 70
0
 10
0.0
 20
0.0
 11
1.0
 21
1.0
 12
0.0
 22
0.0
 13
0.0
 23
0.0
 14
0.5
 24
0.5
 15
0.5
 25
0.5
 16
0.0
 26
0.0
 36
1.0
 17
0.0
 27
0.0
 37
0.0
 40
1000.0
 41
1.34
 42
50.0
 43
0.0
 44
0.0
 50
0.0
 51
0.0
 71
0
 72
1000
 73
1
 74
3
 75
0
 76
0
 77
0
 78
0
281
0
 65
0
146
0.0
  0
ENDTAB
  0
TABLE
  2
LTYPE
  5
2
330
0
100
AcDbSymbolTable
 70
3
  0
LTYPE
  5
24
330
2
100
AcDbSymbolTableRecord
100
AcDbLinetypeTableRecord
  2
ByBlock
 70
0
  3

 72
65
 73
0
 40
0.0
  0
LTYPE
  5
25
330
2
100
AcDbSymbolTableRecord
100
AcDbLinetypeTableRecord
  2
ByLayer
 70
0
  3

 72
65
 73
0
 40
0.0
  0
LTYPE
  5
26
330
2
100
AcDbSymbolTableRecord
100
AcDbLinetypeTableRecord
  2
Continuous
 70
0
  3

 72
65
 73
0
 40
0.0
  0
ENDTAB
  0
TABLE
  2
LAYER
  5
1
330
0
100
AcDbSymbolTable
 70
10
  0
LAYER
  5
27
330
1
100
AcDbSymbolTableRecord
100
AcDbLayerTableRecord
  2
0
 70
0
 62
7
  6
Continuous
370
-3
390
13
347
21
  0
LAYER
  5
28
330
1
100
AcDbSymbolTableRecord
100
AcDbLayerTableRecord
  2
Defpoints
 70
0
 62
7
  6
Continuous
290
0
370
-3
390
13
347
21
  0
LAYER
  5
2F
330
1
100
AcDbSymbolTableRecord
100
AcDbLayerTableRecord
  2
NAVVIS-PLAN-0
 70
0
 62
8
  6
Continuous
370
-3
390
13
347
21
  0
LAYER
  5
30
330
1
100
AcDbSymbolTableRecord
100
AcDbLayerTableRecord
  2
NAVVIS-PLAN-1
 70
0
 62
8
  6
Continuous
370
-3
390
13
347
21
  0
LAYER
  5
31
330
1
100
AcDbSymbolTableRecord
100
AcDbLayerTableRecord
  2
NAVVIS-FOOTPRINT
 70
0
 62
5
  6
Continuous
370
-3
390
13
347
21
  0
LAYER
  5
32
330
1
100
AcDbSymbolTableRecord
100
AcDbLayerTableRecord
  2
NAVVIS-ROOM-0
 70
0
 62
3
  6
Continuous
370
-3
390
13
347
21
  0
LAYER
  5
33
330
1
100
AcDbSymbolTableRecord
100
AcDbLayerTableRecord
  2
NAVVIS-ROOM-1
 70
0
 62
3
  6
Continuous
370
-3
390
13
347
21
  0
LAYER
  5
34
330
1
100
AcDbSymbolTableRecord
100
AcDbLayerTableRecord
  2
LOT-TRACE-0
 70
0
 62
1
  6
Continuous
370
-3
390
13
347
21
  0
LAYER
  5
35
330
1
100
AcDbSymbolTableRecord
100
AcDbLayerTableRecord
  2
LOT-TRACE-1
 70
0
 62
1
  6
Continuous
370
-3
390
13
347
21
  0
LAYER
  5
36
330
1
100
AcDbSymbolTableRecord
100
AcDbLayerTableRecord
  2
NAVVIS-NOTES
 70
0
 62
7
  6
Continuous
370
-3
390
13
347
21
  0
ENDTAB
  0
TABLE
  2
STYLE
  5
5
330
0
100
AcDbSymbolTable
 70
1
  0
STYLE
  5
29
330
5
100
AcDbSymbolTableRecord
100
AcDbTextStyleTableRecord
  2
Standard
 70
0
 40
0.0
 41
1.0
 50
0.0
 71
0
 42
2.5
  3
txt
  4

  0
ENDTAB
  0
TABLE
  2
VIEW
  5
7
330
0
100
AcDbSymbolTable
 70
0
  0
ENDTAB
  0
TABLE
  2
UCS
  5
6
330
0
100
AcDbSymbolTable
 70
0
  0
ENDTAB
  0
TABLE
  2
APPID
  5
3
330
0
100
AcDbSymbolTable
 70
3
  0
APPID
  5
2A
330
3
100
AcDbSymbolTableRecord
100
AcDbRegAppTableRecord
  2
ACAD
 70
0
  0
APPID
  5
B7
330
3
100
AcDbSymbolTableRecord
100
AcDbRegAppTableRecord
  2
HATCHBACKGROUNDCOLOR
 70
0
  0
APPID
  5
B8
330
3
100
AcDbSymbolTableRecord
100
AcDbRegAppTableRecord
  2
EZDXF
 70
0
  0
ENDTAB
  0
TABLE
  2
DIMSTYLE
  5
4
330
0
100
AcDbSymbolTable
 70
1
100
AcDbDimStyleTable
  0
DIMSTYLE
105
2B
330
4
100
AcDbSymbolTableRecord
100
AcDbDimStyleTableRecord
  2
Standard
 70
0
 40
1.0
 41
2.5
 42
0.625
 43
3.75
 44
1.25
 45
0.0
 46
0.0
 47
0.0
 48
0.0
 49
2.5
140
2.5
141
2.5
142
0.0
143
0.03937007874
144
1.0
145
0.0
146
1.0
147
0.625
148
0.0
 69
0
 70
0
 71
0
 72
0
 73
0
 74
0
 75
0
 76
0
 77
1
 78
8
 79
3
170
0
171
3
172
1
173
0
174
0
175
0
176
0
177
0
178
0
179
2
271
2
272
2
273
2
274
3
275
0
276
0
277
2
278
44
279
0
280
0
281
0
282
0
283
0
284
8
285
0
286
0
288
0
289
3
290
0
371
-2
372
-2
  0
ENDTAB
  0
TABLE
  2
BLOCK_RECORD
  5
9
330
0
100
AcDbSymbolTable
 70
2
  0
BLOCK_RECORD
  5
17
330
9
100
AcDbSymbolTableRecord
100
AcDbBlockTableRecord
  2
*Model_Space
340
1A
 70
0
280
1
281
0
  0
BLOCK_RECORD
  5
1B
330
9
100
AcDbSymbolTableRecord
100
AcDbBlockTableRecord
  2
*Paper_Space
340
1E
 70
0
280
1
281
0
  0
ENDTAB
  0
ENDSEC
  0
SECTION
  2
BLOCKS
  0
BLOCK
  5
18
330
17
100
AcDbEntity
  8
0
100
AcDbBlockBegin
  2
*Model_Space
 70
0
 10
0.0
 20
0.0
 30
0.0
  3
*Model_Space
  1

  0
ENDBLK
  5
19
330
17
100
AcDbEntity
  8
0
100
AcDbBlockEnd
  0
BLOCK
  5
1C
330
1B
100
AcDbEntity
  8
0
100
AcDbBlockBegin
  2
*Paper_Space
 70
0
 10
0.0
 20
0.0
 30
0.0
  3
*Paper_Space
  1

  0
ENDBLK
  5
1D
330
1B
100
AcDbEntity
  8
0
100
AcDbBlockEnd
  0
ENDSEC
  0
SECTION
  2
ENTITIES
  0
IMAGE
  5
3A
330
17
100
AcDbEntity
  8
NAVVIS-PLAN-0
100
AcDbRasterImage
 90
0
 10
-43.179
 20
-49.13
 30
0.0
 11
0.02272671568627451
 21
0.0
 31
0.0
 12
1.3913596663305514e-18
 22
0.02272262773722628
 32
0.0
 13
1632.0
 23
2740.0
340
39
 70
3
280
0
281
50
282
50
283
0
360
3B
 71
1
 91
2
 14
-0.5
 24
-0.5
 14
1631.5
 24
2739.5
290
0
  0
IMAGE
  5
3D
330
17
100
AcDbEntity
  8
NAVVIS-PLAN-1
100
AcDbRasterImage
 90
0
 10
-43.179
 20
-49.13
 30
0.0
 11
0.02272671568627451
 21
0.0
 31
0.0
 12
1.3913596663305514e-18
 22
0.02272262773722628
 32
0.0
 13
1632.0
 23
2740.0
340
3C
 70
3
280
0
281
50
282
50
283
0
360
3E
 71
1
 91
2
 14
-0.5
 24
-0.5
 14
1631.5
 24
2739.5
290
0
  0
IMAGE
  5
40
330
17
100
AcDbEntity
  8
NAVVIS-PLAN-0
100
AcDbRasterImage
 90
0
 10
-4.255
 20
-40.291
 30
0.0
 11
0.014281115879828325
 21
0.0
 31
0.0
 12
8.744654358199906e-19
 22
0.01428110433847257
 32
0.0
 13
2796.0
 23
2789.0
340
3F
 70
3
280
0
281
50
282
50
283
0
360
41
 71
1
 91
2
 14
-0.5
 24
-0.5
 14
2795.5
 24
2788.5
290
0
  0
IMAGE
  5
43
330
17
100
AcDbEntity
  8
NAVVIS-PLAN-1
100
AcDbRasterImage
 90
0
 10
-4.255
 20
-40.291
 30
0.0
 11
0.014281115879828325
 21
0.0
 31
0.0
 12
8.744654358199906e-19
 22
0.01428110433847257
 32
0.0
 13
2796.0
 23
2789.0
340
42
 70
3
280
0
281
50
282
50
283
0
360
44
 71
1
 91
2
 14
-0.5
 24
-0.5
 14
2795.5
 24
2788.5
290
0
  0
IMAGE
  5
46
330
17
100
AcDbEntity
  8
NAVVIS-PLAN-0
100
AcDbRasterImage
 90
0
 10
-11.623
 20
7.02
 30
0.0
 11
0.014702508960573474
 21
0.0
 31
0.0
 12
8.9980151312454e-19
 22
0.01469487388120423
 32
0.0
 13
2790.0
 23
1229.0
340
45
 70
3
280
0
281
50
282
50
283
0
360
47
 71
1
 91
2
 14
-0.5
 24
-0.5
 14
2789.5
 24
1228.5
290
0
  0
IMAGE
  5
49
330
17
100
AcDbEntity
  8
NAVVIS-PLAN-1
100
AcDbRasterImage
 90
0
 10
-11.623
 20
7.02
 30
0.0
 11
0.014702508960573474
 21
0.0
 31
0.0
 12
8.9980151312454e-19
 22
0.01469487388120423
 32
0.0
 13
2790.0
 23
1229.0
340
48
 70
3
280
0
281
50
282
50
283
0
360
4A
 71
1
 91
2
 14
-0.5
 24
-0.5
 14
2789.5
 24
1228.5
290
0
  0
IMAGE
  5
4C
330
17
100
AcDbEntity
  8
NAVVIS-PLAN-0
100
AcDbRasterImage
 90
0
 10
9.102
 20
-3.852
 30
0.0
 11
0.01
 21
0.0
 31
0.0
 12
6.123233995736766e-19
 22
0.01
 32
0.0
 13
2116.0
 23
1663.0
340
4B
 70
3
280
0
281
50
282
50
283
0
360
4D
 71
1
 91
2
 14
-0.5
 24
-0.5
 14
2115.5
 24
1662.5
290
0
  0
IMAGE
  5
4F
330
17
100
AcDbEntity
  8
NAVVIS-PLAN-1
100
AcDbRasterImage
 90
0
 10
9.102
 20
-3.852
 30
0.0
 11
0.01
 21
0.0
 31
0.0
 12
6.123233995736766e-19
 22
0.01
 32
0.0
 13
2116.0
 23
1663.0
340
4E
 70
3
280
0
281
50
282
50
283
0
360
50
 71
1
 91
2
 14
-0.5
 24
-0.5
 14
2115.5
 24
1662.5
290
0
  0
IMAGE
  5
52
330
17
100
AcDbEntity
  8
NAVVIS-PLAN-0
100
AcDbRasterImage
 90
0
 10
-25.275
 20
2.678
 30
0.0
 11
0.009994689325544344
 21
0.0
 31
0.0
 12
6.123233995736765e-19
 22
0.009999999999999998
 32
0.0
 13
1883.0
 23
1937.0
340
51
 70
3
280
0
281
50
282
50
283
0
360
53
 71
1
 91
2
 14
-0.5
 24
-0.5
 14
1882.5
 24
1936.5
290
0
  0
IMAGE
  5
55
330
17
100
AcDbEntity
  8
NAVVIS-PLAN-1
100
AcDbRasterImage
 90
0
 10
-25.275
 20
2.678
 30
0.0
 11
0.009994689325544344
 21
0.0
 31
0.0
 12
6.123233995736765e-19
 22
0.009999999999999998
 32
0.0
 13
1883.0
 23
1937.0
340
54
 70
3
280
0
281
50
282
50
283
0
360
56
 71
1
 91
2
 14
-0.5
 24
-0.5
 14
1882.5
 24
1936.5
290
0
  0
LWPOLYLINE
  5
57
330
17
100
AcDbEntity
  8
NAVVIS-FOOTPRINT
100
AcDbPolyline
 90
14
 70
1
 10
-23.32038180718353
 20
12.12806956604807
 10
-9.680401115311728
 20
-34.30488575309847
 10
-8.338426083131623
 20
-34.137502119383825
 10
-7.179210667915787
 20
-38.17989433654675
 10
-8.04119136128141
 20
-38.47712905839696
 10
-7.087411315277538
 20
-41.452111042406784
 10
-29.617803231523848
 20
-48.1285299430712
 10
-31.7578932288454
 20
-40.99489661866603
 10
-15.945006026413953
 20
-36.14997065250753
 10
-28.5667618272949
 20
5.737710139411712
 10
-41.43702528340921
 20
2.705915976539518
 10
-42.180112088034754
 20
7.431948053957939
 10
-34.45200931992916
 20
8.888398191023992
 10
-23.32038180718353
 20
12.12806956604807
  0
LWPOLYLINE
  5
58
330
17
100
AcDbEntity
  8
NAVVIS-FOOTPRINT
100
AcDbPolyline
 90
9
 70
1
 10
18.816687964142584
 20
-2.168598534438219
 10
25.30272653409385
 20
-24.0312692990317
 10
-3.2542398739979275
 20
-32.339996115987766
 10
-1.9936505449636543
 20
-36.420886994725834
 10
-0.5621338492806656
 20
-36.14313002392167
 10
0.3465059915224522
 20
-39.289604158069416
 10
34.67519982085145
 20
-29.215390447263985
 10
26.75185455191803
 20
-1.4632503944639383
 10
18.816687964142584
 20
-2.168598534438219
  0
LWPOLYLINE
  5
59
330
17
100
AcDbEntity
  8
NAVVIS-FOOTPRINT
100
AcDbPolyline
 90
12
 70
1
 10
-9.022596829276994
 20
22.754675979958442
 10
-9.170700073242188
 20
20.393207550048828
 10
-9.27173137664795
 20
18.865102767944336
 10
-10.623030662536621
 20
18.801958084106445
 10
-7.6925138038306855
 20
8.020002949532191
 10
4.997127929487705
 20
9.946214205866427
 10
28.39716352371402
 20
11.775994459308144
 10
28.010590230733374
 20
14.58509372163416
 10
25.188605191974673
 20
14.353149745845771
 10
24.594296169247162
 20
24.08034764570148
 10
11.824491724453218
 20
22.817541555298043
 10
-9.022596829276994
 20
22.754675979958442
  0
LWPOLYLINE
  5
5A
330
17
100
AcDbEntity
  8
NAVVIS-FOOTPRINT
100
AcDbPolyline
 90
5
 70
1
 10
10.102531664244264
 20
10.34543473825659
 10
11.160074538868674
 20
-2.8491864404055356
 10
29.261116175283114
 20
-1.2402049616131414
 10
28.39716339111328
 20
11.775994300842285
 10
10.102531664244264
 20
10.34543473825659
  0
LWPOLYLINE
  5
5B
330
17
100
AcDbEntity
  8
NAVVIS-FOOTPRINT
100
AcDbPolyline
 90
12
 70
1
 10
-24.274937966983522
 20
15.922555048168377
 10
-23.32038116455078
 20
12.128069877624512
 10
-20.837715914333224
 20
3.676629112078249
 10
-7.455906925728616
 20
7.1494788213631715
 10
-10.623030463114143
 20
18.801958295978014
 10
-9.271731570501727
 20
18.865103104044014
 10
-9.170699877596125
 20
20.393207459241232
 10
-9.915808612774935
 20
21.049913463127645
 10
-10.875609695378149
 20
20.82259215409004
 10
-11.254478543774152
 20
20.07748341891123
 10
-11.22922062054775
 20
19.534438069543622
 10
-24.274937966983522
 20
15.922555048168377
  0
CIRCLE
  5
5C
330
17
100
AcDbEntity
  8
NAVVIS-ROOM-0
100
AcDbCircle
 10
-18.46
 20
-39.42
 30
0.0
 40
0.3
  0
TEXT
  5
5D
330
17
100
AcDbEntity
  8
NAVVIS-ROOM-0
100
AcDbText
 10
-18.060000000000002
 20
-39.42
 30
0.0
 40
0.35
  1
G25 128.8m2 H10.6
 11
-18.060000000000002
 21
-39.42
 31
0.0
100
AcDbText
  0
CIRCLE
  5
5E
330
17
100
AcDbEntity
  8
NAVVIS-ROOM-0
100
AcDbCircle
 10
-19.31
 20
-19.72
 30
0.0
 40
0.3
  0
TEXT
  5
5F
330
17
100
AcDbEntity
  8
NAVVIS-ROOM-0
100
AcDbText
 10
-18.91
 20
-19.72
 30
0.0
 40
0.35
  1
G19 63.5m2 H4.0
 11
-18.91
 21
-19.72
 31
0.0
100
AcDbText
  0
CIRCLE
  5
60
330
17
100
AcDbEntity
  8
NAVVIS-ROOM-0
100
AcDbCircle
 10
-21.8
 20
-9.91
 30
0.0
 40
0.3
  0
TEXT
  5
61
330
17
100
AcDbEntity
  8
NAVVIS-ROOM-0
100
AcDbText
 10
-21.400000000000002
 20
-9.91
 30
0.0
 40
0.35
  1
G17 56.1m2 H3.6
 11
-21.400000000000002
 21
-9.91
 31
0.0
100
AcDbText
  0
CIRCLE
  5
62
330
17
100
AcDbEntity
  8
NAVVIS-ROOM-0
100
AcDbCircle
 10
-16.39
 20
-30.0
 30
0.0
 40
0.3
  0
TEXT
  5
63
330
17
100
AcDbEntity
  8
NAVVIS-ROOM-0
100
AcDbText
 10
-15.99
 20
-30.0
 30
0.0
 40
0.35
  1
G23 48.4m2 H3.6
 11
-15.99
 21
-30.0
 31
0.0
100
AcDbText
  0
CIRCLE
  5
64
330
17
100
AcDbEntity
  8
NAVVIS-ROOM-0
100
AcDbCircle
 10
-24.32
 20
-1.75
 30
0.0
 40
0.3
  0
TEXT
  5
65
330
17
100
AcDbEntity
  8
NAVVIS-ROOM-0
100
AcDbText
 10
-23.92
 20
-1.75
 30
0.0
 40
0.35
  1
G14 36.6m2 H3.3
 11
-23.92
 21
-1.75
 31
0.0
100
AcDbText
  0
CIRCLE
  5
66
330
17
100
AcDbEntity
  8
NAVVIS-ROOM-0
100
AcDbCircle
 10
-28.61
 20
10.31
 30
0.0
 40
0.3
  0
TEXT
  5
67
330
17
100
AcDbEntity
  8
NAVVIS-ROOM-0
100
AcDbText
 10
-28.21
 20
10.31
 30
0.0
 40
0.35
  1
G7 19.4m2 H3.1
 11
-28.21
 21
10.31
 31
0.0
100
AcDbText
  0
CIRCLE
  5
68
330
17
100
AcDbEntity
  8
NAVVIS-ROOM-0
100
AcDbCircle
 10
-33.52
 20
8.41
 30
0.0
 40
0.3
  0
TEXT
  5
69
330
17
100
AcDbEntity
  8
NAVVIS-ROOM-0
100
AcDbText
 10
-33.120000000000005
 20
8.41
 30
0.0
 40
0.35
  1
G9 18.9m2 H2.6
 11
-33.120000000000005
 21
8.41
 31
0.0
100
AcDbText
  0
CIRCLE
  5
6A
330
17
100
AcDbEntity
  8
NAVVIS-ROOM-0
100
AcDbCircle
 10
-27.14
 20
2.52
 30
0.0
 40
0.3
  0
TEXT
  5
6B
330
17
100
AcDbEntity
  8
NAVVIS-ROOM-0
100
AcDbText
 10
-26.740000000000002
 20
2.52
 30
0.0
 40
0.35
  1
G12 12.7m2 H3.3
 11
-26.740000000000002
 21
2.52
 31
0.0
100
AcDbText
  0
CIRCLE
  5
6C
330
17
100
AcDbEntity
  8
NAVVIS-ROOM-0
100
AcDbCircle
 10
-28.2
 20
6.08
 30
0.0
 40
0.3
  0
TEXT
  5
6D
330
17
100
AcDbEntity
  8
NAVVIS-ROOM-0
100
AcDbText
 10
-27.8
 20
6.08
 30
0.0
 40
0.35
  1
G11 12.3m2 H3.4
 11
-27.8
 21
6.08
 31
0.0
100
AcDbText
  0
CIRCLE
  5
6E
330
17
100
AcDbEntity
  8
NAVVIS-ROOM-0
100
AcDbCircle
 10
24.35
 20
-13.55
 30
0.0
 40
0.3
  0
TEXT
  5
6F
330
17
100
AcDbEntity
  8
NAVVIS-ROOM-0
100
AcDbText
 10
24.75
 20
-13.55
 30
0.0
 40
0.35
  1
G18 69.8m2 H3.3
 11
24.75
 21
-13.55
 31
0.0
100
AcDbText
  0
CIRCLE
  5
70
330
17
100
AcDbEntity
  8
NAVVIS-ROOM-0
100
AcDbCircle
 10
27.6
 20
-23.06
 30
0.0
 40
0.3
  0
TEXT
  5
71
330
17
100
AcDbEntity
  8
NAVVIS-ROOM-0
100
AcDbText
 10
28.0
 20
-23.06
 30
0.0
 40
0.35
  1
G20 69.2m2 H3.3
 11
28.0
 21
-23.06
 31
0.0
100
AcDbText
  0
CIRCLE
  5
72
330
17
100
AcDbEntity
  8
NAVVIS-ROOM-0
100
AcDbCircle
 10
22.12
 20
-26.85
 30
0.0
 40
0.3
  0
TEXT
  5
73
330
17
100
AcDbEntity
  8
NAVVIS-ROOM-0
100
AcDbText
 10
22.52
 20
-26.85
 30
0.0
 40
0.35
  1
G21 28.6m2 H3.3
 11
22.52
 21
-26.85
 31
0.0
100
AcDbText
  0
CIRCLE
  5
74
330
17
100
AcDbEntity
  8
NAVVIS-ROOM-0
100
AcDbCircle
 10
22.63
 20
-6.85
 30
0.0
 40
0.3
  0
TEXT
  5
75
330
17
100
AcDbEntity
  8
NAVVIS-ROOM-0
100
AcDbText
 10
23.029999999999998
 20
-6.85
 30
0.0
 40
0.35
  1
G16 28.2m2 H3.2
 11
23.029999999999998
 21
-6.85
 31
0.0
100
AcDbText
  0
CIRCLE
  5
76
330
17
100
AcDbEntity
  8
NAVVIS-ROOM-0
100
AcDbCircle
 10
20.84
 20
-2.51
 30
0.0
 40
0.3
  0
TEXT
  5
77
330
17
100
AcDbEntity
  8
NAVVIS-ROOM-0
100
AcDbText
 10
21.24
 20
-2.51
 30
0.0
 40
0.35
  1
G15 27.1m2 H2.9
 11
21.24
 21
-2.51
 31
0.0
100
AcDbText
  0
CIRCLE
  5
78
330
17
100
AcDbEntity
  8
NAVVIS-ROOM-0
100
AcDbCircle
 10
17.64
 20
-29.41
 30
0.0
 40
0.3
  0
TEXT
  5
79
330
17
100
AcDbEntity
  8
NAVVIS-ROOM-0
100
AcDbText
 10
18.04
 20
-29.41
 30
0.0
 40
0.35
  1
G22 25.6m2 H3.3
 11
18.04
 21
-29.41
 31
0.0
100
AcDbText
  0
CIRCLE
  5
7A
330
17
100
AcDbEntity
  8
NAVVIS-ROOM-0
100
AcDbCircle
 10
-0.17
 20
-34.79
 30
0.0
 40
0.3
  0
TEXT
  5
7B
330
17
100
AcDbEntity
  8
NAVVIS-ROOM-0
100
AcDbText
 10
0.23
 20
-34.79
 30
0.0
 40
0.35
  1
G24 18.1m2 H2.8
 11
0.23
 21
-34.79
 31
0.0
100
AcDbText
  0
CIRCLE
  5
7C
330
17
100
AcDbEntity
  8
NAVVIS-ROOM-0
100
AcDbCircle
 10
9.04
 20
17.27
 30
0.0
 40
0.3
  0
TEXT
  5
7D
330
17
100
AcDbEntity
  8
NAVVIS-ROOM-0
100
AcDbText
 10
9.44
 20
17.27
 30
0.0
 40
0.35
  1
G2 245.0m2 H4.4
 11
9.44
 21
17.27
 31
0.0
100
AcDbText
  0
CIRCLE
  5
7E
330
17
100
AcDbEntity
  8
NAVVIS-ROOM-0
100
AcDbCircle
 10
-6.32
 20
20.24
 30
0.0
 40
0.3
  0
TEXT
  5
7F
330
17
100
AcDbEntity
  8
NAVVIS-ROOM-0
100
AcDbText
 10
-5.92
 20
20.24
 30
0.0
 40
0.35
  1
G1 68.6m2 H3.8
 11
-5.92
 21
20.24
 31
0.0
100
AcDbText
  0
CIRCLE
  5
80
330
17
100
AcDbEntity
  8
NAVVIS-ROOM-0
100
AcDbCircle
 10
-4.68
 20
12.71
 30
0.0
 40
0.3
  0
TEXT
  5
81
330
17
100
AcDbEntity
  8
NAVVIS-ROOM-0
100
AcDbText
 10
-4.279999999999999
 20
12.71
 30
0.0
 40
0.35
  1
G5 27.6m2 H3.1
 11
-4.279999999999999
 21
12.71
 31
0.0
100
AcDbText
  0
CIRCLE
  5
82
330
17
100
AcDbEntity
  8
NAVVIS-ROOM-0
100
AcDbCircle
 10
0.63
 20
13.24
 30
0.0
 40
0.3
  0
TEXT
  5
83
330
17
100
AcDbEntity
  8
NAVVIS-ROOM-0
100
AcDbText
 10
1.03
 20
13.24
 30
0.0
 40
0.35
  1
G4 21.1m2 H3.1
 11
1.03
 21
13.24
 31
0.0
100
AcDbText
  0
CIRCLE
  5
84
330
17
100
AcDbEntity
  8
NAVVIS-ROOM-0
100
AcDbCircle
 10
18.24
 20
8.67
 30
0.0
 40
0.3
  0
TEXT
  5
85
330
17
100
AcDbEntity
  8
NAVVIS-ROOM-0
100
AcDbText
 10
18.639999999999997
 20
8.67
 30
0.0
 40
0.35
  1
G8 120.7m2 H11.7
 11
18.639999999999997
 21
8.67
 31
0.0
100
AcDbText
  0
CIRCLE
  5
86
330
17
100
AcDbEntity
  8
NAVVIS-ROOM-0
100
AcDbCircle
 10
19.02
 20
1.47
 30
0.0
 40
0.3
  0
TEXT
  5
87
330
17
100
AcDbEntity
  8
NAVVIS-ROOM-0
100
AcDbText
 10
19.419999999999998
 20
1.47
 30
0.0
 40
0.35
  1
G13 71.7m2 H4.0
 11
19.419999999999998
 21
1.47
 31
0.0
100
AcDbText
  0
CIRCLE
  5
88
330
17
100
AcDbEntity
  8
NAVVIS-ROOM-0
100
AcDbCircle
 10
-18.79
 20
16.82
 30
0.0
 40
0.3
  0
TEXT
  5
89
330
17
100
AcDbEntity
  8
NAVVIS-ROOM-0
100
AcDbText
 10
-18.39
 20
16.82
 30
0.0
 40
0.35
  1
G3 66.6m2 H3.6
 11
-18.39
 21
16.82
 31
0.0
100
AcDbText
  0
CIRCLE
  5
8A
330
17
100
AcDbEntity
  8
NAVVIS-ROOM-0
100
AcDbCircle
 10
-13.8
 20
10.8
 30
0.0
 40
0.3
  0
TEXT
  5
8B
330
17
100
AcDbEntity
  8
NAVVIS-ROOM-0
100
AcDbText
 10
-13.4
 20
10.8
 30
0.0
 40
0.35
  1
G6 32.5m2 H3.6
 11
-13.4
 21
10.8
 31
0.0
100
AcDbText
  0
CIRCLE
  5
8C
330
17
100
AcDbEntity
  8
NAVVIS-ROOM-0
100
AcDbCircle
 10
-20.84
 20
8.27
 30
0.0
 40
0.3
  0
TEXT
  5
8D
330
17
100
AcDbEntity
  8
NAVVIS-ROOM-0
100
AcDbText
 10
-20.44
 20
8.27
 30
0.0
 40
0.35
  1
G10 25.4m2 H3.4
 11
-20.44
 21
8.27
 31
0.0
100
AcDbText
  0
CIRCLE
  5
8E
330
17
100
AcDbEntity
  8
NAVVIS-ROOM-1
100
AcDbCircle
 10
-16.12
 20
-16.66
 30
0.0
 40
0.3
  0
TEXT
  5
8F
330
17
100
AcDbEntity
  8
NAVVIS-ROOM-1
100
AcDbText
 10
-15.72
 20
-16.66
 30
0.0
 40
0.35
  1
F18 158.3m2 H5.4
 11
-15.72
 21
-16.66
 31
0.0
100
AcDbText
  0
CIRCLE
  5
90
330
17
100
AcDbEntity
  8
NAVVIS-ROOM-1
100
AcDbCircle
 10
-32.76
 20
6.62
 30
0.0
 40
0.3
  0
TEXT
  5
91
330
17
100
AcDbEntity
  8
NAVVIS-ROOM-1
100
AcDbText
 10
-32.36
 20
6.62
 30
0.0
 40
0.35
  1
F14 53.5m2 H2.4
 11
-32.36
 21
6.62
 31
0.0
100
AcDbText
  0
CIRCLE
  5
92
330
17
100
AcDbEntity
  8
NAVVIS-ROOM-1
100
AcDbCircle
 10
-22.15
 20
7.46
 30
0.0
 40
0.3
  0
TEXT
  5
93
330
17
100
AcDbEntity
  8
NAVVIS-ROOM-1
100
AcDbText
 10
-21.75
 20
7.46
 30
0.0
 40
0.35
  1
F13 43.0m2 H2.7
 11
-21.75
 21
7.46
 31
0.0
100
AcDbText
  0
CIRCLE
  5
94
330
17
100
AcDbEntity
  8
NAVVIS-ROOM-1
100
AcDbCircle
 10
-18.94
 20
-5.18
 30
0.0
 40
0.3
  0
TEXT
  5
95
330
17
100
AcDbEntity
  8
NAVVIS-ROOM-1
100
AcDbText
 10
-18.540000000000003
 20
-5.18
 30
0.0
 40
0.35
  1
F17 27.1m2 H2.6
 11
-18.540000000000003
 21
-5.18
 31
0.0
100
AcDbText
  0
CIRCLE
  5
96
330
17
100
AcDbEntity
  8
NAVVIS-ROOM-1
100
AcDbCircle
 10
-21.58
 20
3.2
 30
0.0
 40
0.3
  0
TEXT
  5
97
330
17
100
AcDbEntity
  8
NAVVIS-ROOM-1
100
AcDbText
 10
-21.18
 20
3.2
 30
0.0
 40
0.35
  1
F15 20.0m2 H2.6
 11
-21.18
 21
3.2
 31
0.0
100
AcDbText
  0
CIRCLE
  5
98
330
17
100
AcDbEntity
  8
NAVVIS-ROOM-1
100
AcDbCircle
 10
-20.2
 20
-0.79
 30
0.0
 40
0.3
  0
TEXT
  5
99
330
17
100
AcDbEntity
  8
NAVVIS-ROOM-1
100
AcDbText
 10
-19.8
 20
-0.79
 30
0.0
 40
0.35
  1
F16 13.2m2 H2.6
 11
-19.8
 21
-0.79
 31
0.0
100
AcDbText
  0
CIRCLE
  5
9A
330
17
100
AcDbEntity
  8
NAVVIS-ROOM-1
100
AcDbCircle
 10
18.02
 20
-28.95
 30
0.0
 40
0.3
  0
TEXT
  5
9B
330
17
100
AcDbEntity
  8
NAVVIS-ROOM-1
100
AcDbText
 10
18.419999999999998
 20
-28.95
 30
0.0
 40
0.35
  1
F19 348.4m2 H5.6
 11
18.419999999999998
 21
-28.95
 31
0.0
100
AcDbText
  0
CIRCLE
  5
9C
330
17
100
AcDbEntity
  8
NAVVIS-ROOM-1
100
AcDbCircle
 10
-2.7
 20
-34.07
 30
0.0
 40
0.3
  0
TEXT
  5
9D
330
17
100
AcDbEntity
  8
NAVVIS-ROOM-1
100
AcDbText
 10
-2.3000000000000003
 20
-34.07
 30
0.0
 40
0.35
  1
F20 20.6m2 H3.8
 11
-2.3000000000000003
 21
-34.07
 31
0.0
100
AcDbText
  0
CIRCLE
  5
9E
330
17
100
AcDbEntity
  8
NAVVIS-ROOM-1
100
AcDbCircle
 10
-0.38
 20
20.14
 30
0.0
 40
0.3
  0
TEXT
  5
9F
330
17
100
AcDbEntity
  8
NAVVIS-ROOM-1
100
AcDbText
 10
0.020000000000000018
 20
20.14
 30
0.0
 40
0.35
  1
F4 23.9m2 H5.1
 11
0.020000000000000018
 21
20.14
 31
0.0
100
AcDbText
  0
CIRCLE
  5
A0
330
17
100
AcDbEntity
  8
NAVVIS-ROOM-1
100
AcDbCircle
 10
-5.01
 20
21.26
 30
0.0
 40
0.3
  0
TEXT
  5
A1
330
17
100
AcDbEntity
  8
NAVVIS-ROOM-1
100
AcDbText
 10
-4.609999999999999
 20
21.26
 30
0.0
 40
0.35
  1
F3 19.4m2 H2.5
 11
-4.609999999999999
 21
21.26
 31
0.0
100
AcDbText
  0
CIRCLE
  5
A2
330
17
100
AcDbEntity
  8
NAVVIS-ROOM-1
100
AcDbCircle
 10
-4.31
 20
17.42
 30
0.0
 40
0.3
  0
TEXT
  5
A3
330
17
100
AcDbEntity
  8
NAVVIS-ROOM-1
100
AcDbText
 10
-3.9099999999999997
 20
17.42
 30
0.0
 40
0.35
  1
F7 18.7m2
 11
-3.9099999999999997
 21
17.42
 31
0.0
100
AcDbText
  0
CIRCLE
  5
A4
330
17
100
AcDbEntity
  8
NAVVIS-ROOM-1
100
AcDbCircle
 10
3.59
 20
18.55
 30
0.0
 40
0.3
  0
TEXT
  5
A5
330
17
100
AcDbEntity
  8
NAVVIS-ROOM-1
100
AcDbText
 10
3.9899999999999998
 20
18.55
 30
0.0
 40
0.35
  1
F5 18.2m2 H2.3
 11
3.9899999999999998
 21
18.55
 31
0.0
100
AcDbText
  0
CIRCLE
  5
A6
330
17
100
AcDbEntity
  8
NAVVIS-ROOM-1
100
AcDbCircle
 10
3.34
 20
22.47
 30
0.0
 40
0.3
  0
TEXT
  5
A7
330
17
100
AcDbEntity
  8
NAVVIS-ROOM-1
100
AcDbText
 10
3.7399999999999998
 20
22.47
 30
0.0
 40
0.35
  1
F2 13.4m2 H7.9
 11
3.7399999999999998
 21
22.47
 31
0.0
100
AcDbText
  0
CIRCLE
  5
A8
330
17
100
AcDbEntity
  8
NAVVIS-ROOM-1
100
AcDbCircle
 10
-25.36
 20
26.64
 30
0.0
 40
0.3
  0
TEXT
  5
A9
330
17
100
AcDbEntity
  8
NAVVIS-ROOM-1
100
AcDbText
 10
-24.96
 20
26.64
 30
0.0
 40
0.35
  1
F1 161.4m2 H5.7
 11
-24.96
 21
26.64
 31
0.0
100
AcDbText
  0
CIRCLE
  5
AA
330
17
100
AcDbEntity
  8
NAVVIS-ROOM-1
100
AcDbCircle
 10
-17.29
 20
8.44
 30
0.0
 40
0.3
  0
TEXT
  5
AB
330
17
100
AcDbEntity
  8
NAVVIS-ROOM-1
100
AcDbText
 10
-16.89
 20
8.44
 30
0.0
 40
0.35
  1
F12 26.5m2 H3.5
 11
-16.89
 21
8.44
 31
0.0
100
AcDbText
  0
CIRCLE
  5
AC
330
17
100
AcDbEntity
  8
NAVVIS-ROOM-1
100
AcDbCircle
 10
-15.23
 20
16.34
 30
0.0
 40
0.3
  0
TEXT
  5
AD
330
17
100
AcDbEntity
  8
NAVVIS-ROOM-1
100
AcDbText
 10
-14.83
 20
16.34
 30
0.0
 40
0.35
  1
F8 22.7m2 H3.5
 11
-14.83
 21
16.34
 31
0.0
100
AcDbText
  0
CIRCLE
  5
AE
330
17
100
AcDbEntity
  8
NAVVIS-ROOM-1
100
AcDbCircle
 10
-12.85
 20
9.2
 30
0.0
 40
0.3
  0
TEXT
  5
AF
330
17
100
AcDbEntity
  8
NAVVIS-ROOM-1
100
AcDbText
 10
-12.45
 20
9.2
 30
0.0
 40
0.35
  1
F11 22.4m2 H3.5
 11
-12.45
 21
9.2
 31
0.0
100
AcDbText
  0
CIRCLE
  5
B0
330
17
100
AcDbEntity
  8
NAVVIS-ROOM-1
100
AcDbCircle
 10
-9.17
 20
10.55
 30
0.0
 40
0.3
  0
TEXT
  5
B1
330
17
100
AcDbEntity
  8
NAVVIS-ROOM-1
100
AcDbText
 10
-8.77
 20
10.55
 30
0.0
 40
0.35
  1
F10 21.7m2 H3.5
 11
-8.77
 21
10.55
 31
0.0
100
AcDbText
  0
CIRCLE
  5
B2
330
17
100
AcDbEntity
  8
NAVVIS-ROOM-1
100
AcDbCircle
 10
-19.66
 20
15.17
 30
0.0
 40
0.3
  0
TEXT
  5
B3
330
17
100
AcDbEntity
  8
NAVVIS-ROOM-1
100
AcDbText
 10
-19.26
 20
15.17
 30
0.0
 40
0.35
  1
F9 17.6m2 H3.5
 11
-19.26
 21
15.17
 31
0.0
100
AcDbText
  0
CIRCLE
  5
B4
330
17
100
AcDbEntity
  8
NAVVIS-ROOM-1
100
AcDbCircle
 10
-10.8
 20
17.51
 30
0.0
 40
0.3
  0
TEXT
  5
B5
330
17
100
AcDbEntity
  8
NAVVIS-ROOM-1
100
AcDbText
 10
-10.4
 20
17.51
 30
0.0
 40
0.35
  1
F6 16.8m2 H3.5
 11
-10.4
 21
17.51
 31
0.0
100
AcDbText
  0
MTEXT
  5
B6
330
17
100
AcDbEntity
  8
NAVVIS-NOTES
100
AcDbMText
 10
-43.0
 20
-52.0
 30
0.0
 40
0.5
 71
1
  3
FERME DU TEMPLE — plans as-built NavVis (orthophotos, coupe horizontale ~1.2 m au-dessus du sol, coordonnees site metres, EPSG:8370). PLAN-0 = rez, PLAN-1 = etage. Tracer les lots sur LOT-TRACE-*. Aires 6190 indicatives. F19/F18/G25 = volumes non clo
  1
isonnes a redecouper.
  0
ENDSEC
  0
SECTION
  2
OBJECTS
  0
DICTIONARY
  5
A
330
0
100
AcDbDictionary
281
1
  3
ACAD_COLOR
350
B
  3
ACAD_GROUP
350
C
  3
ACAD_LAYOUT
350
D
  3
ACAD_MATERIAL
350
E
  3
ACAD_MLEADERSTYLE
350
F
  3
ACAD_MLINESTYLE
350
10
  3
ACAD_PLOTSETTINGS
350
11
  3
ACAD_PLOTSTYLENAME
350
12
  3
ACAD_SCALELIST
350
14
  3
ACAD_TABLESTYLE
350
15
  3
ACAD_VISUALSTYLE
350
16
  3
EZDXF_META
350
2D
  3
ACAD_IMAGE_VARS
350
37
  3
ACAD_IMAGE_DICT
350
38
  0
DICTIONARY
  5
B
330
A
100
AcDbDictionary
281
1
  0
DICTIONARY
  5
C
330
A
100
AcDbDictionary
281
1
  0
DICTIONARY
  5
D
330
A
100
AcDbDictionary
281
1
  3
Model
350
1A
  3
Layout1
350
1E
  0
DICTIONARY
  5
E
330
A
100
AcDbDictionary
281
1
  3
ByBlock
350
1F
  3
ByLayer
350
20
  3
Global
350
21
  0
DICTIONARY
  5
F
330
A
100
AcDbDictionary
281
1
  3
Standard
350
2C
  0
DICTIONARY
  5
10
330
A
100
AcDbDictionary
281
1
  3
Standard
350
22
  0
DICTIONARY
  5
11
330
A
100
AcDbDictionary
281
1
  0
ACDBDICTIONARYWDFLT
  5
12
330
A
100
AcDbDictionary
281
1
  3
Normal
350
13
100
AcDbDictionaryWithDefault
340
13
  0
ACDBPLACEHOLDER
  5
13
330
12
  0
DICTIONARY
  5
14
330
A
100
AcDbDictionary
281
1
  0
DICTIONARY
  5
15
330
A
100
AcDbDictionary
281
1
  0
DICTIONARY
  5
16
330
A
100
AcDbDictionary
281
1
  0
LAYOUT
  5
1A
330
D
100
AcDbPlotSettings
  1

  4
A3
  6

 40
7.5
 41
20.0
 42
7.5
 43
20.0
 44
420.0
 45
297.0
 46
0.0
 47
0.0
 48
0.0
 49
0.0
140
0.0
141
0.0
142
1.0
143
1.0
 70
1024
 72
1
 73
0
 74
5
  7

 75
16
 76
0
 77
2
 78
300
147
1.0
148
0.0
149
0.0
100
AcDbLayout
  1
Model
 70
1
 71
0
 10
0.0
 20
0.0
 11
420.0
 21
297.0
 12
0.0
 22
0.0
 32
0.0
 14
1e+20
 24
1e+20
 34
1e+20
 15
-1e+20
 25
-1e+20
 35
-1e+20
146
0.0
 13
0.0
 23
0.0
 33
0.0
 16
1.0
 26
0.0
 36
0.0
 17
0.0
 27
1.0
 37
0.0
 76
1
330
17
  0
LAYOUT
  5
1E
330
D
100
AcDbPlotSettings
  1

  4
A3
  6

 40
7.5
 41
20.0
 42
7.5
 43
20.0
 44
420.0
 45
297.0
 46
0.0
 47
0.0
 48
0.0
 49
0.0
140
0.0
141
0.0
142
1.0
143
1.0
 70
0
 72
1
 73
0
 74
5
  7

 75
16
 76
0
 77
2
 78
300
147
1.0
148
0.0
149
0.0
100
AcDbLayout
  1
Layout1
 70
1
 71
1
 10
0.0
 20
0.0
 11
420.0
 21
297.0
 12
0.0
 22
0.0
 32
0.0
 14
1e+20
 24
1e+20
 34
1e+20
 15
-1e+20
 25
-1e+20
 35
-1e+20
146
0.0
 13
0.0
 23
0.0
 33
0.0
 16
1.0
 26
0.0
 36
0.0
 17
0.0
 27
1.0
 37
0.0
 76
1
330
1B
  0
MATERIAL
  5
1F
102
{ACAD_REACTORS
330
E
102
}
330
E
100
AcDbMaterial
  1
ByBlock
  2

 70
0
 40
1.0
 71
1
 41
1.0
 91
-1023410177
 42
1.0
 72
1
  3

 73
1
 74
1
 75
1
 44
0.5
 73
0
 45
1.0
 46
1.0
 77
1
  4

 78
1
 79
1
170
1
 48
1.0
171
1
  6

172
1
173
1
174
1
140
1.0
141
1.0
175
1
  7

176
1
177
1
178
1
143
1.0
179
1
  8

270
1
271
1
272
1
145
1.0
146
1.0
273
1
  9

274
1
275
1
276
1
 42
1.0
 72
1
  3

 73
1
 74
1
 75
1
 94
63
  0
MATERIAL
  5
20
102
{ACAD_REACTORS
330
E
102
}
330
E
100
AcDbMaterial
  1
ByLayer
  2

 70
0
 40
1.0
 71
1
 41
1.0
 91
-1023410177
 42
1.0
 72
1
  3

 73
1
 74
1
 75
1
 44
0.5
 73
0
 45
1.0
 46
1.0
 77
1
  4

 78
1
 79
1
170
1
 48
1.0
171
1
  6

172
1
173
1
174
1
140
1.0
141
1.0
175
1
  7

176
1
177
1
178
1
143
1.0
179
1
  8

270
1
271
1
272
1
145
1.0
146
1.0
273
1
  9

274
1
275
1
276
1
 42
1.0
 72
1
  3

 73
1
 74
1
 75
1
 94
63
  0
MATERIAL
  5
21
102
{ACAD_REACTORS
330
E
102
}
330
E
100
AcDbMaterial
  1
Global
  2

 70
0
 40
1.0
 71
1
 41
1.0
 91
-1023410177
 42
1.0
 72
1
  3

 73
1
 74
1
 75
1
 44
0.5
 73
0
 45
1.0
 46
1.0
 77
1
  4

 78
1
 79
1
170
1
 48
1.0
171
1
  6

172
1
173
1
174
1
140
1.0
141
1.0
175
1
  7

176
1
177
1
178
1
143
1.0
179
1
  8

270
1
271
1
272
1
145
1.0
146
1.0
273
1
  9

274
1
275
1
276
1
 42
1.0
 72
1
  3

 73
1
 74
1
 75
1
 94
63
  0
MLINESTYLE
  5
22
102
{ACAD_REACTORS
330
10
102
}
330
10
100
AcDbMlineStyle
  2
Standard
 70
0
  3

 62
256
 51
90.0
 52
90.0
 71
2
 49
0.5
 62
256
  6
BYLAYER
 49
-0.5
 62
256
  6
BYLAYER
  0
MLEADERSTYLE
  5
2C
102
{ACAD_REACTORS
330
F
102
}
330
F
100
AcDbMLeaderStyle
179
2
170
2
171
1
172
0
 90
2
 40
0.0
 41
0.0
173
1
 91
-1056964608
 92
-2
290
1
 42
2.0
291
1
 43
8.0
  3
Standard
 44
4.0
300

342
29
174
1
175
1
176
0
178
1
 93
-1056964608
 45
4.0
292
0
297
0
 46
4.0
 94
-1056964608
 47
1.0
 49
1.0
140
1.0
294
1
141
0.0
177
0
142
1.0
295
0
296
0
143
3.75
271
0
272
9
273
9
  0
DICTIONARY
  5
2D
330
A
100
AcDbDictionary
280
1
281
1
  3
CREATED_BY_EZDXF
350
2E
  3
WRITTEN_BY_EZDXF
350
B9
  0
DICTIONARYVAR
  5
2E
330
2D
100
DictionaryVariables
280
0
  1
1.4.4 @ 2026-06-09T00:17:50.055431+00:00
  0
RASTERVARIABLES
  5
37
102
{ACAD_REACTORS
330
A
102
}
330
A
100
AcDbRasterVariables
 90
0
 70
0
 71
1
 72
3
  0
DICTIONARY
  5
38
330
A
100
AcDbDictionary
281
1
  3
orthophotos/underlay/plan_AileOuest_0.png
350
39
  3
orthophotos/underlay/plan_AileOuest_1.png
350
3C
  3
orthophotos/underlay/plan_AileSudEst_0.png
350
3F
  3
orthophotos/underlay/plan_AileSudEst_1.png
350
42
  3
orthophotos/underlay/plan_Atelier_0.png
350
45
  3
orthophotos/underlay/plan_Atelier_1.png
350
48
  3
orthophotos/underlay/plan_Chapelle_0.png
350
4B
  3
orthophotos/underlay/plan_Chapelle_1.png
350
4E
  3
orthophotos/underlay/plan_Maisonprincipale_0.png
350
51
  3
orthophotos/underlay/plan_Maisonprincipale_1.png
350
54
  0
IMAGEDEF
  5
39
102
{ACAD_REACTORS
330
38
330
3B
102
}
330
38
100
AcDbRasterImageDef
 90
0
  1
orthophotos/underlay/plan_AileOuest_0.png
 10
1632.0
 20
2740.0
 11
0.01
 21
0.01
280
1
281
0
  0
IMAGEDEF_REACTOR
  5
3B
330
3A
100
AcDbRasterImageDefReactor
 90
2
330
3A
  0
IMAGEDEF
  5
3C
102
{ACAD_REACTORS
330
38
330
3E
102
}
330
38
100
AcDbRasterImageDef
 90
0
  1
orthophotos/underlay/plan_AileOuest_1.png
 10
1632.0
 20
2740.0
 11
0.01
 21
0.01
280
1
281
0
  0
IMAGEDEF_REACTOR
  5
3E
330
3D
100
AcDbRasterImageDefReactor
 90
2
330
3D
  0
IMAGEDEF
  5
3F
102
{ACAD_REACTORS
330
38
330
41
102
}
330
38
100
AcDbRasterImageDef
 90
0
  1
orthophotos/underlay/plan_AileSudEst_0.png
 10
2796.0
 20
2789.0
 11
0.01
 21
0.01
280
1
281
0
  0
IMAGEDEF_REACTOR
  5
41
330
40
100
AcDbRasterImageDefReactor
 90
2
330
40
  0
IMAGEDEF
  5
42
102
{ACAD_REACTORS
330
38
330
44
102
}
330
38
100
AcDbRasterImageDef
 90
0
  1
orthophotos/underlay/plan_AileSudEst_1.png
 10
2796.0
 20
2789.0
 11
0.01
 21
0.01
280
1
281
0
  0
IMAGEDEF_REACTOR
  5
44
330
43
100
AcDbRasterImageDefReactor
 90
2
330
43
  0
IMAGEDEF
  5
45
102
{ACAD_REACTORS
330
38
330
47
102
}
330
38
100
AcDbRasterImageDef
 90
0
  1
orthophotos/underlay/plan_Atelier_0.png
 10
2790.0
 20
1229.0
 11
0.01
 21
0.01
280
1
281
0
  0
IMAGEDEF_REACTOR
  5
47
330
46
100
AcDbRasterImageDefReactor
 90
2
330
46
  0
IMAGEDEF
  5
48
102
{ACAD_REACTORS
330
38
330
4A
102
}
330
38
100
AcDbRasterImageDef
 90
0
  1
orthophotos/underlay/plan_Atelier_1.png
 10
2790.0
 20
1229.0
 11
0.01
 21
0.01
280
1
281
0
  0
IMAGEDEF_REACTOR
  5
4A
330
49
100
AcDbRasterImageDefReactor
 90
2
330
49
  0
IMAGEDEF
  5
4B
102
{ACAD_REACTORS
330
38
330
4D
102
}
330
38
100
AcDbRasterImageDef
 90
0
  1
orthophotos/underlay/plan_Chapelle_0.png
 10
2116.0
 20
1663.0
 11
0.01
 21
0.01
280
1
281
0
  0
IMAGEDEF_REACTOR
  5
4D
330
4C
100
AcDbRasterImageDefReactor
 90
2
330
4C
  0
IMAGEDEF
  5
4E
102
{ACAD_REACTORS
330
38
330
50
102
}
330
38
100
AcDbRasterImageDef
 90
0
  1
orthophotos/underlay/plan_Chapelle_1.png
 10
2116.0
 20
1663.0
 11
0.01
 21
0.01
280
1
281
0
  0
IMAGEDEF_REACTOR
  5
50
330
4F
100
AcDbRasterImageDefReactor
 90
2
330
4F
  0
IMAGEDEF
  5
51
102
{ACAD_REACTORS
330
38
330
53
102
}
330
38
100
AcDbRasterImageDef
 90
0
  1
orthophotos/underlay/plan_Maisonprincipale_0.png
 10
1883.0
 20
1937.0
 11
0.01
 21
0.01
280
1
281
0
  0
IMAGEDEF_REACTOR
  5
53
330
52
100
AcDbRasterImageDefReactor
 90
2
330
52
  0
IMAGEDEF
  5
54
102
{ACAD_REACTORS
330
38
330
56
102
}
330
38
100
AcDbRasterImageDef
 90
0
  1
orthophotos/underlay/plan_Maisonprincipale_1.png
 10
1883.0
 20
1937.0
 11
0.01
 21
0.01
280
1
281
0
  0
IMAGEDEF_REACTOR
  5
56
330
55
100
AcDbRasterImageDefReactor
 90
2
330
55
  0
DICTIONARYVAR
  5
B9
330
2D
100
DictionaryVariables
280
0
  1
1.4.4 @ 2026-06-09T00:17:50.057890+00:00
  0
ENDSEC
  0
EOF
