  0
SECTION
  2
HEADER
  9
$ACADVER
  1
AC1032
  9
$ACADMAINTVER
 90
4
  9
$DWGCODEPAGE
  3
ANSI_1252
  9
$LASTSAVEDBY
  1
ezdxf
  9
$REQUIREDVERSIONS
160
0
  9
$INSBASE
 10
0.0
 20
0.0
 30
0.0
  9
$EXTMIN
 10
1e+20
 20
1e+20
 30
1e+20
  9
$EXTMAX
 10
-1e+20
 20
-1e+20
 30
-1e+20
  9
$LIMMIN
 10
0.0
 20
0.0
  9
$LIMMAX
 10
420.0
 20
297.0
  9
$ORTHOMODE
 70
0
  9
$REGENMODE
 70
1
  9
$FILLMODE
 70
1
  9
$QTEXTMODE
 70
0
  9
$MIRRTEXT
 70
1
  9
$LTSCALE
 40
1.0
  9
$ATTMODE
 70
1
  9
$TEXTSIZE
 40
2.5
  9
$TRACEWID
 40
1.0
  9
$TEXTSTYLE
  7
Standard
  9
$CLAYER
  8
0
  9
$CELTYPE
  6
ByLayer
  9
$CECOLOR
 62
256
  9
$CELTSCALE
 40
1.0
  9
$DISPSILH
 70
0
  9
$DIMSCALE
 40
1.0
  9
$DIMASZ
 40
2.5
  9
$DIMEXO
 40
0.625
  9
$DIMDLI
 40
3.75
  9
$DIMRND
 40
0.0
  9
$DIMDLE
 40
0.0
  9
$DIMEXE
 40
1.25
  9
$DIMTP
 40
0.0
  9
$DIMTM
 40
0.0
  9
$DIMTXT
 40
2.5
  9
$DIMCEN
 40
2.5
  9
$DIMTSZ
 40
0.0
  9
$DIMTOL
 70
0
  9
$DIMLIM
 70
0
  9
$DIMTIH
 70
0
  9
$DIMTOH
 70
0
  9
$DIMSE1
 70
0
  9
$DIMSE2
 70
0
  9
$DIMTAD
 70
1
  9
$DIMZIN
 70
8
  9
$DIMBLK
  1

  9
$DIMASO
 70
1
  9
$DIMSHO
 70
1
  9
$DIMPOST
  1

  9
$DIMAPOST
  1

  9
$DIMALT
 70
0
  9
$DIMALTD
 70
3
  9
$DIMALTF
 40
0.03937007874
  9
$DIMLFAC
 40
1.0
  9
$DIMTOFL
 70
1
  9
$DIMTVP
 40
0.0
  9
$DIMTIX
 70
0
  9
$DIMSOXD
 70
0
  9
$DIMSAH
 70
0
  9
$DIMBLK1
  1

  9
$DIMBLK2
  1

  9
$DIMSTYLE
  2
ISO-25
  9
$DIMCLRD
 70
0
  9
$DIMCLRE
 70
0
  9
$DIMCLRT
 70
0
  9
$DIMTFAC
 40
1.0
  9
$DIMGAP
 40
0.625
  9
$DIMJUST
 70
0
  9
$DIMSD1
 70
0
  9
$DIMSD2
 70
0
  9
$DIMTOLJ
 70
0
  9
$DIMTZIN
 70
8
  9
$DIMALTZ
 70
0
  9
$DIMALTTZ
 70
0
  9
$DIMUPT
 70
0
  9
$DIMDEC
 70
2
  9
$DIMTDEC
 70
2
  9
$DIMALTU
 70
2
  9
$DIMALTTD
 70
3
  9
$DIMTXSTY
  7
Standard
  9
$DIMAUNIT
 70
0
  9
$DIMADEC
 70
0
  9
$DIMALTRND
 40
0.0
  9
$DIMAZIN
 70
0
  9
$DIMDSEP
 70
44
  9
$DIMATFIT
 70
3
  9
$DIMFRAC
 70
0
  9
$DIMLDRBLK
  1

  9
$DIMLUNIT
 70
2
  9
$DIMLWD
 70
-2
  9
$DIMLWE
 70
-2
  9
$DIMTMOVE
 70
0
  9
$DIMFXL
 40
1.0
  9
$DIMFXLON
 70
0
  9
$DIMJOGANG
 40
0.785398163397
  9
$DIMTFILL
 70
0
  9
$DIMTFILLCLR
 70
0
  9
$DIMARCSYM
 70
0
  9
$DIMLTYPE
  6

  9
$DIMLTEX1
  6

  9
$DIMLTEX2
  6

  9
$DIMTXTDIRECTION
 70
0
  9
$LUNITS
 70
2
  9
$LUPREC
 70
4
  9
$SKETCHINC
 40
1.0
  9
$FILLETRAD
 40
10.0
  9
$AUNITS
 70
0
  9
$AUPREC
 70
2
  9
$MENU
  1
.
  9
$ELEVATION
 40
0.0
  9
$PELEVATION
 40
0.0
  9
$THICKNESS
 40
0.0
  9
$LIMCHECK
 70
0
  9
$CHAMFERA
 40
0.0
  9
$CHAMFERB
 40
0.0
  9
$CHAMFERC
 40
0.0
  9
$CHAMFERD
 40
0.0
  9
$SKPOLY
 70
0
  9
$TDCREATE
 40
2461201.1210300927
  9
$TDUCREATE
 40
2458532.153996898
  9
$TDUPDATE
 40
2461201.1210300927
  9
$TDUUPDATE
 40
2458532.1544311
  9
$TDINDWG
 40
0.0
  9
$TDUSRTIMER
 40
0.0
  9
$USRTIMER
 70
1
  9
$ANGBASE
 50
0.0
  9
$ANGDIR
 70
0
  9
$PDMODE
 70
0
  9
$PDSIZE
 40
0.0
  9
$PLINEWID
 40
0.0
  9
$SPLFRAME
 70
0
  9
$SPLINETYPE
 70
6
  9
$SPLINESEGS
 70
8
  9
$HANDSEED
  5
E9
  9
$SURFTAB1
 70
6
  9
$SURFTAB2
 70
6
  9
$SURFTYPE
 70
6
  9
$SURFU
 70
6
  9
$SURFV
 70
6
  9
$UCSBASE
  2

  9
$UCSNAME
  2

  9
$UCSORG
 10
0.0
 20
0.0
 30
0.0
  9
$UCSXDIR
 10
1.0
 20
0.0
 30
0.0
  9
$UCSYDIR
 10
0.0
 20
1.0
 30
0.0
  9
$UCSORTHOREF
  2

  9
$UCSORTHOVIEW
 70
0
  9
$UCSORGTOP
 10
0.0
 20
0.0
 30
0.0
  9
$UCSORGBOTTOM
 10
0.0
 20
0.0
 30
0.0
  9
$UCSORGLEFT
 10
0.0
 20
0.0
 30
0.0
  9
$UCSORGRIGHT
 10
0.0
 20
0.0
 30
0.0
  9
$UCSORGFRONT
 10
0.0
 20
0.0
 30
0.0
  9
$UCSORGBACK
 10
0.0
 20
0.0
 30
0.0
  9
$PUCSBASE
  2

  9
$PUCSNAME
  2

  9
$PUCSORG
 10
0.0
 20
0.0
 30
0.0
  9
$PUCSXDIR
 10
1.0
 20
0.0
 30
0.0
  9
$PUCSYDIR
 10
0.0
 20
1.0
 30
0.0
  9
$PUCSORTHOREF
  2

  9
$PUCSORTHOVIEW
 70
0
  9
$PUCSORGTOP
 10
0.0
 20
0.0
 30
0.0
  9
$PUCSORGBOTTOM
 10
0.0
 20
0.0
 30
0.0
  9
$PUCSORGLEFT
 10
0.0
 20
0.0
 30
0.0
  9
$PUCSORGRIGHT
 10
0.0
 20
0.0
 30
0.0
  9
$PUCSORGFRONT
 10
0.0
 20
0.0
 30
0.0
  9
$PUCSORGBACK
 10
0.0
 20
0.0
 30
0.0
  9
$USERI1
 70
0
  9
$USERI2
 70
0
  9
$USERI3
 70
0
  9
$USERI4
 70
0
  9
$USERI5
 70
0
  9
$USERR1
 40
0.0
  9
$USERR2
 40
0.0
  9
$USERR3
 40
0.0
  9
$USERR4
 40
0.0
  9
$USERR5
 40
0.0
  9
$WORLDVIEW
 70
1
  9
$SHADEDGE
 70
3
  9
$SHADEDIF
 70
70
  9
$TILEMODE
 70
1
  9
$MAXACTVP
 70
64
  9
$PINSBASE
 10
0.0
 20
0.0
 30
0.0
  9
$PLIMCHECK
 70
0
  9
$PEXTMIN
 10
1e+20
 20
1e+20
 30
1e+20
  9
$PEXTMAX
 10
-1e+20
 20
-1e+20
 30
-1e+20
  9
$PLIMMIN
 10
0.0
 20
0.0
  9
$PLIMMAX
 10
420.0
 20
297.0
  9
$UNITMODE
 70
0
  9
$VISRETAIN
 70
1
  9
$PLINEGEN
 70
0
  9
$PSLTSCALE
 70
1
  9
$TREEDEPTH
 70
3020
  9
$CMLSTYLE
  2
Standard
  9
$CMLJUST
 70
0
  9
$CMLSCALE
 40
20.0
  9
$PROXYGRAPHICS
 70
1
  9
$MEASUREMENT
 70
1
  9
$CELWEIGHT
370
-1
  9
$ENDCAPS
280
0
  9
$JOINSTYLE
280
0
  9
$LWDISPLAY
290
0
  9
$INSUNITS
 70
6
  9
$HYPERLINKBASE
  1

  9
$STYLESHEET
  1

  9
$XEDIT
290
1
  9
$CEPSNTYPE
380
0
  9
$PSTYLEMODE
290
1
  9
$FINGERPRINTGUID
  2
{11AA196F-B6C3-4950-9737-76C7B5175E26}
  9
$VERSIONGUID
  2
{975528E9-1198-4D72-8514-F2ACC81F603A}
  9
$EXTNAMES
290
1
  9
$PSVPSCALE
 40
0.0
  9
$OLESTARTUP
290
0
  9
$SORTENTS
280
127
  9
$INDEXCTL
280
0
  9
$HIDETEXT
280
1
  9
$XCLIPFRAME
280
1
  9
$HALOGAP
280
0
  9
$OBSCOLOR
 70
257
  9
$OBSLTYPE
280
0
  9
$INTERSECTIONDISPLAY
280
0
  9
$INTERSECTIONCOLOR
 70
257
  9
$DIMASSOC
280
2
  9
$PROJECTNAME
  1

  9
$CAMERADISPLAY
290
0
  9
$LENSLENGTH
 40
50.0
  9
$CAMERAHEIGHT
 40
0.0
  9
$STEPSPERSEC
 40
24.0
  9
$STEPSIZE
 40
100.0
  9
$3DDWFPREC
 40
2.0
  9
$PSOLWIDTH
 40
0.005
  9
$PSOLHEIGHT
 40
0.08
  9
$LOFTANG1
 40
1.570796326795
  9
$LOFTANG2
 40
1.570796326795
  9
$LOFTMAG1
 40
0.0
  9
$LOFTMAG2
 40
0.0
  9
$LOFTPARAM
 70
7
  9
$LOFTNORMALS
280
1
  9
$LATITUDE
 40
37.795
  9
$LONGITUDE
 40
-122.394
  9
$NORTHDIRECTION
 40
0.0
  9
$TIMEZONE
 70
-8000
  9
$LIGHTGLYPHDISPLAY
280
1
  9
$TILEMODELIGHTSYNCH
280
1
  9
$CMATERIAL
347
20
  9
$SOLIDHIST
280
0
  9
$SHOWHIST
280
1
  9
$DWFFRAME
280
2
  9
$DGNFRAME
280
2
  9
$REALWORLDSCALE
290
1
  9
$INTERFERECOLOR
 62
256
  9
$CSHADOW
280
0
  9
$SHADOWPLANELOCATION
 40
0.0
  0
ENDSEC
  0
SECTION
  2
CLASSES
  0
CLASS
  1
ACDBDICTIONARYWDFLT
  2
AcDbDictionaryWithDefault
  3
ObjectDBX Classes
 90
0
 91
0
280
0
281
0
  0
CLASS
  1
SUN
  2
AcDbSun
  3
SCENEOE
 90
1153
 91
0
280
0
281
0
  0
CLASS
  1
VISUALSTYLE
  2
AcDbVisualStyle
  3
ObjectDBX Classes
 90
4095
 91
0
280
0
281
0
  0
CLASS
  1
MATERIAL
  2
AcDbMaterial
  3
ObjectDBX Classes
 90
1153
 91
0
280
0
281
0
  0
CLASS
  1
SCALE
  2
AcDbScale
  3
ObjectDBX Classes
 90
1153
 91
0
280
0
281
0
  0
CLASS
  1
TABLESTYLE
  2
AcDbTableStyle
  3
ObjectDBX Classes
 90
4095
 91
0
280
0
281
0
  0
CLASS
  1
MLEADERSTYLE
  2
AcDbMLeaderStyle
  3
ACDB_MLEADERSTYLE_CLASS
 90
4095
 91
0
280
0
281
0
  0
CLASS
  1
DICTIONARYVAR
  2
AcDbDictionaryVar
  3
ObjectDBX Classes
 90
0
 91
0
280
0
281
0
  0
CLASS
  1
CELLSTYLEMAP
  2
AcDbCellStyleMap
  3
ObjectDBX Classes
 90
1152
 91
0
280
0
281
0
  0
CLASS
  1
MENTALRAYRENDERSETTINGS
  2
AcDbMentalRayRenderSettings
  3
SCENEOE
 90
1024
 91
0
280
0
281
0
  0
CLASS
  1
ACDBDETAILVIEWSTYLE
  2
AcDbDetailViewStyle
  3
ObjectDBX Classes
 90
1025
 91
0
280
0
281
0
  0
CLASS
  1
ACDBSECTIONVIEWSTYLE
  2
AcDbSectionViewStyle
  3
ObjectDBX Classes
 90
1025
 91
0
280
0
281
0
  0
CLASS
  1
RASTERVARIABLES
  2
AcDbRasterVariables
  3
ISM
 90
0
 91
0
280
0
281
0
  0
CLASS
  1
IMAGE
  2
AcDbRasterImage
  3
ISM
 90
2175
 91
0
280
0
281
1
  0
CLASS
  1
IMAGEDEF
  2
AcDbRasterImageDef
  3
ISM
 90
0
 91
0
280
0
281
0
  0
CLASS
  1
IMAGEDEF_REACTOR
  2
AcDbRasterImageDefReactor
  3
ISM
 90
1
 91
0
280
0
281
0
  0
CLASS
  1
ACDBPLACEHOLDER
  2
AcDbPlaceHolder
  3
ObjectDBX Classes
 90
0
 91
0
280
0
281
0
  0
CLASS
  1
LAYOUT
  2
AcDbLayout
  3
ObjectDBX Classes
 90
0
 91
0
280
0
281
0
  0
ENDSEC
  0
SECTION
  2
TABLES
  0
TABLE
  2
VPORT
  5
8
330
0
100
AcDbSymbolTable
 70
1
  0
VPORT
  5
23
330
8
100
AcDbSymbolTableRecord
100
AcDbViewportTableRecord
  2
*Active
 70
0
 10
0.0
 20
0.0
 11
1.0
 21
1.0
 12
0.0
 22
0.0
 13
0.0
 23
0.0
 14
0.5
 24
0.5
 15
0.5
 25
0.5
 16
0.0
 26
0.0
 36
1.0
 17
0.0
 27
0.0
 37
0.0
 40
1000.0
 41
1.34
 42
50.0
 43
0.0
 44
0.0
 50
0.0
 51
0.0
 71
0
 72
1000
 73
1
 74
3
 75
0
 76
0
 77
0
 78
0
281
0
 65
0
146
0.0
  0
ENDTAB
  0
TABLE
  2
LTYPE
  5
2
330
0
100
AcDbSymbolTable
 70
3
  0
LTYPE
  5
24
330
2
100
AcDbSymbolTableRecord
100
AcDbLinetypeTableRecord
  2
ByBlock
 70
0
  3

 72
65
 73
0
 40
0.0
  0
LTYPE
  5
25
330
2
100
AcDbSymbolTableRecord
100
AcDbLinetypeTableRecord
  2
ByLayer
 70
0
  3

 72
65
 73
0
 40
0.0
  0
LTYPE
  5
26
330
2
100
AcDbSymbolTableRecord
100
AcDbLinetypeTableRecord
  2
Continuous
 70
0
  3

 72
65
 73
0
 40
0.0
  0
ENDTAB
  0
TABLE
  2
LAYER
  5
1
330
0
100
AcDbSymbolTable
 70
25
  0
LAYER
  5
27
330
1
100
AcDbSymbolTableRecord
100
AcDbLayerTableRecord
  2
0
 70
0
 62
7
  6
Continuous
370
-3
390
13
347
21
  0
LAYER
  5
28
330
1
100
AcDbSymbolTableRecord
100
AcDbLayerTableRecord
  2
Defpoints
 70
0
 62
7
  6
Continuous
290
0
370
-3
390
13
347
21
  0
LAYER
  5
2F
330
1
100
AcDbSymbolTableRecord
100
AcDbLayerTableRecord
  2
ELEV-AileOuest_long
 70
0
 62
7
  6
Continuous
370
-3
390
13
347
21
  0
LAYER
  5
35
330
1
100
AcDbSymbolTableRecord
100
AcDbLayerTableRecord
  2
ELEV-ANNOT
 70
0
 62
1
  6
Continuous
370
-3
390
13
347
21
  0
LAYER
  5
36
330
1
100
AcDbSymbolTableRecord
100
AcDbLayerTableRecord
  2
Z-SCALE
 70
0
 62
5
  6
Continuous
370
-3
390
13
347
21
  0
LAYER
  5
37
330
1
100
AcDbSymbolTableRecord
100
AcDbLayerTableRecord
  2
NOTES
 70
0
 62
2
  6
Continuous
370
-3
390
13
347
21
  0
LAYER
  5
3C
330
1
100
AcDbSymbolTableRecord
100
AcDbLayerTableRecord
  2
ELEV-AileOuest_short
 70
0
 62
7
  6
Continuous
370
-3
390
13
347
21
  0
LAYER
  5
44
330
1
100
AcDbSymbolTableRecord
100
AcDbLayerTableRecord
  2
COUPE-AileOuest_transv
 70
0
 62
5
  6
Continuous
370
-3
390
13
347
21
  0
LAYER
  5
4A
330
1
100
AcDbSymbolTableRecord
100
AcDbLayerTableRecord
  2
COUPE-AileOuest_longit
 70
0
 62
5
  6
Continuous
370
-3
390
13
347
21
  0
LAYER
  5
50
330
1
100
AcDbSymbolTableRecord
100
AcDbLayerTableRecord
  2
ELEV-AileSudEst_long
 70
0
 62
7
  6
Continuous
370
-3
390
13
347
21
  0
LAYER
  5
58
330
1
100
AcDbSymbolTableRecord
100
AcDbLayerTableRecord
  2
ELEV-AileSudEst_short
 70
0
 62
7
  6
Continuous
370
-3
390
13
347
21
  0
LAYER
  5
60
330
1
100
AcDbSymbolTableRecord
100
AcDbLayerTableRecord
  2
COUPE-AileSudEst_transv_arm1
 70
0
 62
5
  6
Continuous
370
-3
390
13
347
21
  0
LAYER
  5
66
330
1
100
AcDbSymbolTableRecord
100
AcDbLayerTableRecord
  2
COUPE-AileSudEst_transv_arm2
 70
0
 62
5
  6
Continuous
370
-3
390
13
347
21
  0
LAYER
  5
6C
330
1
100
AcDbSymbolTableRecord
100
AcDbLayerTableRecord
  2
ELEV-Atelier_long
 70
0
 62
7
  6
Continuous
370
-3
390
13
347
21
  0
LAYER
  5
74
330
1
100
AcDbSymbolTableRecord
100
AcDbLayerTableRecord
  2
ELEV-Atelier_short
 70
0
 62
7
  6
Continuous
370
-3
390
13
347
21
  0
LAYER
  5
7C
330
1
100
AcDbSymbolTableRecord
100
AcDbLayerTableRecord
  2
COUPE-Atelier_transv
 70
0
 62
5
  6
Continuous
370
-3
390
13
347
21
  0
LAYER
  5
82
330
1
100
AcDbSymbolTableRecord
100
AcDbLayerTableRecord
  2
COUPE-Atelier_longit
 70
0
 62
5
  6
Continuous
370
-3
390
13
347
21
  0
LAYER
  5
88
330
1
100
AcDbSymbolTableRecord
100
AcDbLayerTableRecord
  2
ELEV-Chapelle_long
 70
0
 62
7
  6
Continuous
370
-3
390
13
347
21
  0
LAYER
  5
90
330
1
100
AcDbSymbolTableRecord
100
AcDbLayerTableRecord
  2
ELEV-Chapelle_short
 70
0
 62
7
  6
Continuous
370
-3
390
13
347
21
  0
LAYER
  5
98
330
1
100
AcDbSymbolTableRecord
100
AcDbLayerTableRecord
  2
COUPE-Chapelle_transv
 70
0
 62
5
  6
Continuous
370
-3
390
13
347
21
  0
LAYER
  5
9E
330
1
100
AcDbSymbolTableRecord
100
AcDbLayerTableRecord
  2
COUPE-Chapelle_longit
 70
0
 62
5
  6
Continuous
370
-3
390
13
347
21
  0
LAYER
  5
A4
330
1
100
AcDbSymbolTableRecord
100
AcDbLayerTableRecord
  2
ELEV-Maisonprincipale_long
 70
0
 62
7
  6
Continuous
370
-3
390
13
347
21
  0
LAYER
  5
AC
330
1
100
AcDbSymbolTableRecord
100
AcDbLayerTableRecord
  2
ELEV-Maisonprincipale_short
 70
0
 62
7
  6
Continuous
370
-3
390
13
347
21
  0
LAYER
  5
B4
330
1
100
AcDbSymbolTableRecord
100
AcDbLayerTableRecord
  2
COUPE-Maisonprincipale_transv
 70
0
 62
5
  6
Continuous
370
-3
390
13
347
21
  0
LAYER
  5
BA
330
1
100
AcDbSymbolTableRecord
100
AcDbLayerTableRecord
  2
COUPE-Maisonprincipale_longit
 70
0
 62
5
  6
Continuous
370
-3
390
13
347
21
  0
ENDTAB
  0
TABLE
  2
STYLE
  5
5
330
0
100
AcDbSymbolTable
 70
1
  0
STYLE
  5
29
330
5
100
AcDbSymbolTableRecord
100
AcDbTextStyleTableRecord
  2
Standard
 70
0
 40
0.0
 41
1.0
 50
0.0
 71
0
 42
2.5
  3
txt
  4

  0
ENDTAB
  0
TABLE
  2
VIEW
  5
7
330
0
100
AcDbSymbolTable
 70
0
  0
ENDTAB
  0
TABLE
  2
UCS
  5
6
330
0
100
AcDbSymbolTable
 70
0
  0
ENDTAB
  0
TABLE
  2
APPID
  5
3
330
0
100
AcDbSymbolTable
 70
3
  0
APPID
  5
2A
330
3
100
AcDbSymbolTableRecord
100
AcDbRegAppTableRecord
  2
ACAD
 70
0
  0
APPID
  5
E6
330
3
100
AcDbSymbolTableRecord
100
AcDbRegAppTableRecord
  2
HATCHBACKGROUNDCOLOR
 70
0
  0
APPID
  5
E7
330
3
100
AcDbSymbolTableRecord
100
AcDbRegAppTableRecord
  2
EZDXF
 70
0
  0
ENDTAB
  0
TABLE
  2
DIMSTYLE
  5
4
330
0
100
AcDbSymbolTable
 70
1
100
AcDbDimStyleTable
  0
DIMSTYLE
105
2B
330
4
100
AcDbSymbolTableRecord
100
AcDbDimStyleTableRecord
  2
Standard
 70
0
 40
1.0
 41
2.5
 42
0.625
 43
3.75
 44
1.25
 45
0.0
 46
0.0
 47
0.0
 48
0.0
 49
2.5
140
2.5
141
2.5
142
0.0
143
0.03937007874
144
1.0
145
0.0
146
1.0
147
0.625
148
0.0
 69
0
 70
0
 71
0
 72
0
 73
0
 74
0
 75
0
 76
0
 77
1
 78
8
 79
3
170
0
171
3
172
1
173
0
174
0
175
0
176
0
177
0
178
0
179
2
271
2
272
2
273
2
274
3
275
0
276
0
277
2
278
44
279
0
280
0
281
0
282
0
283
0
284
8
285
0
286
0
288
0
289
3
290
0
371
-2
372
-2
  0
ENDTAB
  0
TABLE
  2
BLOCK_RECORD
  5
9
330
0
100
AcDbSymbolTable
 70
2
  0
BLOCK_RECORD
  5
17
330
9
100
AcDbSymbolTableRecord
100
AcDbBlockTableRecord
  2
*Model_Space
340
1A
 70
0
280
1
281
0
  0
BLOCK_RECORD
  5
1B
330
9
100
AcDbSymbolTableRecord
100
AcDbBlockTableRecord
  2
*Paper_Space
340
1E
 70
0
280
1
281
0
  0
ENDTAB
  0
ENDSEC
  0
SECTION
  2
BLOCKS
  0
BLOCK
  5
18
330
17
100
AcDbEntity
  8
0
100
AcDbBlockBegin
  2
*Model_Space
 70
0
 10
0.0
 20
0.0
 30
0.0
  3
*Model_Space
  1

  0
ENDBLK
  5
19
330
17
100
AcDbEntity
  8
0
100
AcDbBlockEnd
  0
BLOCK
  5
1C
330
1B
100
AcDbEntity
  8
0
100
AcDbBlockBegin
  2
*Paper_Space
 70
0
 10
0.0
 20
0.0
 30
0.0
  3
*Paper_Space
  1

  0
ENDBLK
  5
1D
330
1B
100
AcDbEntity
  8
0
100
AcDbBlockEnd
  0
ENDSEC
  0
SECTION
  2
ENTITIES
  0
IMAGE
  5
33
330
17
100
AcDbEntity
  8
ELEV-AileOuest_long
100
AcDbRasterImage
 90
0
 10
0.0
 20
-2.0
 30
0.0
 11
0.020827684623617553
 21
0.0
 31
0.0
 12
1.2741123369342109e-18
 22
0.0208078335373317
 32
0.0
 13
2803.0
 23
817.0
340
32
 70
3
280
0
281
50
282
50
283
0
360
34
 71
1
 91
2
 14
-0.5
 24
-0.5
 14
2802.5
 24
816.5
290
0
  0
TEXT
  5
38
330
17
100
AcDbEntity
  8
ELEV-ANNOT
100
AcDbText
 10
0.0
 20
15.4
 30
0.0
 40
0.45
  1
AileOuest_long
 11
0.0
 21
15.4
 31
0.0
100
AcDbText
  0
LWPOLYLINE
  5
39
330
17
100
AcDbEntity
  8
ELEV-ANNOT
100
AcDbPolyline
 90
2
 70
0
 10
0.0
 20
0.0
 10
58.38
 20
0.0
  0
LWPOLYLINE
  5
3A
330
17
100
AcDbEntity
  8
ELEV-ANNOT
100
AcDbPolyline
 90
2
 70
0
 10
0.0
 20
12.79
 10
58.38
 20
12.79
  0
TEXT
  5
3B
330
17
100
AcDbEntity
  8
ELEV-ANNOT
100
AcDbText
 10
0.0
 20
12.889999999999999
 30
0.0
 40
0.35
  1
egout~12.8m
 11
0.0
 21
12.889999999999999
 31
0.0
100
AcDbText
  0
IMAGE
  5
3E
330
17
100
AcDbEntity
  8
ELEV-AileOuest_short
100
AcDbRasterImage
 90
0
 10
61.38
 20
-2.0
 30
0.0
 11
0.01428335170893054
 21
0.0
 31
0.0
 12
8.740132487617551e-19
 22
0.014273719563392108
 32
0.0
 13
1814.0
 23
1191.0
340
3D
 70
3
280
0
281
50
282
50
283
0
360
3F
 71
1
 91
2
 14
-0.5
 24
-0.5
 14
1813.5
 24
1190.5
290
0
  0
TEXT
  5
40
330
17
100
AcDbEntity
  8
ELEV-ANNOT
100
AcDbText
 10
61.38
 20
15.4
 30
0.0
 40
0.45
  1
AileOuest_short
 11
61.38
 21
15.4
 31
0.0
100
AcDbText
  0
LWPOLYLINE
  5
41
330
17
100
AcDbEntity
  8
ELEV-ANNOT
100
AcDbPolyline
 90
2
 70
0
 10
61.38
 20
0.0
 10
87.29
 20
0.0
  0
LWPOLYLINE
  5
42
330
17
100
AcDbEntity
  8
ELEV-ANNOT
100
AcDbPolyline
 90
2
 70
0
 10
61.38
 20
14.86
 10
87.29
 20
14.86
  0
TEXT
  5
43
330
17
100
AcDbEntity
  8
ELEV-ANNOT
100
AcDbText
 10
61.38
 20
14.959999999999999
 30
0.0
 40
0.35
  1
egout~14.9m
 11
61.38
 21
14.959999999999999
 31
0.0
100
AcDbText
  0
IMAGE
  5
46
330
17
100
AcDbEntity
  8
COUPE-AileOuest_transv
100
AcDbRasterImage
 90
0
 10
90.29
 20
-2.0
 30
0.0
 11
0.01428335170893054
 21
0.0
 31
0.0
 12
8.740132487617551e-19
 22
0.014273719563392108
 32
0.0
 13
1814.0
 23
1191.0
340
45
 70
3
280
0
281
50
282
50
283
0
360
47
 71
1
 91
2
 14
-0.5
 24
-0.5
 14
1813.5
 24
1190.5
290
0
  0
TEXT
  5
48
330
17
100
AcDbEntity
  8
ELEV-ANNOT
100
AcDbText
 10
90.29
 20
15.4
 30
0.0
 40
0.45
  1
AileOuest_transv
 11
90.29
 21
15.4
 31
0.0
100
AcDbText
  0
LWPOLYLINE
  5
49
330
17
100
AcDbEntity
  8
ELEV-ANNOT
100
AcDbPolyline
 90
2
 70
0
 10
90.29
 20
0.0
 10
116.2
 20
0.0
  0
IMAGE
  5
4C
330
17
100
AcDbEntity
  8
COUPE-AileOuest_longit
100
AcDbRasterImage
 90
0
 10
119.2
 20
-2.0
 30
0.0
 11
0.020827684623617553
 21
0.0
 31
0.0
 12
1.2741123369342109e-18
 22
0.0208078335373317
 32
0.0
 13
2803.0
 23
817.0
340
4B
 70
3
280
0
281
50
282
50
283
0
360
4D
 71
1
 91
2
 14
-0.5
 24
-0.5
 14
2802.5
 24
816.5
290
0
  0
TEXT
  5
4E
330
17
100
AcDbEntity
  8
ELEV-ANNOT
100
AcDbText
 10
119.2
 20
15.4
 30
0.0
 40
0.45
  1
AileOuest_longit
 11
119.2
 21
15.4
 31
0.0
100
AcDbText
  0
LWPOLYLINE
  5
4F
330
17
100
AcDbEntity
  8
ELEV-ANNOT
100
AcDbPolyline
 90
2
 70
0
 10
119.2
 20
0.0
 10
177.58
 20
0.0
  0
IMAGE
  5
52
330
17
100
AcDbEntity
  8
ELEV-AileSudEst_long
100
AcDbRasterImage
 90
0
 10
185.58
 20
-2.0
 30
0.0
 11
0.01428518926865123
 21
0.0
 31
0.0
 12
8.747477136766809e-19
 22
0.014285714285714285
 32
0.0
 13
2721.0
 23
1190.0
340
51
 70
3
280
0
281
50
282
50
283
0
360
53
 71
1
 91
2
 14
-0.5
 24
-0.5
 14
2720.5
 24
1189.5
290
0
  0
TEXT
  5
54
330
17
100
AcDbEntity
  8
ELEV-ANNOT
100
AcDbText
 10
185.58
 20
15.4
 30
0.0
 40
0.45
  1
AileSudEst_long
 11
185.58
 21
15.4
 31
0.0
100
AcDbText
  0
LWPOLYLINE
  5
55
330
17
100
AcDbEntity
  8
ELEV-ANNOT
100
AcDbPolyline
 90
2
 70
0
 10
185.58
 20
0.0
 10
224.45000000000002
 20
0.0
  0
LWPOLYLINE
  5
56
330
17
100
AcDbEntity
  8
ELEV-ANNOT
100
AcDbPolyline
 90
2
 70
0
 10
185.58
 20
9.89
 10
224.45000000000002
 20
9.89
  0
TEXT
  5
57
330
17
100
AcDbEntity
  8
ELEV-ANNOT
100
AcDbText
 10
185.58
 20
9.99
 30
0.0
 40
0.35
  1
egout~9.9m
 11
185.58
 21
9.99
 31
0.0
100
AcDbText
  0
IMAGE
  5
5A
330
17
100
AcDbEntity
  8
ELEV-AileSudEst_short
100
AcDbRasterImage
 90
0
 10
227.45000000000002
 20
-2.0
 30
0.0
 11
0.014283185840707965
 21
0.0
 31
0.0
 12
8.740132487617551e-19
 22
0.014273719563392108
 32
0.0
 13
2260.0
 23
1191.0
340
59
 70
3
280
0
281
50
282
50
283
0
360
5B
 71
1
 91
2
 14
-0.5
 24
-0.5
 14
2259.5
 24
1190.5
290
0
  0
TEXT
  5
5C
330
17
100
AcDbEntity
  8
ELEV-ANNOT
100
AcDbText
 10
227.45000000000002
 20
15.4
 30
0.0
 40
0.45
  1
AileSudEst_short
 11
227.45000000000002
 21
15.4
 31
0.0
100
AcDbText
  0
LWPOLYLINE
  5
5D
330
17
100
AcDbEntity
  8
ELEV-ANNOT
100
AcDbPolyline
 90
2
 70
0
 10
227.45000000000002
 20
0.0
 10
259.73
 20
0.0
  0
LWPOLYLINE
  5
5E
330
17
100
AcDbEntity
  8
ELEV-ANNOT
100
AcDbPolyline
 90
2
 70
0
 10
227.45000000000002
 20
10.77
 10
259.73
 20
10.77
  0
TEXT
  5
5F
330
17
100
AcDbEntity
  8
ELEV-ANNOT
100
AcDbText
 10
227.45000000000002
 20
10.87
 30
0.0
 40
0.35
  1
egout~10.8m
 11
227.45000000000002
 21
10.87
 31
0.0
100
AcDbText
  0
IMAGE
  5
62
330
17
100
AcDbEntity
  8
COUPE-AileSudEst_transv_arm1
100
AcDbRasterImage
 90
0
 10
262.73
 20
-2.0
 30
0.0
 11
0.014283185840707965
 21
0.0
 31
0.0
 12
8.747477136766809e-19
 22
0.014285714285714285
 32
0.0
 13
2260.0
 23
1190.0
340
61
 70
3
280
0
281
50
282
50
283
0
360
63
 71
1
 91
2
 14
-0.5
 24
-0.5
 14
2259.5
 24
1189.5
290
0
  0
TEXT
  5
64
330
17
100
AcDbEntity
  8
ELEV-ANNOT
100
AcDbText
 10
262.73
 20
15.4
 30
0.0
 40
0.45
  1
AileSudEst_transv_arm1
 11
262.73
 21
15.4
 31
0.0
100
AcDbText
  0
LWPOLYLINE
  5
65
330
17
100
AcDbEntity
  8
ELEV-ANNOT
100
AcDbPolyline
 90
2
 70
0
 10
262.73
 20
0.0
 10
295.01
 20
0.0
  0
IMAGE
  5
68
330
17
100
AcDbEntity
  8
COUPE-AileSudEst_transv_arm2
100
AcDbRasterImage
 90
0
 10
298.01
 20
-2.0
 30
0.0
 11
0.014283185840707965
 21
0.0
 31
0.0
 12
8.747477136766809e-19
 22
0.014285714285714285
 32
0.0
 13
2260.0
 23
1190.0
340
67
 70
3
280
0
281
50
282
50
283
0
360
69
 71
1
 91
2
 14
-0.5
 24
-0.5
 14
2259.5
 24
1189.5
290
0
  0
TEXT
  5
6A
330
17
100
AcDbEntity
  8
ELEV-ANNOT
100
AcDbText
 10
298.01
 20
15.4
 30
0.0
 40
0.45
  1
AileSudEst_transv_arm2
 11
298.01
 21
15.4
 31
0.0
100
AcDbText
  0
LWPOLYLINE
  5
6B
330
17
100
AcDbEntity
  8
ELEV-ANNOT
100
AcDbPolyline
 90
2
 70
0
 10
298.01
 20
0.0
 10
330.28999999999996
 20
0.0
  0
IMAGE
  5
6E
330
17
100
AcDbEntity
  8
ELEV-Atelier_long
100
AcDbRasterImage
 90
0
 10
338.28999999999996
 20
-2.0
 30
0.0
 11
0.014283147682357169
 21
0.0
 31
0.0
 12
8.740132487617551e-19
 22
0.014273719563392108
 32
0.0
 13
2783.0
 23
1191.0
340
6D
 70
3
280
0
281
50
282
50
283
0
360
6F
 71
1
 91
2
 14
-0.5
 24
-0.5
 14
2782.5
 24
1190.5
290
0
  0
TEXT
  5
70
330
17
100
AcDbEntity
  8
ELEV-ANNOT
100
AcDbText
 10
338.28999999999996
 20
15.4
 30
0.0
 40
0.45
  1
Atelier_long
 11
338.28999999999996
 21
15.4
 31
0.0
100
AcDbText
  0
LWPOLYLINE
  5
71
330
17
100
AcDbEntity
  8
ELEV-ANNOT
100
AcDbPolyline
 90
2
 70
0
 10
338.28999999999996
 20
0.0
 10
378.03999999999996
 20
0.0
  0
LWPOLYLINE
  5
72
330
17
100
AcDbEntity
  8
ELEV-ANNOT
100
AcDbPolyline
 90
2
 70
0
 10
338.28999999999996
 20
9.89
 10
378.03999999999996
 20
9.89
  0
TEXT
  5
73
330
17
100
AcDbEntity
  8
ELEV-ANNOT
100
AcDbText
 10
338.28999999999996
 20
9.99
 30
0.0
 40
0.35
  1
egout~9.9m
 11
338.28999999999996
 21
9.99
 31
0.0
100
AcDbText
  0
IMAGE
  5
76
330
17
100
AcDbEntity
  8
ELEV-Atelier_short
100
AcDbRasterImage
 90
0
 10
381.03999999999996
 20
-2.0
 30
0.0
 11
0.014276950043821209
 21
0.0
 31
0.0
 12
8.740132487617551e-19
 22
0.014273719563392108
 32
0.0
 13
1141.0
 23
1191.0
340
75
 70
3
280
0
281
50
282
50
283
0
360
77
 71
1
 91
2
 14
-0.5
 24
-0.5
 14
1140.5
 24
1190.5
290
0
  0
TEXT
  5
78
330
17
100
AcDbEntity
  8
ELEV-ANNOT
100
AcDbText
 10
381.03999999999996
 20
15.4
 30
0.0
 40
0.45
  1
Atelier_short
 11
381.03999999999996
 21
15.4
 31
0.0
100
AcDbText
  0
LWPOLYLINE
  5
79
330
17
100
AcDbEntity
  8
ELEV-ANNOT
100
AcDbPolyline
 90
2
 70
0
 10
381.03999999999996
 20
0.0
 10
397.33
 20
0.0
  0
LWPOLYLINE
  5
7A
330
17
100
AcDbEntity
  8
ELEV-ANNOT
100
AcDbPolyline
 90
2
 70
0
 10
381.03999999999996
 20
12.94
 10
397.33
 20
12.94
  0
TEXT
  5
7B
330
17
100
AcDbEntity
  8
ELEV-ANNOT
100
AcDbText
 10
381.03999999999996
 20
13.04
 30
0.0
 40
0.35
  1
egout~12.9m
 11
381.03999999999996
 21
13.04
 31
0.0
100
AcDbText
  0
IMAGE
  5
7E
330
17
100
AcDbEntity
  8
COUPE-Atelier_transv
100
AcDbRasterImage
 90
0
 10
400.33
 20
-2.0
 30
0.0
 11
0.014276950043821209
 21
0.0
 31
0.0
 12
8.740132487617551e-19
 22
0.014273719563392108
 32
0.0
 13
1141.0
 23
1191.0
340
7D
 70
3
280
0
281
50
282
50
283
0
360
7F
 71
1
 91
2
 14
-0.5
 24
-0.5
 14
1140.5
 24
1190.5
290
0
  0
TEXT
  5
80
330
17
100
AcDbEntity
  8
ELEV-ANNOT
100
AcDbText
 10
400.33
 20
15.4
 30
0.0
 40
0.45
  1
Atelier_transv
 11
400.33
 21
15.4
 31
0.0
100
AcDbText
  0
LWPOLYLINE
  5
81
330
17
100
AcDbEntity
  8
ELEV-ANNOT
100
AcDbPolyline
 90
2
 70
0
 10
400.33
 20
0.0
 10
416.62
 20
0.0
  0
IMAGE
  5
84
330
17
100
AcDbEntity
  8
COUPE-Atelier_longit
100
AcDbRasterImage
 90
0
 10
419.62
 20
-2.0
 30
0.0
 11
0.014283147682357169
 21
0.0
 31
0.0
 12
8.740132487617551e-19
 22
0.014273719563392108
 32
0.0
 13
2783.0
 23
1191.0
340
83
 70
3
280
0
281
50
282
50
283
0
360
85
 71
1
 91
2
 14
-0.5
 24
-0.5
 14
2782.5
 24
1190.5
290
0
  0
TEXT
  5
86
330
17
100
AcDbEntity
  8
ELEV-ANNOT
100
AcDbText
 10
419.62
 20
15.4
 30
0.0
 40
0.45
  1
Atelier_longit
 11
419.62
 21
15.4
 31
0.0
100
AcDbText
  0
LWPOLYLINE
  5
87
330
17
100
AcDbEntity
  8
ELEV-ANNOT
100
AcDbPolyline
 90
2
 70
0
 10
419.62
 20
0.0
 10
459.37
 20
0.0
  0
IMAGE
  5
8A
330
17
100
AcDbEntity
  8
ELEV-Chapelle_long
100
AcDbRasterImage
 90
0
 10
467.37
 20
-2.0
 30
0.0
 11
0.014280575539568347
 21
0.0
 31
0.0
 12
8.747477136766809e-19
 22
0.014285714285714285
 32
0.0
 13
1390.0
 23
1190.0
340
89
 70
3
280
0
281
50
282
50
283
0
360
8B
 71
1
 91
2
 14
-0.5
 24
-0.5
 14
1389.5
 24
1189.5
290
0
  0
TEXT
  5
8C
330
17
100
AcDbEntity
  8
ELEV-ANNOT
100
AcDbText
 10
467.37
 20
15.4
 30
0.0
 40
0.45
  1
Chapelle_long
 11
467.37
 21
15.4
 31
0.0
100
AcDbText
  0
LWPOLYLINE
  5
8D
330
17
100
AcDbEntity
  8
ELEV-ANNOT
100
AcDbPolyline
 90
2
 70
0
 10
467.37
 20
0.0
 10
487.22
 20
0.0
  0
LWPOLYLINE
  5
8E
330
17
100
AcDbEntity
  8
ELEV-ANNOT
100
AcDbPolyline
 90
2
 70
0
 10
467.37
 20
11.73
 10
487.22
 20
11.73
  0
TEXT
  5
8F
330
17
100
AcDbEntity
  8
ELEV-ANNOT
100
AcDbText
 10
467.37
 20
11.83
 30
0.0
 40
0.35
  1
egout~11.7m
 11
467.37
 21
11.83
 31
0.0
100
AcDbText
  0
IMAGE
  5
92
330
17
100
AcDbEntity
  8
ELEV-Chapelle_short
100
AcDbRasterImage
 90
0
 10
490.22
 20
-2.0
 30
0.0
 11
0.014282945736434108
 21
0.0
 31
0.0
 12
8.747477136766809e-19
 22
0.014285714285714285
 32
0.0
 13
1032.0
 23
1190.0
340
91
 70
3
280
0
281
50
282
50
283
0
360
93
 71
1
 91
2
 14
-0.5
 24
-0.5
 14
1031.5
 24
1189.5
290
0
  0
TEXT
  5
94
330
17
100
AcDbEntity
  8
ELEV-ANNOT
100
AcDbText
 10
490.22
 20
15.4
 30
0.0
 40
0.45
  1
Chapelle_short
 11
490.22
 21
15.4
 31
0.0
100
AcDbText
  0
LWPOLYLINE
  5
95
330
17
100
AcDbEntity
  8
ELEV-ANNOT
100
AcDbPolyline
 90
2
 70
0
 10
490.22
 20
0.0
 10
504.96000000000004
 20
0.0
  0
LWPOLYLINE
  5
96
330
17
100
AcDbEntity
  8
ELEV-ANNOT
100
AcDbPolyline
 90
2
 70
0
 10
490.22
 20
11.1
 10
504.96000000000004
 20
11.1
  0
TEXT
  5
97
330
17
100
AcDbEntity
  8
ELEV-ANNOT
100
AcDbText
 10
490.22
 20
11.2
 30
0.0
 40
0.35
  1
egout~11.1m
 11
490.22
 21
11.2
 31
0.0
100
AcDbText
  0
IMAGE
  5
9A
330
17
100
AcDbEntity
  8
COUPE-Chapelle_transv
100
AcDbRasterImage
 90
0
 10
507.96000000000004
 20
-2.0
 30
0.0
 11
0.014282945736434108
 21
0.0
 31
0.0
 12
8.747477136766809e-19
 22
0.014285714285714285
 32
0.0
 13
1032.0
 23
1190.0
340
99
 70
3
280
0
281
50
282
50
283
0
360
9B
 71
1
 91
2
 14
-0.5
 24
-0.5
 14
1031.5
 24
1189.5
290
0
  0
TEXT
  5
9C
330
17
100
AcDbEntity
  8
ELEV-ANNOT
100
AcDbText
 10
507.96000000000004
 20
15.4
 30
0.0
 40
0.45
  1
Chapelle_transv
 11
507.96000000000004
 21
15.4
 31
0.0
100
AcDbText
  0
LWPOLYLINE
  5
9D
330
17
100
AcDbEntity
  8
ELEV-ANNOT
100
AcDbPolyline
 90
2
 70
0
 10
507.96000000000004
 20
0.0
 10
522.7
 20
0.0
  0
IMAGE
  5
A0
330
17
100
AcDbEntity
  8
COUPE-Chapelle_longit
100
AcDbRasterImage
 90
0
 10
525.7
 20
-2.0
 30
0.0
 11
0.014280575539568347
 21
0.0
 31
0.0
 12
8.747477136766809e-19
 22
0.014285714285714285
 32
0.0
 13
1390.0
 23
1190.0
340
9F
 70
3
280
0
281
50
282
50
283
0
360
A1
 71
1
 91
2
 14
-0.5
 24
-0.5
 14
1389.5
 24
1189.5
290
0
  0
TEXT
  5
A2
330
17
100
AcDbEntity
  8
ELEV-ANNOT
100
AcDbText
 10
525.7
 20
15.4
 30
0.0
 40
0.45
  1
Chapelle_longit
 11
525.7
 21
15.4
 31
0.0
100
AcDbText
  0
LWPOLYLINE
  5
A3
330
17
100
AcDbEntity
  8
ELEV-ANNOT
100
AcDbPolyline
 90
2
 70
0
 10
525.7
 20
0.0
 10
545.5500000000001
 20
0.0
  0
IMAGE
  5
A6
330
17
100
AcDbEntity
  8
ELEV-Maisonprincipale_long
100
AcDbRasterImage
 90
0
 10
553.5500000000001
 20
-2.0
 30
0.0
 11
0.014272727272727272
 21
0.0
 31
0.0
 12
8.747477136766809e-19
 22
0.014285714285714285
 32
0.0
 13
1210.0
 23
1190.0
340
A5
 70
3
280
0
281
50
282
50
283
0
360
A7
 71
1
 91
2
 14
-0.5
 24
-0.5
 14
1209.5
 24
1189.5
290
0
  0
TEXT
  5
A8
330
17
100
AcDbEntity
  8
ELEV-ANNOT
100
AcDbText
 10
553.5500000000001
 20
15.4
 30
0.0
 40
0.45
  1
Maisonprincipale_long
 11
553.5500000000001
 21
15.4
 31
0.0
100
AcDbText
  0
LWPOLYLINE
  5
A9
330
17
100
AcDbEntity
  8
ELEV-ANNOT
100
AcDbPolyline
 90
2
 70
0
 10
553.5500000000001
 20
0.0
 10
570.82
 20
0.0
  0
LWPOLYLINE
  5
AA
330
17
100
AcDbEntity
  8
ELEV-ANNOT
100
AcDbPolyline
 90
2
 70
0
 10
553.5500000000001
 20
14.57
 10
570.82
 20
14.57
  0
TEXT
  5
AB
330
17
100
AcDbEntity
  8
ELEV-ANNOT
100
AcDbText
 10
553.5500000000001
 20
14.67
 30
0.0
 40
0.35
  1
egout~14.6m
 11
553.5500000000001
 21
14.67
 31
0.0
100
AcDbText
  0
IMAGE
  5
AE
330
17
100
AcDbEntity
  8
ELEV-Maisonprincipale_short
100
AcDbRasterImage
 90
0
 10
573.82
 20
-2.0
 30
0.0
 11
0.014285714285714285
 21
0.0
 31
0.0
 12
8.740132487617551e-19
 22
0.014273719563392108
 32
0.0
 13
1092.0
 23
1191.0
340
AD
 70
3
280
0
281
50
282
50
283
0
360
AF
 71
1
 91
2
 14
-0.5
 24
-0.5
 14
1091.5
 24
1190.5
290
0
  0
TEXT
  5
B0
330
17
100
AcDbEntity
  8
ELEV-ANNOT
100
AcDbText
 10
573.82
 20
15.4
 30
0.0
 40
0.45
  1
Maisonprincipale_short
 11
573.82
 21
15.4
 31
0.0
100
AcDbText
  0
LWPOLYLINE
  5
B1
330
17
100
AcDbEntity
  8
ELEV-ANNOT
100
AcDbPolyline
 90
2
 70
0
 10
573.82
 20
0.0
 10
589.4200000000001
 20
0.0
  0
LWPOLYLINE
  5
B2
330
17
100
AcDbEntity
  8
ELEV-ANNOT
100
AcDbPolyline
 90
2
 70
0
 10
573.82
 20
14.63
 10
589.4200000000001
 20
14.63
  0
TEXT
  5
B3
330
17
100
AcDbEntity
  8
ELEV-ANNOT
100
AcDbText
 10
573.82
 20
14.73
 30
0.0
 40
0.35
  1
egout~14.6m
 11
573.82
 21
14.73
 31
0.0
100
AcDbText
  0
IMAGE
  5
B6
330
17
100
AcDbEntity
  8
COUPE-Maisonprincipale_transv
100
AcDbRasterImage
 90
0
 10
592.4200000000001
 20
-2.0
 30
0.0
 11
0.014285714285714285
 21
0.0
 31
0.0
 12
8.740132487617551e-19
 22
0.014273719563392108
 32
0.0
 13
1092.0
 23
1191.0
340
B5
 70
3
280
0
281
50
282
50
283
0
360
B7
 71
1
 91
2
 14
-0.5
 24
-0.5
 14
1091.5
 24
1190.5
290
0
  0
TEXT
  5
B8
330
17
100
AcDbEntity
  8
ELEV-ANNOT
100
AcDbText
 10
592.4200000000001
 20
15.4
 30
0.0
 40
0.45
  1
Maisonprincipale_transv
 11
592.4200000000001
 21
15.4
 31
0.0
100
AcDbText
  0
LWPOLYLINE
  5
B9
330
17
100
AcDbEntity
  8
ELEV-ANNOT
100
AcDbPolyline
 90
2
 70
0
 10
592.4200000000001
 20
0.0
 10
608.0200000000001
 20
0.0
  0
IMAGE
  5
BC
330
17
100
AcDbEntity
  8
COUPE-Maisonprincipale_longit
100
AcDbRasterImage
 90
0
 10
611.0200000000001
 20
-2.0
 30
0.0
 11
0.014272727272727272
 21
0.0
 31
0.0
 12
8.740132487617551e-19
 22
0.014273719563392108
 32
0.0
 13
1210.0
 23
1191.0
340
BB
 70
3
280
0
281
50
282
50
283
0
360
BD
 71
1
 91
2
 14
-0.5
 24
-0.5
 14
1209.5
 24
1190.5
290
0
  0
TEXT
  5
BE
330
17
100
AcDbEntity
  8
ELEV-ANNOT
100
AcDbText
 10
611.0200000000001
 20
15.4
 30
0.0
 40
0.45
  1
Maisonprincipale_longit
 11
611.0200000000001
 21
15.4
 31
0.0
100
AcDbText
  0
LWPOLYLINE
  5
BF
330
17
100
AcDbEntity
  8
ELEV-ANNOT
100
AcDbPolyline
 90
2
 70
0
 10
611.0200000000001
 20
0.0
 10
628.2900000000001
 20
0.0
  0
LINE
  5
C0
330
17
100
AcDbEntity
  8
Z-SCALE
100
AcDbLine
 10
-3.0
 20
-2.0
 30
0.0
 11
-3.0
 21
15.0
 31
0.0
  0
LINE
  5
C1
330
17
100
AcDbEntity
  8
Z-SCALE
100
AcDbLine
 10
-3.3
 20
-2.0
 30
0.0
 11
-3.0
 21
-2.0
 31
0.0
  0
TEXT
  5
C2
330
17
100
AcDbEntity
  8
Z-SCALE
100
AcDbText
 10
-4.6
 20
-2.15
 30
0.0
 40
0.3
  1
-2
 11
-4.6
 21
-2.15
 31
0.0
100
AcDbText
  0
LINE
  5
C3
330
17
100
AcDbEntity
  8
Z-SCALE
100
AcDbLine
 10
-3.3
 20
-1.0
 30
0.0
 11
-3.0
 21
-1.0
 31
0.0
  0
TEXT
  5
C4
330
17
100
AcDbEntity
  8
Z-SCALE
100
AcDbText
 10
-4.6
 20
-1.15
 30
0.0
 40
0.3
  1
-1
 11
-4.6
 21
-1.15
 31
0.0
100
AcDbText
  0
LINE
  5
C5
330
17
100
AcDbEntity
  8
Z-SCALE
100
AcDbLine
 10
-3.3
 20
0.0
 30
0.0
 11
-3.0
 21
0.0
 31
0.0
  0
TEXT
  5
C6
330
17
100
AcDbEntity
  8
Z-SCALE
100
AcDbText
 10
-4.6
 20
-0.15
 30
0.0
 40
0.3
  1
+0
 11
-4.6
 21
-0.15
 31
0.0
100
AcDbText
  0
LINE
  5
C7
330
17
100
AcDbEntity
  8
Z-SCALE
100
AcDbLine
 10
-3.3
 20
1.0
 30
0.0
 11
-3.0
 21
1.0
 31
0.0
  0
TEXT
  5
C8
330
17
100
AcDbEntity
  8
Z-SCALE
100
AcDbText
 10
-4.6
 20
0.85
 30
0.0
 40
0.3
  1
+1
 11
-4.6
 21
0.85
 31
0.0
100
AcDbText
  0
LINE
  5
C9
330
17
100
AcDbEntity
  8
Z-SCALE
100
AcDbLine
 10
-3.3
 20
2.0
 30
0.0
 11
-3.0
 21
2.0
 31
0.0
  0
TEXT
  5
CA
330
17
100
AcDbEntity
  8
Z-SCALE
100
AcDbText
 10
-4.6
 20
1.85
 30
0.0
 40
0.3
  1
+2
 11
-4.6
 21
1.85
 31
0.0
100
AcDbText
  0
LINE
  5
CB
330
17
100
AcDbEntity
  8
Z-SCALE
100
AcDbLine
 10
-3.3
 20
3.0
 30
0.0
 11
-3.0
 21
3.0
 31
0.0
  0
TEXT
  5
CC
330
17
100
AcDbEntity
  8
Z-SCALE
100
AcDbText
 10
-4.6
 20
2.85
 30
0.0
 40
0.3
  1
+3
 11
-4.6
 21
2.85
 31
0.0
100
AcDbText
  0
LINE
  5
CD
330
17
100
AcDbEntity
  8
Z-SCALE
100
AcDbLine
 10
-3.3
 20
4.0
 30
0.0
 11
-3.0
 21
4.0
 31
0.0
  0
TEXT
  5
CE
330
17
100
AcDbEntity
  8
Z-SCALE
100
AcDbText
 10
-4.6
 20
3.85
 30
0.0
 40
0.3
  1
+4
 11
-4.6
 21
3.85
 31
0.0
100
AcDbText
  0
LINE
  5
CF
330
17
100
AcDbEntity
  8
Z-SCALE
100
AcDbLine
 10
-3.3
 20
5.0
 30
0.0
 11
-3.0
 21
5.0
 31
0.0
  0
TEXT
  5
D0
330
17
100
AcDbEntity
  8
Z-SCALE
100
AcDbText
 10
-4.6
 20
4.85
 30
0.0
 40
0.3
  1
+5
 11
-4.6
 21
4.85
 31
0.0
100
AcDbText
  0
LINE
  5
D1
330
17
100
AcDbEntity
  8
Z-SCALE
100
AcDbLine
 10
-3.3
 20
6.0
 30
0.0
 11
-3.0
 21
6.0
 31
0.0
  0
TEXT
  5
D2
330
17
100
AcDbEntity
  8
Z-SCALE
100
AcDbText
 10
-4.6
 20
5.85
 30
0.0
 40
0.3
  1
+6
 11
-4.6
 21
5.85
 31
0.0
100
AcDbText
  0
LINE
  5
D3
330
17
100
AcDbEntity
  8
Z-SCALE
100
AcDbLine
 10
-3.3
 20
7.0
 30
0.0
 11
-3.0
 21
7.0
 31
0.0
  0
TEXT
  5
D4
330
17
100
AcDbEntity
  8
Z-SCALE
100
AcDbText
 10
-4.6
 20
6.85
 30
0.0
 40
0.3
  1
+7
 11
-4.6
 21
6.85
 31
0.0
100
AcDbText
  0
LINE
  5
D5
330
17
100
AcDbEntity
  8
Z-SCALE
100
AcDbLine
 10
-3.3
 20
8.0
 30
0.0
 11
-3.0
 21
8.0
 31
0.0
  0
TEXT
  5
D6
330
17
100
AcDbEntity
  8
Z-SCALE
100
AcDbText
 10
-4.6
 20
7.85
 30
0.0
 40
0.3
  1
+8
 11
-4.6
 21
7.85
 31
0.0
100
AcDbText
  0
LINE
  5
D7
330
17
100
AcDbEntity
  8
Z-SCALE
100
AcDbLine
 10
-3.3
 20
9.0
 30
0.0
 11
-3.0
 21
9.0
 31
0.0
  0
TEXT
  5
D8
330
17
100
AcDbEntity
  8
Z-SCALE
100
AcDbText
 10
-4.6
 20
8.85
 30
0.0
 40
0.3
  1
+9
 11
-4.6
 21
8.85
 31
0.0
100
AcDbText
  0
LINE
  5
D9
330
17
100
AcDbEntity
  8
Z-SCALE
100
AcDbLine
 10
-3.3
 20
10.0
 30
0.0
 11
-3.0
 21
10.0
 31
0.0
  0
TEXT
  5
DA
330
17
100
AcDbEntity
  8
Z-SCALE
100
AcDbText
 10
-4.6
 20
9.85
 30
0.0
 40
0.3
  1
+10
 11
-4.6
 21
9.85
 31
0.0
100
AcDbText
  0
LINE
  5
DB
330
17
100
AcDbEntity
  8
Z-SCALE
100
AcDbLine
 10
-3.3
 20
11.0
 30
0.0
 11
-3.0
 21
11.0
 31
0.0
  0
TEXT
  5
DC
330
17
100
AcDbEntity
  8
Z-SCALE
100
AcDbText
 10
-4.6
 20
10.85
 30
0.0
 40
0.3
  1
+11
 11
-4.6
 21
10.85
 31
0.0
100
AcDbText
  0
LINE
  5
DD
330
17
100
AcDbEntity
  8
Z-SCALE
100
AcDbLine
 10
-3.3
 20
12.0
 30
0.0
 11
-3.0
 21
12.0
 31
0.0
  0
TEXT
  5
DE
330
17
100
AcDbEntity
  8
Z-SCALE
100
AcDbText
 10
-4.6
 20
11.85
 30
0.0
 40
0.3
  1
+12
 11
-4.6
 21
11.85
 31
0.0
100
AcDbText
  0
LINE
  5
DF
330
17
100
AcDbEntity
  8
Z-SCALE
100
AcDbLine
 10
-3.3
 20
13.0
 30
0.0
 11
-3.0
 21
13.0
 31
0.0
  0
TEXT
  5
E0
330
17
100
AcDbEntity
  8
Z-SCALE
100
AcDbText
 10
-4.6
 20
12.85
 30
0.0
 40
0.3
  1
+13
 11
-4.6
 21
12.85
 31
0.0
100
AcDbText
  0
LINE
  5
E1
330
17
100
AcDbEntity
  8
Z-SCALE
100
AcDbLine
 10
-3.3
 20
14.0
 30
0.0
 11
-3.0
 21
14.0
 31
0.0
  0
TEXT
  5
E2
330
17
100
AcDbEntity
  8
Z-SCALE
100
AcDbText
 10
-4.6
 20
13.85
 30
0.0
 40
0.3
  1
+14
 11
-4.6
 21
13.85
 31
0.0
100
AcDbText
  0
LINE
  5
E3
330
17
100
AcDbEntity
  8
Z-SCALE
100
AcDbLine
 10
-3.3
 20
15.0
 30
0.0
 11
-3.0
 21
15.0
 31
0.0
  0
TEXT
  5
E4
330
17
100
AcDbEntity
  8
Z-SCALE
100
AcDbText
 10
-4.6
 20
14.85
 30
0.0
 40
0.3
  1
+15
 11
-4.6
 21
14.85
 31
0.0
100
AcDbText
  0
MTEXT
  5
E5
330
17
100
AcDbEntity
  8
NOTES
100
AcDbMText
 10
-3.0
 20
-4.0
 30
0.0
 40
0.5
 71
1
  3
FERME DU TEMPLE — elevations & coupes as-built NavVis, ALIGNEES sur les axes de chaque batiment (orthographiques vraies). 1 unite = 1 m, Y = altitude site z (-2..15). Coupes = tranche 2.5 m. Hauteurs d'egout fiables; faitage = lire sur image (vegetat
  1
ion).
  0
ENDSEC
  0
SECTION
  2
OBJECTS
  0
DICTIONARY
  5
A
330
0
100
AcDbDictionary
281
1
  3
ACAD_COLOR
350
B
  3
ACAD_GROUP
350
C
  3
ACAD_LAYOUT
350
D
  3
ACAD_MATERIAL
350
E
  3
ACAD_MLEADERSTYLE
350
F
  3
ACAD_MLINESTYLE
350
10
  3
ACAD_PLOTSETTINGS
350
11
  3
ACAD_PLOTSTYLENAME
350
12
  3
ACAD_SCALELIST
350
14
  3
ACAD_TABLESTYLE
350
15
  3
ACAD_VISUALSTYLE
350
16
  3
EZDXF_META
350
2D
  3
ACAD_IMAGE_VARS
350
30
  3
ACAD_IMAGE_DICT
350
31
  0
DICTIONARY
  5
B
330
A
100
AcDbDictionary
281
1
  0
DICTIONARY
  5
C
330
A
100
AcDbDictionary
281
1
  0
DICTIONARY
  5
D
330
A
100
AcDbDictionary
281
1
  3
Model
350
1A
  3
Layout1
350
1E
  0
DICTIONARY
  5
E
330
A
100
AcDbDictionary
281
1
  3
ByBlock
350
1F
  3
ByLayer
350
20
  3
Global
350
21
  0
DICTIONARY
  5
F
330
A
100
AcDbDictionary
281
1
  3
Standard
350
2C
  0
DICTIONARY
  5
10
330
A
100
AcDbDictionary
281
1
  3
Standard
350
22
  0
DICTIONARY
  5
11
330
A
100
AcDbDictionary
281
1
  0
ACDBDICTIONARYWDFLT
  5
12
330
A
100
AcDbDictionary
281
1
  3
Normal
350
13
100
AcDbDictionaryWithDefault
340
13
  0
ACDBPLACEHOLDER
  5
13
330
12
  0
DICTIONARY
  5
14
330
A
100
AcDbDictionary
281
1
  0
DICTIONARY
  5
15
330
A
100
AcDbDictionary
281
1
  0
DICTIONARY
  5
16
330
A
100
AcDbDictionary
281
1
  0
LAYOUT
  5
1A
330
D
100
AcDbPlotSettings
  1

  4
A3
  6

 40
7.5
 41
20.0
 42
7.5
 43
20.0
 44
420.0
 45
297.0
 46
0.0
 47
0.0
 48
0.0
 49
0.0
140
0.0
141
0.0
142
1.0
143
1.0
 70
1024
 72
1
 73
0
 74
5
  7

 75
16
 76
0
 77
2
 78
300
147
1.0
148
0.0
149
0.0
100
AcDbLayout
  1
Model
 70
1
 71
0
 10
0.0
 20
0.0
 11
420.0
 21
297.0
 12
0.0
 22
0.0
 32
0.0
 14
1e+20
 24
1e+20
 34
1e+20
 15
-1e+20
 25
-1e+20
 35
-1e+20
146
0.0
 13
0.0
 23
0.0
 33
0.0
 16
1.0
 26
0.0
 36
0.0
 17
0.0
 27
1.0
 37
0.0
 76
1
330
17
  0
LAYOUT
  5
1E
330
D
100
AcDbPlotSettings
  1

  4
A3
  6

 40
7.5
 41
20.0
 42
7.5
 43
20.0
 44
420.0
 45
297.0
 46
0.0
 47
0.0
 48
0.0
 49
0.0
140
0.0
141
0.0
142
1.0
143
1.0
 70
0
 72
1
 73
0
 74
5
  7

 75
16
 76
0
 77
2
 78
300
147
1.0
148
0.0
149
0.0
100
AcDbLayout
  1
Layout1
 70
1
 71
1
 10
0.0
 20
0.0
 11
420.0
 21
297.0
 12
0.0
 22
0.0
 32
0.0
 14
1e+20
 24
1e+20
 34
1e+20
 15
-1e+20
 25
-1e+20
 35
-1e+20
146
0.0
 13
0.0
 23
0.0
 33
0.0
 16
1.0
 26
0.0
 36
0.0
 17
0.0
 27
1.0
 37
0.0
 76
1
330
1B
  0
MATERIAL
  5
1F
102
{ACAD_REACTORS
330
E
102
}
330
E
100
AcDbMaterial
  1
ByBlock
  2

 70
0
 40
1.0
 71
1
 41
1.0
 91
-1023410177
 42
1.0
 72
1
  3

 73
1
 74
1
 75
1
 44
0.5
 73
0
 45
1.0
 46
1.0
 77
1
  4

 78
1
 79
1
170
1
 48
1.0
171
1
  6

172
1
173
1
174
1
140
1.0
141
1.0
175
1
  7

176
1
177
1
178
1
143
1.0
179
1
  8

270
1
271
1
272
1
145
1.0
146
1.0
273
1
  9

274
1
275
1
276
1
 42
1.0
 72
1
  3

 73
1
 74
1
 75
1
 94
63
  0
MATERIAL
  5
20
102
{ACAD_REACTORS
330
E
102
}
330
E
100
AcDbMaterial
  1
ByLayer
  2

 70
0
 40
1.0
 71
1
 41
1.0
 91
-1023410177
 42
1.0
 72
1
  3

 73
1
 74
1
 75
1
 44
0.5
 73
0
 45
1.0
 46
1.0
 77
1
  4

 78
1
 79
1
170
1
 48
1.0
171
1
  6

172
1
173
1
174
1
140
1.0
141
1.0
175
1
  7

176
1
177
1
178
1
143
1.0
179
1
  8

270
1
271
1
272
1
145
1.0
146
1.0
273
1
  9

274
1
275
1
276
1
 42
1.0
 72
1
  3

 73
1
 74
1
 75
1
 94
63
  0
MATERIAL
  5
21
102
{ACAD_REACTORS
330
E
102
}
330
E
100
AcDbMaterial
  1
Global
  2

 70
0
 40
1.0
 71
1
 41
1.0
 91
-1023410177
 42
1.0
 72
1
  3

 73
1
 74
1
 75
1
 44
0.5
 73
0
 45
1.0
 46
1.0
 77
1
  4

 78
1
 79
1
170
1
 48
1.0
171
1
  6

172
1
173
1
174
1
140
1.0
141
1.0
175
1
  7

176
1
177
1
178
1
143
1.0
179
1
  8

270
1
271
1
272
1
145
1.0
146
1.0
273
1
  9

274
1
275
1
276
1
 42
1.0
 72
1
  3

 73
1
 74
1
 75
1
 94
63
  0
MLINESTYLE
  5
22
102
{ACAD_REACTORS
330
10
102
}
330
10
100
AcDbMlineStyle
  2
Standard
 70
0
  3

 62
256
 51
90.0
 52
90.0
 71
2
 49
0.5
 62
256
  6
BYLAYER
 49
-0.5
 62
256
  6
BYLAYER
  0
MLEADERSTYLE
  5
2C
102
{ACAD_REACTORS
330
F
102
}
330
F
100
AcDbMLeaderStyle
179
2
170
2
171
1
172
0
 90
2
 40
0.0
 41
0.0
173
1
 91
-1056964608
 92
-2
290
1
 42
2.0
291
1
 43
8.0
  3
Standard
 44
4.0
300

342
29
174
1
175
1
176
0
178
1
 93
-1056964608
 45
4.0
292
0
297
0
 46
4.0
 94
-1056964608
 47
1.0
 49
1.0
140
1.0
294
1
141
0.0
177
0
142
1.0
295
0
296
0
143
3.75
271
0
272
9
273
9
  0
DICTIONARY
  5
2D
330
A
100
AcDbDictionary
280
1
281
1
  3
CREATED_BY_EZDXF
350
2E
  3
WRITTEN_BY_EZDXF
350
E8
  0
DICTIONARYVAR
  5
2E
330
2D
100
DictionaryVariables
280
0
  1
1.4.4 @ 2026-06-09T00:54:17.480882+00:00
  0
RASTERVARIABLES
  5
30
102
{ACAD_REACTORS
330
A
102
}
330
A
100
AcDbRasterVariables
 90
0
 70
0
 71
1
 72
3
  0
DICTIONARY
  5
31
330
A
100
AcDbDictionary
281
1
  3
facades_coupes_aligned/underlay/belev_AileOuest_long.png
350
32
  3
facades_coupes_aligned/underlay/belev_AileOuest_short.png
350
3D
  3
facades_coupes_aligned/underlay/bcoupe_AileOuest_transv.png
350
45
  3
facades_coupes_aligned/underlay/bcoupe_AileOuest_longit.png
350
4B
  3
facades_coupes_aligned/underlay/belev_AileSudEst_long.png
350
51
  3
facades_coupes_aligned/underlay/belev_AileSudEst_short.png
350
59
  3
facades_coupes_aligned/underlay/bcoupe_AileSudEst_transv_arm1.png
350
61
  3
facades_coupes_aligned/underlay/bcoupe_AileSudEst_transv_arm2.png
350
67
  3
facades_coupes_aligned/underlay/belev_Atelier_long.png
350
6D
  3
facades_coupes_aligned/underlay/belev_Atelier_short.png
350
75
  3
facades_coupes_aligned/underlay/bcoupe_Atelier_transv.png
350
7D
  3
facades_coupes_aligned/underlay/bcoupe_Atelier_longit.png
350
83
  3
facades_coupes_aligned/underlay/belev_Chapelle_long.png
350
89
  3
facades_coupes_aligned/underlay/belev_Chapelle_short.png
350
91
  3
facades_coupes_aligned/underlay/bcoupe_Chapelle_transv.png
350
99
  3
facades_coupes_aligned/underlay/bcoupe_Chapelle_longit.png
350
9F
  3
facades_coupes_aligned/underlay/belev_Maisonprincipale_long.png
350
A5
  3
facades_coupes_aligned/underlay/belev_Maisonprincipale_short.png
350
AD
  3
facades_coupes_aligned/underlay/bcoupe_Maisonprincipale_transv.png
350
B5
  3
facades_coupes_aligned/underlay/bcoupe_Maisonprincipale_longit.png
350
BB
  0
IMAGEDEF
  5
32
102
{ACAD_REACTORS
330
31
330
34
102
}
330
31
100
AcDbRasterImageDef
 90
0
  1
facades_coupes_aligned/underlay/belev_AileOuest_long.png
 10
2803.0
 20
817.0
 11
0.01
 21
0.01
280
1
281
0
  0
IMAGEDEF_REACTOR
  5
34
330
33
100
AcDbRasterImageDefReactor
 90
2
330
33
  0
IMAGEDEF
  5
3D
102
{ACAD_REACTORS
330
31
330
3F
102
}
330
31
100
AcDbRasterImageDef
 90
0
  1
facades_coupes_aligned/underlay/belev_AileOuest_short.png
 10
1814.0
 20
1191.0
 11
0.01
 21
0.01
280
1
281
0
  0
IMAGEDEF_REACTOR
  5
3F
330
3E
100
AcDbRasterImageDefReactor
 90
2
330
3E
  0
IMAGEDEF
  5
45
102
{ACAD_REACTORS
330
31
330
47
102
}
330
31
100
AcDbRasterImageDef
 90
0
  1
facades_coupes_aligned/underlay/bcoupe_AileOuest_transv.png
 10
1814.0
 20
1191.0
 11
0.01
 21
0.01
280
1
281
0
  0
IMAGEDEF_REACTOR
  5
47
330
46
100
AcDbRasterImageDefReactor
 90
2
330
46
  0
IMAGEDEF
  5
4B
102
{ACAD_REACTORS
330
31
330
4D
102
}
330
31
100
AcDbRasterImageDef
 90
0
  1
facades_coupes_aligned/underlay/bcoupe_AileOuest_longit.png
 10
2803.0
 20
817.0
 11
0.01
 21
0.01
280
1
281
0
  0
IMAGEDEF_REACTOR
  5
4D
330
4C
100
AcDbRasterImageDefReactor
 90
2
330
4C
  0
IMAGEDEF
  5
51
102
{ACAD_REACTORS
330
31
330
53
102
}
330
31
100
AcDbRasterImageDef
 90
0
  1
facades_coupes_aligned/underlay/belev_AileSudEst_long.png
 10
2721.0
 20
1190.0
 11
0.01
 21
0.01
280
1
281
0
  0
IMAGEDEF_REACTOR
  5
53
330
52
100
AcDbRasterImageDefReactor
 90
2
330
52
  0
IMAGEDEF
  5
59
102
{ACAD_REACTORS
330
31
330
5B
102
}
330
31
100
AcDbRasterImageDef
 90
0
  1
facades_coupes_aligned/underlay/belev_AileSudEst_short.png
 10
2260.0
 20
1191.0
 11
0.01
 21
0.01
280
1
281
0
  0
IMAGEDEF_REACTOR
  5
5B
330
5A
100
AcDbRasterImageDefReactor
 90
2
330
5A
  0
IMAGEDEF
  5
61
102
{ACAD_REACTORS
330
31
330
63
102
}
330
31
100
AcDbRasterImageDef
 90
0
  1
facades_coupes_aligned/underlay/bcoupe_AileSudEst_transv_arm1.png
 10
2260.0
 20
1190.0
 11
0.01
 21
0.01
280
1
281
0
  0
IMAGEDEF_REACTOR
  5
63
330
62
100
AcDbRasterImageDefReactor
 90
2
330
62
  0
IMAGEDEF
  5
67
102
{ACAD_REACTORS
330
31
330
69
102
}
330
31
100
AcDbRasterImageDef
 90
0
  1
facades_coupes_aligned/underlay/bcoupe_AileSudEst_transv_arm2.png
 10
2260.0
 20
1190.0
 11
0.01
 21
0.01
280
1
281
0
  0
IMAGEDEF_REACTOR
  5
69
330
68
100
AcDbRasterImageDefReactor
 90
2
330
68
  0
IMAGEDEF
  5
6D
102
{ACAD_REACTORS
330
31
330
6F
102
}
330
31
100
AcDbRasterImageDef
 90
0
  1
facades_coupes_aligned/underlay/belev_Atelier_long.png
 10
2783.0
 20
1191.0
 11
0.01
 21
0.01
280
1
281
0
  0
IMAGEDEF_REACTOR
  5
6F
330
6E
100
AcDbRasterImageDefReactor
 90
2
330
6E
  0
IMAGEDEF
  5
75
102
{ACAD_REACTORS
330
31
330
77
102
}
330
31
100
AcDbRasterImageDef
 90
0
  1
facades_coupes_aligned/underlay/belev_Atelier_short.png
 10
1141.0
 20
1191.0
 11
0.01
 21
0.01
280
1
281
0
  0
IMAGEDEF_REACTOR
  5
77
330
76
100
AcDbRasterImageDefReactor
 90
2
330
76
  0
IMAGEDEF
  5
7D
102
{ACAD_REACTORS
330
31
330
7F
102
}
330
31
100
AcDbRasterImageDef
 90
0
  1
facades_coupes_aligned/underlay/bcoupe_Atelier_transv.png
 10
1141.0
 20
1191.0
 11
0.01
 21
0.01
280
1
281
0
  0
IMAGEDEF_REACTOR
  5
7F
330
7E
100
AcDbRasterImageDefReactor
 90
2
330
7E
  0
IMAGEDEF
  5
83
102
{ACAD_REACTORS
330
31
330
85
102
}
330
31
100
AcDbRasterImageDef
 90
0
  1
facades_coupes_aligned/underlay/bcoupe_Atelier_longit.png
 10
2783.0
 20
1191.0
 11
0.01
 21
0.01
280
1
281
0
  0
IMAGEDEF_REACTOR
  5
85
330
84
100
AcDbRasterImageDefReactor
 90
2
330
84
  0
IMAGEDEF
  5
89
102
{ACAD_REACTORS
330
31
330
8B
102
}
330
31
100
AcDbRasterImageDef
 90
0
  1
facades_coupes_aligned/underlay/belev_Chapelle_long.png
 10
1390.0
 20
1190.0
 11
0.01
 21
0.01
280
1
281
0
  0
IMAGEDEF_REACTOR
  5
8B
330
8A
100
AcDbRasterImageDefReactor
 90
2
330
8A
  0
IMAGEDEF
  5
91
102
{ACAD_REACTORS
330
31
330
93
102
}
330
31
100
AcDbRasterImageDef
 90
0
  1
facades_coupes_aligned/underlay/belev_Chapelle_short.png
 10
1032.0
 20
1190.0
 11
0.01
 21
0.01
280
1
281
0
  0
IMAGEDEF_REACTOR
  5
93
330
92
100
AcDbRasterImageDefReactor
 90
2
330
92
  0
IMAGEDEF
  5
99
102
{ACAD_REACTORS
330
31
330
9B
102
}
330
31
100
AcDbRasterImageDef
 90
0
  1
facades_coupes_aligned/underlay/bcoupe_Chapelle_transv.png
 10
1032.0
 20
1190.0
 11
0.01
 21
0.01
280
1
281
0
  0
IMAGEDEF_REACTOR
  5
9B
330
9A
100
AcDbRasterImageDefReactor
 90
2
330
9A
  0
IMAGEDEF
  5
9F
102
{ACAD_REACTORS
330
31
330
A1
102
}
330
31
100
AcDbRasterImageDef
 90
0
  1
facades_coupes_aligned/underlay/bcoupe_Chapelle_longit.png
 10
1390.0
 20
1190.0
 11
0.01
 21
0.01
280
1
281
0
  0
IMAGEDEF_REACTOR
  5
A1
330
A0
100
AcDbRasterImageDefReactor
 90
2
330
A0
  0
IMAGEDEF
  5
A5
102
{ACAD_REACTORS
330
31
330
A7
102
}
330
31
100
AcDbRasterImageDef
 90
0
  1
facades_coupes_aligned/underlay/belev_Maisonprincipale_long.png
 10
1210.0
 20
1190.0
 11
0.01
 21
0.01
280
1
281
0
  0
IMAGEDEF_REACTOR
  5
A7
330
A6
100
AcDbRasterImageDefReactor
 90
2
330
A6
  0
IMAGEDEF
  5
AD
102
{ACAD_REACTORS
330
31
330
AF
102
}
330
31
100
AcDbRasterImageDef
 90
0
  1
facades_coupes_aligned/underlay/belev_Maisonprincipale_short.png
 10
1092.0
 20
1191.0
 11
0.01
 21
0.01
280
1
281
0
  0
IMAGEDEF_REACTOR
  5
AF
330
AE
100
AcDbRasterImageDefReactor
 90
2
330
AE
  0
IMAGEDEF
  5
B5
102
{ACAD_REACTORS
330
31
330
B7
102
}
330
31
100
AcDbRasterImageDef
 90
0
  1
facades_coupes_aligned/underlay/bcoupe_Maisonprincipale_transv.png
 10
1092.0
 20
1191.0
 11
0.01
 21
0.01
280
1
281
0
  0
IMAGEDEF_REACTOR
  5
B7
330
B6
100
AcDbRasterImageDefReactor
 90
2
330
B6
  0
IMAGEDEF
  5
BB
102
{ACAD_REACTORS
330
31
330
BD
102
}
330
31
100
AcDbRasterImageDef
 90
0
  1
facades_coupes_aligned/underlay/bcoupe_Maisonprincipale_longit.png
 10
1210.0
 20
1191.0
 11
0.01
 21
0.01
280
1
281
0
  0
IMAGEDEF_REACTOR
  5
BD
330
BC
100
AcDbRasterImageDefReactor
 90
2
330
BC
  0
DICTIONARYVAR
  5
E8
330
2D
100
DictionaryVariables
280
0
  1
1.4.4 @ 2026-06-09T00:54:17.489413+00:00
  0
ENDSEC
  0
EOF
